<svg width="0" height="0" class="hidden">
 <symbol fill="none" xmlns="http://www.w3.org/2000/svg" viewBox="0 0 12 12" id="arrow-red">
    <path d="M2.62268e-07 5.99998C2.41575e-07 5.5266 0.383756 5.14284 0.857143 5.14284L9.02486 5.14284L5.40516 1.52713C5.05542 1.17778 5.05542 0.611365 5.40516 0.262013C5.7549 -0.0873386 6.32193 -0.0873378 6.67167 0.262014L11.7377 5.32247C11.924 5.50859 12.0111 5.75632 11.9989 6.00002C12.0111 6.2437 11.924 6.49142 11.7377 6.67753L6.67167 11.738C6.32193 12.0873 5.7549 12.0873 5.40516 11.738C5.05542 11.3886 5.05542 10.8222 5.40516 10.4729L9.02489 6.85712L0.857143 6.85712C0.383756 6.85712 2.8296e-07 6.47337 2.62268e-07 5.99998Z" fill="#D22F3A"></path>
  </symbol>
 <symbol fill="none" xmlns="http://www.w3.org/2000/svg" viewBox="0 0 242 121" id="group4">
    <rect opacity="0.1" width="21" height="21" transform="matrix(-1 0 0 1 242 55)" fill="#D22F3A"></rect>
    <rect opacity="0.1" width="9" height="9" transform="matrix(-1 0 0 1 213 38)" fill="#D29B2F"></rect>
    <rect opacity="0.1" width="31" height="31" transform="matrix(1 8.74228e-08 8.74228e-08 -1 0 121)" fill="#D29B2F"></rect>
    <rect opacity="0.2" x="111" width="18" height="18" fill="#D29B2F"></rect>
    <rect opacity="0.1" x="101" y="18" width="10" height="10" fill="#D29B2F"></rect>
    <rect opacity="0.1" width="14" height="14" transform="matrix(1 8.74228e-08 8.74228e-08 -1 24 97)" fill="#D29B2F"></rect>
  </symbol>
  <symbol fill="none" xmlns="http://www.w3.org/2000/svg" viewBox="0 0 244 121" id="group2">
    <rect opacity="0.1" width="30" height="30" transform="matrix(-1 0 0 1 133 18)" fill="#D29B2F"></rect>
    <rect opacity="0.1" width="21" height="21" transform="matrix(1 0 0 -1 206 104)" fill="#D29B2F"></rect>
    <rect opacity="0.1" width="9" height="9" transform="matrix(1 0 0 -1 235 121)" fill="#D29B2F"></rect>
    <rect opacity="0.2" width="24" height="24" transform="matrix(-1 0 0 1 24 58)" fill="#D29B2F"></rect>
    <rect opacity="0.1" width="8" height="8" transform="matrix(-1 0 0 1 32 82)" fill="#D29B2F"></rect>
    <rect opacity="0.1" width="14" height="14" transform="matrix(-1 0 0 1 99 0)" fill="#D29B2F"></rect>
  </symbol>
  <symbol fill="none" xmlns="http://www.w3.org/2000/svg" viewBox="0 0 228 117" id="group3">
    <rect opacity="0.1" width="30" height="30" transform="matrix(-1 0 0 1 133 17)" fill="#D29B2F"></rect>
    <rect opacity="0.1" x="228" y="94" width="21" height="21" transform="rotate(-180 228 94)" fill="#D29B2F"></rect>
    <rect opacity="0.1" x="199" y="111" width="9" height="9" transform="rotate(-180 199 111)" fill="#D29B2F"></rect>
    <rect opacity="0.2" x="19" y="104" width="19" height="19" transform="rotate(-180 19 104)" fill="#D29B2F"></rect>
    <rect opacity="0.1" x="25" y="85" width="6" height="6" transform="rotate(-180 25 85)" fill="#D29B2F"></rect>
    <rect opacity="0.1" width="14" height="14" transform="matrix(-1 0 0 1 99 -1)" fill="#D29B2F"></rect>
  </symbol>
 <symbol fill="none" xmlns="http://www.w3.org/2000/svg" viewBox="0 0 67 67" id="programs">
    <path d="M46.6044 11.5154H20.4391C19.7165 11.5154 19.1305 12.1012 19.1305 12.824V22.2458C19.1305 22.9686 19.7165 23.5544 20.4391 23.5544H46.6044C47.327 23.5544 47.913 22.9686 47.913 22.2458V12.824C47.913 12.1012 47.327 11.5154 46.6044 11.5154ZM45.2958 20.9373H21.7477V14.1326H45.2958V20.9373Z" fill="#D29B2F"></path>
    <path d="M20.4323 30.8828H46.5977C47.3203 30.8828 47.9063 30.297 47.9063 29.5742C47.9063 28.8515 47.3203 28.2656 46.5977 28.2656H20.4323C19.7097 28.2656 19.1237 28.8515 19.1237 29.5742C19.1237 30.297 19.7096 30.8828 20.4323 30.8828Z" fill="#D29B2F"></path>
    <path d="M46.6041 35.5935H46.5898C45.8672 35.5935 45.2812 36.1795 45.2812 36.9021C45.2812 37.6247 45.8672 38.2107 46.5898 38.2107H46.6041C47.3267 38.2107 47.9127 37.6247 47.9127 36.9021C47.9127 36.1795 47.3267 35.5935 46.6041 35.5935Z" fill="#D29B2F"></path>
    <path d="M41.3698 35.5935H20.4323C19.7097 35.5935 19.1237 36.1795 19.1237 36.9021C19.1237 37.6247 19.7097 38.2107 20.4323 38.2107H41.3698C42.0924 38.2107 42.6784 37.6247 42.6784 36.9021C42.6784 36.1795 42.0924 35.5935 41.3698 35.5935Z" fill="#D29B2F"></path>
    <path d="M66.83 45.9425C66.8303 45.9424 66.8304 45.9422 66.8307 45.9421L58.3346 30.9105C58.1025 30.4998 57.6671 30.2458 57.1953 30.2458H55.2228V9.16015C55.2228 6.99548 53.4617 5.23437 51.297 5.23437H51.0351V3.92578C51.0351 1.76111 49.274 0 47.1094 0H19.8906C17.7259 0 15.9648 1.76111 15.9648 3.92578V5.23437H15.703C13.5383 5.23437 11.7772 6.99548 11.7772 9.16015V30.2457H9.83892C9.36783 30.2457 8.93324 30.4987 8.70084 30.9083L0.17051 45.94C0.170771 45.94 0.171033 45.9401 0.171295 45.9403C0.0628125 46.1309 0 46.3509 0 46.5859V65.6914C0 66.414 0.585988 67 1.30859 67H7.30627C8.02888 67 8.61486 66.414 8.61486 65.6914C8.61486 64.9688 8.02888 64.3828 7.30627 64.3828H2.61719V47.8945H23.7728H28.2948C28.8805 50.2225 30.9914 51.9512 33.4987 51.9512C36.0059 51.9512 38.1168 50.2225 38.7026 47.8945H46.3666H64.3828V64.3828H17.775C17.0524 64.3828 16.4664 64.9688 16.4664 65.6914C16.4664 66.414 17.0524 67 17.775 67H65.6914C66.414 67 67 66.414 67 65.6914V46.5859C67 46.3518 66.9377 46.1326 66.83 45.9425ZM18.582 3.92578C18.582 3.20422 19.1691 2.61719 19.8906 2.61719H47.1094C47.8309 2.61719 48.418 3.20422 48.418 3.92578V5.23437H18.582V3.92578ZM10.6009 32.8628H11.7772V45.2773H3.55584L10.6009 32.8628ZM37.5552 45.2773C36.8326 45.2773 36.2466 45.8633 36.2466 46.5859C36.2466 48.1011 35.0138 49.334 33.4986 49.334C31.9833 49.334 30.7505 48.1011 30.7505 46.5859C30.7505 45.8633 30.1645 45.2773 29.4419 45.2773H23.7728H14.3944V9.16015C14.3944 8.4386 14.9814 7.85156 15.703 7.85156H51.297C52.0186 7.85156 52.6056 8.4386 52.6056 9.16015V45.2773H46.3665H37.5552ZM55.2228 45.2773V32.8628H56.4318L63.4486 45.2773H55.2228Z" fill="#D22F3A"></path>
    <path d="M22.636 52.8889C21.9134 52.8889 21.3274 53.4749 21.3274 54.1975V58.0796C21.3274 58.8022 21.9134 59.3882 22.636 59.3882H44.3614C45.084 59.3882 45.67 58.8022 45.67 58.0796V54.1975C45.67 53.4749 45.084 52.8889 44.3614 52.8889C43.6388 52.8889 43.0528 53.4749 43.0528 54.1975V56.771H23.9446V54.1975C23.9446 53.4749 23.3588 52.8889 22.636 52.8889Z" fill="#D22F3A"></path>
    <path d="M12.5405 64.3828C12.1963 64.3828 11.8587 64.5227 11.6153 64.7662C11.3719 65.0098 11.2319 65.3472 11.2319 65.6914C11.2319 66.0356 11.3718 66.3732 11.6153 66.6165C11.8587 66.8598 12.1963 67 12.5405 67C12.8859 67 13.2223 66.86 13.4655 66.6165C13.7102 66.3732 13.8491 66.0356 13.8491 65.6914C13.8491 65.3472 13.7102 65.0096 13.4655 64.7662C13.2223 64.5227 12.8846 64.3828 12.5405 64.3828Z" fill="#D29B2F"></path>
  </symbol>
 <symbol fill="none" xmlns="http://www.w3.org/2000/svg" viewBox="0 0 26 26" id="arrow">
    <path d="M5.68247e-07 13C5.23413e-07 11.9743 0.831472 11.1428 1.85714 11.1428L19.5539 11.1428L11.7112 3.30878C10.9534 2.55185 10.9534 1.32462 11.7112 0.567695C12.4689 -0.189234 13.6975 -0.189232 14.4553 0.567697L25.4317 11.532C25.8354 11.9353 26.024 12.472 25.9976 13C26.024 13.528 25.8354 14.0647 25.4317 14.468L14.4553 25.4323C13.6975 26.1892 12.4689 26.1892 11.7112 25.4323C10.9534 24.6754 10.9534 23.4482 11.7112 22.6912L19.5539 14.8571L1.85714 14.8571C0.831472 14.8571 6.1308e-07 14.0256 5.68247e-07 13Z" fill="white"></path>
  </symbol>
<symbol fill="none" xmlns="http://www.w3.org/2000/svg" viewBox="0 0 29 29" id="burger">
    <g clip-path="url(#clip0_141_3487)">
      <path d="M27.7917 15.6833H1.20833C0.541331 15.6833 0 15.1419 0 14.4749C0 13.8079 0.541331 13.2666 1.20833 13.2666H27.7917C28.4587 13.2666 29 13.8079 29 14.4749C29 15.1419 28.4587 15.6833 27.7917 15.6833Z" fill="white"></path>
      <path d="M27.7917 6.41911H1.20833C0.541331 6.41911 0 5.87778 0 5.21077C0 4.54377 0.541331 4.00244 1.20833 4.00244H27.7917C28.4587 4.00244 29 4.54377 29 5.21077C29 5.87778 28.4587 6.41911 27.7917 6.41911Z" fill="white"></path>
      <path d="M27.7917 24.9469H1.20833C0.541331 24.9469 0 24.4056 0 23.7386C0 23.0716 0.541331 22.5303 1.20833 22.5303H27.7917C28.4587 22.5303 29 23.0716 29 23.7386C29 24.4056 28.4587 24.9469 27.7917 24.9469Z" fill="white"></path>
    </g>
    <defs>
      <clipPath id="clip0_141_3487">
        <rect width="29" height="29" fill="white"></rect>
      </clipPath>
    </defs>
  </symbol>
  <symbol fill="none" xmlns="http://www.w3.org/2000/svg" viewBox="0 0 66 73" id="tutor">
    <path d="M48.2952 56.2498C47.5111 56.2498 46.8748 56.8861 46.8748 57.6702C46.8748 58.4543 47.5111 59.0906 48.2952 59.0906C49.0793 59.0906 49.7156 58.4543 49.7156 57.6702C49.7156 56.8861 49.0793 56.2498 48.2952 56.2498Z" fill="#D29B2F"></path>
    <path d="M51.7926 51.6564L45.0412 49.4064L42.6175 44.5588C44.801 42.3364 46.3171 39.3958 46.8283 36.3286L47.1306 34.5168H49.7156C52.0653 34.5168 53.977 32.6052 53.977 30.2555V21.3067C53.977 9.55818 44.4188 0 32.6703 0C20.8916 0 11.3636 9.53077 11.3636 21.3067V30.2555C11.3636 32.1072 12.5512 33.6862 14.2045 34.2725V35.9373C14.2045 38.287 16.1161 40.1986 18.4658 40.1986H19.7132C20.329 41.5363 21.126 42.7752 22.0959 43.8881C22.297 44.1193 22.5068 44.3435 22.7217 44.5615L20.2993 49.4064L13.5478 51.6565C5.69769 54.2741 0 62.5381 0 71.3064C0 72.0909 0.635934 72.7269 1.42045 72.7269H63.9201C64.7045 72.7269 65.3405 72.0909 65.3405 71.3064C65.3405 62.5381 59.643 54.2741 51.7926 51.6564ZM51.1361 30.2555C51.1361 31.0387 50.4989 31.676 49.7156 31.676H47.5477C47.9088 28.8791 48.1494 25.9028 48.2462 22.9715C48.249 22.8888 48.2513 22.8084 48.2538 22.7271H51.1361V30.2555ZM15.6249 31.676C14.8417 31.676 14.2045 31.0387 14.2045 30.2555V22.7271H17.0877C17.0924 22.8753 17.0973 23.0242 17.1029 23.174C17.103 23.1791 17.1033 23.1841 17.1035 23.1892C17.1035 23.1896 17.1035 23.1901 17.1035 23.1905C17.2029 26.0416 17.4404 28.9406 17.7932 31.6758H15.6249V31.676ZM18.4658 37.3577C17.6826 37.3577 17.0454 36.7205 17.0454 35.9373V34.5168H18.2098L18.5121 36.3292C18.5698 36.6737 18.6407 37.0168 18.7226 37.3577H18.4658ZM17.0478 19.8862H14.2584C14.9779 10.3663 22.9227 2.84089 32.6703 2.84089C42.3745 2.84089 50.3543 10.3653 51.0819 19.8862H48.2929C48.1906 12.0415 41.8025 5.68179 33.9417 5.68179H31.3991C23.5385 5.68179 17.1499 12.0415 17.0478 19.8862ZM31.399 8.52268H33.9416C40.3064 8.52268 45.458 13.7288 45.4543 20.0865C45.4543 20.5335 45.4507 20.9227 45.4432 21.2769C45.4432 21.2814 45.4431 21.2861 45.4431 21.2908L43.6664 21.037C38.8397 20.3478 34.2823 18.0691 30.8338 14.6205C30.5673 14.3542 30.2061 14.2045 29.8294 14.2045C26.0146 14.2045 22.3629 15.9425 19.949 18.8789C20.5439 13.095 25.4335 8.52268 31.399 8.52268ZM21.6675 37.3577C20.9564 34.9923 20.1428 28.0321 19.963 23.5719L21.8747 21.0227C23.6305 18.6824 26.3622 17.2283 29.268 17.0614C33.0914 20.7 38.0377 23.1028 43.2647 23.8492L45.3558 24.148C45.2161 27.1146 44.9304 30.0916 44.5212 32.8295C44.521 32.8303 44.5209 32.8313 44.5208 32.8323C44.3907 33.7126 44.2881 34.2791 44.0262 35.8613C43.2739 40.3733 39.9072 44.4536 35.4627 45.5648C33.6336 46.0215 31.7066 46.0213 29.8785 45.5648C27.1034 44.871 24.5588 42.9509 22.9166 40.1986H25.8124C26.3987 41.8519 27.9775 43.0395 29.8294 43.0395H32.6703C35.0247 43.0395 36.9316 41.1327 36.9316 38.7782C36.9316 36.4285 35.02 34.5168 32.6703 34.5168H29.8294C27.9363 34.5168 26.3808 35.7396 25.8099 37.3577H21.6675ZM29.7099 48.4395C30.6842 48.6447 31.6775 48.7497 32.6703 48.7497C33.4474 48.7497 34.2247 48.6847 34.9931 48.5585L32.4832 51.2129L29.7099 48.4395ZM30.5304 53.278L26.025 58.0424C24.7847 55.6683 23.7189 53.1974 22.8448 50.6679L24.5366 47.2841L30.5304 53.278ZM40.5631 46.8029L42.4955 50.6677C41.6199 53.2015 40.5539 55.6733 39.3148 58.0445L34.4927 53.2224L40.5631 46.8029ZM28.4089 38.7782C28.4089 37.994 29.045 37.3577 29.8294 37.3577H32.6703C33.4535 37.3577 34.0907 37.9949 34.0907 38.7782C34.0907 39.5626 33.4545 40.1986 32.6703 40.1986H29.8294C29.0461 40.1986 28.4089 39.5614 28.4089 38.7782ZM2.89771 69.886C3.46063 62.8492 8.1437 56.4532 14.4462 54.3515L20.4255 52.3589C21.5209 55.388 22.878 58.3322 24.4685 61.1288C24.4712 61.1336 24.4737 61.1384 24.4764 61.1431C24.4764 61.1433 24.4766 61.1433 24.4766 61.1434C25.6386 63.1873 26.9466 65.1846 28.3646 67.0807L30.112 69.886H2.89771ZM32.6703 68.6198L30.7439 65.527C30.7223 65.4924 30.6993 65.4587 30.6748 65.426C29.5245 63.8917 28.4515 62.287 27.4743 60.6445L32.54 55.2875L37.8778 60.6252C36.894 62.2796 35.8173 63.891 34.666 65.4258C34.5964 65.5185 34.6951 65.3724 32.6703 68.6198ZM35.2285 69.886L36.9758 67.0809C38.4001 65.1775 39.7174 63.1641 40.8911 61.0962C40.8982 61.0837 40.9049 61.071 40.912 61.0585C40.9128 61.0569 40.9137 61.0555 40.9145 61.0539C42.4848 58.284 43.8277 55.3654 44.9151 52.3589L50.8942 54.3515C57.1968 56.4532 61.8799 62.8492 62.4428 69.886H35.2285Z" fill="#D22F3A"></path>
    <path d="M58.1737 64.1374C57.2245 62.2373 55.834 60.5492 54.1526 59.2558C53.5307 58.7772 52.639 58.8935 52.1607 59.5154C51.6823 60.1373 51.7986 61.029 52.4204 61.5074C53.7633 62.5405 54.8738 63.889 55.6321 65.407C55.9834 66.11 56.8371 66.3929 57.5377 66.0429C58.2394 65.6924 58.5242 64.8392 58.1737 64.1374Z" fill="#D29B2F"></path>
  </symbol>
  <symbol fill="none" xmlns="http://www.w3.org/2000/svg" viewBox="0 0 18 22" id="pin">
    <path fill-rule="evenodd" clip-rule="evenodd" d="M13.2721 9.27212C13.2721 11.4813 11.4813 13.2721 9.27214 13.2721C7.06301 13.2721 5.27214 11.4813 5.27214 9.27212C5.27214 7.06298 7.06301 5.27212 9.27214 5.27212C11.4813 5.27212 13.2721 7.06298 13.2721 9.27212ZM11.2721 9.27212C11.2721 10.3767 10.3767 11.2721 9.27214 11.2721C8.16758 11.2721 7.27214 10.3767 7.27214 9.27212C7.27214 8.16755 8.16758 7.27212 9.27214 7.27212C10.3767 7.27212 11.2721 8.16755 11.2721 9.27212Z" fill="#777777"></path>
    <path fill-rule="evenodd" clip-rule="evenodd" d="M2.79417 15.5183C-0.805757 12.0909 -0.945617 6.39409 2.48178 2.79417C5.90918 -0.805757 11.6059 -0.945617 15.2059 2.48178C18.8058 5.90918 18.9457 11.6059 15.5183 15.2059L9.3124 21.7241L2.79417 15.5183ZM14.0698 13.8268L9.24298 18.8965L4.17324 14.0698C1.3733 11.404 1.26452 6.97318 3.93028 4.17324C6.59603 1.3733 11.0268 1.26452 13.8268 3.93028C16.6267 6.59603 16.7355 11.0268 14.0698 13.8268Z" fill="#777777"></path>
  </symbol>
  <symbol fill="none" xmlns="http://www.w3.org/2000/svg" viewBox="0 0 73 59" id="delivery">
    <path d="M71.3064 32.4189H68.9138L64.9804 20.8811C64.7843 20.3056 64.2438 19.919 63.636 19.919H51.1361V13.3849C51.1361 12.6004 50.5 11.9645 49.7156 11.9645H42.8975V7.82147C42.8975 3.9053 39.7114 0.719238 35.7952 0.719238H15.3408C11.4247 0.719238 8.23859 3.9053 8.23859 7.82147V11.9645H1.42045C0.635934 11.9645 0 12.6004 0 13.3849V49.7484C0 50.5329 0.635934 51.1688 1.42045 51.1688H7.70109C8.03831 55.0496 11.3031 58.1053 15.2698 58.1053C19.2365 58.1053 22.5013 55.0496 22.8385 51.1688H30.7343C31.5189 51.1688 32.1548 50.5329 32.1548 49.7484C32.1548 48.9638 31.5189 48.3279 30.7343 48.3279H22.5496C22.0649 46.7107 21.0551 45.3193 19.7189 44.3507H48.2952V48.3279H43.5182C42.7338 48.3279 42.0978 48.9638 42.0978 49.7484C42.0978 50.5329 42.7338 51.1688 43.5182 51.1688H50.7111C51.0483 55.0496 54.313 58.1053 58.2798 58.1053C62.2465 58.1053 65.5113 55.0496 65.8485 51.1688H71.3064C72.0908 51.1688 72.7269 50.5329 72.7269 49.7484V33.8394C72.7269 33.055 72.0908 32.4189 71.3064 32.4189ZM69.886 38.6689H66.4769V35.2598H69.886V38.6689ZM62.6195 22.7599L65.9124 32.4189H51.1361V22.7599H62.6195ZM29.8314 3.56013V10.4601L26.3976 7.99903C26.1501 7.82175 25.8601 7.73312 25.57 7.73312C25.28 7.73312 24.9899 7.82175 24.7425 7.99903L21.3087 10.4601V3.56013H29.8314ZM11.0795 7.82147C11.0795 5.47177 12.9911 3.56013 15.3408 3.56013H18.4678V13.2257C18.4678 13.7582 18.7657 14.246 19.2392 14.4893C19.7128 14.7325 20.2828 14.6905 20.7158 14.3802L25.57 10.901L30.4243 14.3802C30.6701 14.5565 30.9603 14.6461 31.2519 14.6461C31.4737 14.6461 31.6961 14.5943 31.9008 14.4893C32.3744 14.246 32.6723 13.7582 32.6723 13.2257V3.56013H35.7952C38.145 3.56013 40.0566 5.47177 40.0566 7.82147V28.2759C40.0566 30.6256 38.145 32.5372 35.7952 32.5372H15.3408C12.9911 32.5372 11.0795 30.6256 11.0795 28.2759V7.82147ZM15.2698 55.2644C12.6459 55.2644 10.5113 53.1297 10.5113 50.5059C10.5113 47.882 12.6459 45.7474 15.2698 45.7474C17.8936 45.7474 20.0283 47.882 20.0283 50.5059C20.0283 53.1297 17.8936 55.2644 15.2698 55.2644ZM7.99001 48.3279H2.84089V44.3507H10.8207C9.48446 45.3193 8.47481 46.7107 7.99001 48.3279ZM2.84089 41.5098V14.8054H8.23859V28.2759C8.23859 32.1921 11.4247 35.3781 15.3408 35.3781H35.7952C39.7114 35.3781 42.8975 32.1921 42.8975 28.2759V14.8054H48.2952V41.5098H2.84089ZM58.2798 55.2644C55.6559 55.2644 53.5213 53.1297 53.5213 50.5059C53.5213 47.882 55.6559 45.7474 58.2798 45.7474C60.9036 45.7474 63.0383 47.882 63.0383 50.5059C63.0383 53.1297 60.9036 55.2644 58.2798 55.2644ZM65.5596 48.3279C64.6208 45.1958 61.7133 42.9065 58.2798 42.9065C54.9993 42.9065 52.1981 44.996 51.1361 47.9139V35.2598H63.636V40.0893C63.636 40.8738 64.2721 41.5098 65.0564 41.5098H69.886V48.3279H65.5596Z" fill="#D22F3A"></path>
    <path d="M30.7344 28.5135H35.2271C36.0116 28.5135 36.6475 27.8776 36.6475 27.0931C36.6475 26.3085 36.0116 25.6726 35.2271 25.6726H30.7344C29.9498 25.6726 29.3139 26.3085 29.3139 27.0931C29.3139 27.8776 29.9498 28.5135 30.7344 28.5135Z" fill="#D29B2F"></path>
    <path d="M37.1262 48.3286C36.7526 48.3286 36.3861 48.4792 36.1219 48.7448C35.8577 49.009 35.7057 49.3755 35.7057 49.7491C35.7057 50.1226 35.8577 50.4891 36.1219 50.7533C36.3861 51.0175 36.7526 51.1695 37.1262 51.1695C37.4998 51.1695 37.8662 51.0175 38.1303 50.7533C38.3945 50.4891 38.5466 50.1226 38.5466 49.7491C38.5466 49.3755 38.3947 49.009 38.1303 48.7448C37.8662 48.4792 37.4998 48.3286 37.1262 48.3286Z" fill="#D29B2F"></path>
  </symbol>
  <symbol fill="none" xmlns="http://www.w3.org/2000/svg" viewBox="0 0 68 66" id="time">
    <path d="M67.8689 35.7781C67.2583 29.637 64.5148 23.8475 60.1433 19.4759C56.4075 15.7402 51.835 13.3396 47.0236 12.2722V8.89764C48.9888 8.40875 50.4495 6.62997 50.4495 4.51569C50.4495 2.02569 48.4238 0 45.9338 0H36.3711C33.8811 0 31.8554 2.02569 31.8554 4.51569C31.8554 6.62983 33.3161 8.40862 35.2811 8.89764V12.2816C30.4845 13.3536 25.9271 15.7509 22.2019 19.4761C21.3867 20.2913 20.635 21.1465 19.9469 22.0353C19.9135 22.0327 19.8802 22.0302 19.8462 22.0302H10.3817C9.64831 22.0302 9.05357 22.6248 9.05357 23.3584C9.05357 24.0919 9.64831 24.6865 10.3817 24.6865H18.1397C17.1659 26.3168 16.3807 28.0289 15.783 29.7914H1.32815C0.594743 29.7914 0 30.386 0 31.1195C0 31.853 0.594743 32.4477 1.32815 32.4477H15.0325C14.6497 34.1279 14.43 35.8379 14.3733 37.5526H8.50013C7.76673 37.5526 7.17198 38.1472 7.17198 38.8808C7.17198 39.6143 7.76673 40.2089 8.50013 40.2089H14.4157C14.5278 41.9281 14.8042 43.6382 15.245 45.3139H6.64072C5.90732 45.3139 5.31258 45.9085 5.31258 46.6421C5.31258 47.3756 5.90732 47.9702 6.64072 47.9702H16.0926C17.3955 51.4169 19.4317 54.6473 22.2019 57.4176C26.5776 61.7933 32.3731 64.5375 38.5206 65.1449C39.398 65.2314 40.276 65.2743 41.1528 65.2743C46.3355 65.2743 51.4523 63.7745 55.794 60.9471C56.4087 60.5468 56.5826 59.724 56.1823 59.1094C55.782 58.4947 54.9592 58.3208 54.3445 58.7211C44.8407 64.9099 32.1127 63.5718 24.0802 55.5393C14.6554 46.1145 14.6554 30.7794 24.0802 21.3545C33.5048 11.9298 48.84 11.9298 58.2649 21.3545C66.2868 29.3764 67.6322 42.0936 61.4639 51.5927C61.0644 52.2079 61.2393 53.0306 61.8544 53.43C62.4698 53.8295 63.2922 53.6545 63.6916 53.0393C66.9873 47.9638 68.4708 41.8338 67.8689 35.7781ZM34.5117 4.51583C34.5117 3.4905 35.3458 2.65642 36.3711 2.65642H45.9338C46.9591 2.65642 47.7932 3.4905 47.7932 4.51583C47.7932 5.54115 46.9591 6.37523 45.9338 6.37523H45.6955H36.6093H36.3711C35.3458 6.37523 34.5117 5.54102 34.5117 4.51583ZM37.9374 11.825V9.03152H44.3673V11.8202C42.2322 11.5663 40.0721 11.5679 37.9374 11.825Z" fill="#D22F3A"></path>
    <path d="M59.2048 55.1497C58.8541 55.1497 58.5128 55.2918 58.2659 55.5388C58.0176 55.7858 57.8766 56.1285 57.8766 56.4778C57.8766 56.8271 58.0176 57.1697 58.2659 57.4168C58.5128 57.6651 58.8543 57.8059 59.2048 57.8059C59.5541 57.8059 59.8954 57.6651 60.1438 57.4168C60.3908 57.1697 60.5329 56.8271 60.5329 56.4778C60.5329 56.1285 60.3909 55.7858 60.1438 55.5388C59.8954 55.2918 59.5539 55.1497 59.2048 55.1497Z" fill="#D29B2F"></path>
    <path d="M41.1727 17.8433C29.812 17.8433 20.5693 27.0858 20.5693 38.4466C20.5693 49.8075 29.812 59.05 41.1727 59.05C52.5334 59.05 61.7761 49.8075 61.7761 38.4466C61.7761 27.0858 52.5334 17.8433 41.1727 17.8433ZM41.1727 56.3937C31.2765 56.3937 23.2256 48.3427 23.2256 38.4466C23.2256 28.5506 31.2765 20.4996 41.1727 20.4996C51.0688 20.4996 59.1198 28.5506 59.1198 38.4466C59.1198 48.3427 51.0688 56.3937 41.1727 56.3937Z" fill="#D22F3A"></path>
    <path d="M49.5738 28.1671L42.9955 34.7452C42.4454 34.4732 41.8266 34.3196 41.1725 34.3196C40.5183 34.3196 39.8996 34.4732 39.3495 34.7452L36.4054 31.8011C35.8866 31.2825 35.0459 31.2825 34.527 31.8011C34.0084 32.3198 34.0084 33.1607 34.527 33.6794L37.4711 36.6235C37.199 37.1736 37.0454 37.7924 37.0454 38.4465C37.0454 40.7221 38.8967 42.5736 41.1725 42.5736C43.4483 42.5736 45.2996 40.7221 45.2996 38.4465C45.2996 37.7924 45.1459 37.1736 44.8739 36.6235L51.2591 30.2383L51.4521 30.0453C51.9707 29.5267 51.9707 28.6857 51.4521 28.1671C50.9335 27.6484 50.0927 27.6484 49.5738 28.1671ZM41.1725 39.9174C40.3616 39.9174 39.7017 39.2576 39.7017 38.4466C39.7017 37.6357 40.3616 36.9758 41.1725 36.9758C41.9835 36.9758 42.6433 37.6357 42.6433 38.4466C42.6433 39.2576 41.9835 39.9174 41.1725 39.9174Z" fill="#D29B2F"></path>
    <path d="M55.3728 37.1348H54.1423C53.4089 37.1348 52.8142 37.7294 52.8142 38.4629C52.8142 39.1964 53.4089 39.791 54.1423 39.791H55.3728C56.1062 39.791 56.701 39.1964 56.701 38.4629C56.701 37.7294 56.1062 37.1348 55.3728 37.1348Z" fill="#D29B2F"></path>
    <path d="M28.2029 37.1023H26.9725C26.2391 37.1023 25.6444 37.6969 25.6444 38.4304C25.6444 39.1639 26.2391 39.7585 26.9725 39.7585H28.2029C28.9363 39.7585 29.531 39.1639 29.531 38.4304C29.531 37.6969 28.9363 37.1023 28.2029 37.1023Z" fill="#D29B2F"></path>
    <path d="M41.1887 26.8046C41.9221 26.8046 42.5168 26.21 42.5168 25.4765V24.2461C42.5168 23.5126 41.9221 22.918 41.1887 22.918C40.4553 22.918 39.8606 23.5126 39.8606 24.2461V25.4765C39.8606 26.21 40.4553 26.8046 41.1887 26.8046Z" fill="#D29B2F"></path>
    <path d="M41.1563 50.0886C40.4229 50.0886 39.8282 50.6832 39.8282 51.4167V52.6471C39.8282 53.3806 40.4229 53.9752 41.1563 53.9752C41.8897 53.9752 42.4844 53.3806 42.4844 52.6471V51.4167C42.4844 50.6832 41.8897 50.0886 41.1563 50.0886Z" fill="#D29B2F"></path>
    <path d="M1.32812 45.3132C0.978827 45.3132 0.636171 45.4553 0.38914 45.7024C0.142109 45.9494 0 46.2921 0 46.6414C0 46.992 0.141976 47.3333 0.38914 47.5803C0.636304 47.8274 0.978827 47.9695 1.32812 47.9695C1.67742 47.9695 2.02008 47.8274 2.26698 47.5803C2.51401 47.3333 2.65625 46.9907 2.65625 46.6414C2.65625 46.2921 2.51414 45.9494 2.26698 45.7024C2.02008 45.4553 1.67742 45.3132 1.32812 45.3132Z" fill="#D29B2F"></path>
  </symbol>
  <symbol fill="none" xmlns="http://www.w3.org/2000/svg" viewBox="0 0 40 40" id="youtube">
    <circle cx="20" cy="20" r="20" fill="#F40000"></circle>
    <path d="M28.7131 18.9131C28.7131 18.5252 28.6485 18.0727 28.6485 17.5556C28.5839 17.0384 28.5192 16.5212 28.4545 16.0687C28.3253 15.5515 28.1313 15.1636 27.7434 14.8404C27.4202 14.5172 26.9677 14.3232 26.5152 14.2586C25.0283 14.0646 22.8303 14 19.8566 14C16.8828 14 14.6202 14.0646 13.198 14.2586C12.7455 14.3232 12.2929 14.5172 11.9697 14.8404C11.6465 15.1636 11.3879 15.5515 11.2586 16.0687C11.1293 16.5212 11.0647 16.9737 11.0647 17.5556C11 18.0727 11 18.5252 11 18.9131C11 19.301 11 19.7535 11 20.4C11 21.0465 11 21.5636 11 21.8869C11 22.2747 11.0647 22.7273 11.0647 23.2444C11.1293 23.7616 11.1939 24.2788 11.2586 24.7313C11.3879 25.2485 11.5818 25.6364 11.9697 25.9596C12.2929 26.2828 12.7455 26.4768 13.198 26.5414C14.6848 26.7354 16.8828 26.8 19.8566 26.8C22.8303 26.8 25.0929 26.7354 26.5152 26.5414C26.9677 26.4768 27.4202 26.2828 27.7434 25.9596C28.0667 25.6364 28.3253 25.2485 28.4545 24.7313C28.5838 24.2788 28.6485 23.8263 28.6485 23.2444C28.7131 22.7273 28.7131 22.2747 28.7131 21.8869C28.7131 21.499 28.7131 21.0465 28.7131 20.4C28.7131 19.7535 28.7131 19.2364 28.7131 18.9131ZM23.2828 20.9172L18.1758 24.0848C18.1111 24.1495 17.9818 24.2141 17.8525 24.2141C17.7232 24.2141 17.6586 24.2141 17.5293 24.1495C17.3354 24.0202 17.2061 23.8263 17.2061 23.5677V17.1677C17.2061 16.9091 17.3354 16.7152 17.5293 16.5859C17.7232 16.4566 17.9818 16.4566 18.1758 16.5859L23.2828 19.7535C23.4768 19.8828 23.6061 20.0768 23.6061 20.2707C23.6061 20.4646 23.4768 20.7879 23.2828 20.9172Z" fill="white"></path>
  </symbol>
  <symbol fill="none" xmlns="http://www.w3.org/2000/svg" viewBox="0 0 19 19" id="search">
    <path fill-rule="evenodd" clip-rule="evenodd" d="M14.319 12.9075C16.7628 9.76899 16.542 5.22833 13.6569 2.34315C10.5327 -0.781049 5.46734 -0.781049 2.34315 2.34315C-0.781049 5.46734 -0.781049 10.5327 2.34315 13.6569C5.22833 16.542 9.76899 16.7628 12.9075 14.319C12.921 14.3343 12.9351 14.3493 12.9497 14.364L17.1924 18.6066C17.5829 18.9971 18.2161 18.9971 18.6066 18.6066C18.9971 18.2161 18.9971 17.5829 18.6066 17.1924L14.364 12.9497C14.3493 12.9351 14.3343 12.921 14.319 12.9075ZM12.2426 3.75736C14.5858 6.1005 14.5858 9.8995 12.2426 12.2426C9.8995 14.5858 6.1005 14.5858 3.75736 12.2426C1.41421 9.8995 1.41421 6.1005 3.75736 3.75736C6.1005 1.41421 9.8995 1.41421 12.2426 3.75736Z" fill="#777777"></path>
  </symbol>
  <symbol fill="none" xmlns="http://www.w3.org/2000/svg" viewBox="0 0 40 40" id="vk">
    <circle cx="20" cy="20" r="20" fill="#7294C7"></circle>
    <path d="M26.2561 21.4546C25.9004 20.9996 26.0021 20.7971 26.2561 20.3904C26.2606 20.3858 29.1968 16.2759 29.4993 14.8821L29.5012 14.8812C29.6515 14.3733 29.5012 14 28.7742 14H26.3688C25.7564 14 25.4741 14.3204 25.3228 14.6788C25.3228 14.6788 24.0981 17.6484 22.3656 19.5733C21.8064 20.1295 21.5479 20.3078 21.2426 20.3078C21.0923 20.3078 20.8585 20.1295 20.8585 19.6216V14.8812C20.8585 14.2721 20.6871 14 20.1802 14H16.3979C16.0138 14 15.7855 14.2841 15.7855 14.5488C15.7855 15.1264 16.6518 15.2591 16.7416 16.8841V20.4099C16.7416 21.1825 16.6032 21.3246 16.2961 21.3246C15.4784 21.3246 13.4938 18.3429 12.3176 14.9304C12.0802 14.2684 11.8483 14.0009 11.2314 14.0009H8.82503C8.13842 14.0009 8 14.3213 8 14.6797C8 15.313 8.81769 18.4618 11.8025 22.6218C13.7917 25.4614 16.5931 27 19.1416 27C20.6734 27 20.8604 26.6583 20.8604 26.0705C20.8604 23.3572 20.7219 23.1009 21.4892 23.1009C21.8449 23.1009 22.4573 23.2792 23.8873 24.6489C25.5218 26.2729 25.7904 27 26.7052 27H29.1106C29.7963 27 30.1438 26.6583 29.9439 25.9841C29.4865 24.5662 26.3954 21.6496 26.2561 21.4546Z" fill="white"></path>
  </symbol>
  
  <symbol fill="none" xmlns="http://www.w3.org/2000/svg" viewBox="0 0 40 40" id="ok">
    <circle cx="20" cy="20" r="20" fill="#F79A38"></circle>
    <path d="M26.2376 22.7928C26.7624 22.2681 26.8373 21.5185 26.3876 20.7689C26.0128 20.1692 25.3381 19.8694 24.5885 20.0193C24.2887 20.0942 23.9888 20.2442 23.689 20.469C21.3652 22.0432 18.2168 21.9683 15.893 20.3941C15.7431 20.3191 15.5932 20.2442 15.4433 20.1692C14.6187 19.7944 13.7941 19.9443 13.3444 20.6939C12.8196 21.4435 12.8946 22.2681 13.5692 22.9428C13.7192 23.0927 13.8691 23.1676 13.944 23.3176L14.019 23.3925C15.0685 24.2171 16.3428 24.7418 17.9919 24.9667L17.0174 25.9412C16.1929 26.7658 15.2933 27.6653 14.4688 28.4899C14.2439 28.7148 13.944 29.0896 13.944 29.6143C13.944 30.2889 14.3188 30.9636 14.9935 31.2634C15.2184 31.4133 15.4433 31.4133 15.6681 31.4133C16.0429 31.4133 16.4927 31.2634 16.7926 30.8886C17.917 29.7642 18.8165 28.8647 19.716 27.9651C19.791 27.8902 19.791 27.8902 19.791 27.8902C19.791 27.8902 19.866 27.8902 19.866 27.9651C20.4656 28.6398 21.1403 29.2395 21.74 29.9141C22.0398 30.214 22.3397 30.5138 22.6395 30.8137C23.0143 31.1885 23.3142 31.3384 23.7639 31.3384C24.4386 31.4134 25.1882 30.9636 25.488 30.2889C25.7879 29.6892 25.638 28.9396 25.1132 28.4899C24.3636 27.7403 23.614 26.9157 22.7894 26.1661L21.5151 24.8917C22.1898 24.8168 22.9394 24.6669 23.614 24.367C24.7384 23.9922 25.563 23.4675 26.2376 22.7928Z" fill="white"></path>
    <path d="M19.791 20.6939C23.0143 20.6939 25.638 18.1452 25.638 14.9219C25.638 13.3477 25.0383 11.8485 23.9138 10.7241C22.7894 9.59969 21.3652 9 19.866 9C16.6426 9 14.094 11.6236 14.019 14.772C14.019 16.3462 14.6187 17.7704 15.7431 18.8948C16.7926 20.0942 18.2168 20.6939 19.791 20.6939ZM18.1419 13.1978C18.5916 12.7481 19.1913 12.5232 19.791 12.5232C21.1403 12.5232 22.1148 13.5726 22.1148 14.847C22.1148 16.1963 21.0653 17.1707 19.791 17.1707C18.4417 17.1707 17.4672 16.1213 17.4672 14.847C17.4672 14.2473 17.6921 13.6476 18.1419 13.1978Z" fill="white"></path>
    <path d="M26.2376 22.7928C26.7624 22.2681 26.8373 21.5185 26.3876 20.7689C26.0128 20.1692 25.3381 19.8694 24.5885 20.0193C24.2887 20.0942 23.9888 20.2442 23.689 20.469C21.3652 22.0432 18.2168 21.9683 15.893 20.3941C15.7431 20.3191 15.5932 20.2442 15.4433 20.1692C14.6187 19.7944 13.7941 19.9443 13.3444 20.6939C12.8196 21.4435 12.8946 22.2681 13.5692 22.9428C13.7192 23.0927 13.8691 23.1676 13.944 23.3176L14.019 23.3925C15.0685 24.2171 16.3428 24.7418 17.9919 24.9667L17.0174 25.9412C16.1929 26.7658 15.2933 27.6653 14.4688 28.4899C14.2439 28.7148 13.944 29.0896 13.944 29.6143C13.944 30.2889 14.3188 30.9636 14.9935 31.2634C15.2184 31.4133 15.4433 31.4133 15.6681 31.4133C16.0429 31.4133 16.4927 31.2634 16.7926 30.8886C17.917 29.7642 18.8165 28.8647 19.716 27.9651C19.791 27.8902 19.791 27.8902 19.791 27.8902C19.791 27.8902 19.866 27.8902 19.866 27.9651C20.4656 28.6398 21.1403 29.2395 21.74 29.9141C22.0398 30.214 22.3397 30.5138 22.6395 30.8137C23.0143 31.1885 23.3142 31.3384 23.7639 31.3384C24.4386 31.4134 25.1882 30.9636 25.488 30.2889C25.7879 29.6892 25.638 28.9396 25.1132 28.4899C24.3636 27.7403 23.614 26.9157 22.7894 26.1661L21.5151 24.8917C22.1898 24.8168 22.9394 24.6669 23.614 24.367C24.7384 23.9922 25.563 23.4675 26.2376 22.7928Z" fill="white"></path>
  </symbol>
  <symbol fill="none" xmlns="http://www.w3.org/2000/svg" viewBox="0 0 40 40" id="twitter">
    <circle cx="20" cy="20" r="20" fill="#55ACE3"></circle>
    <path d="M30.6 14.9C29.9 15.2 29.1 15.4 28.3 15.5C29.1 15 29.8 14.2 30.1 13.3C29.3 13.8 28.5 14.1 27.5 14.3C26.8 13.5 25.7 13 24.6 13C22.4 13 20.6 14.8 20.6 17C20.6 17.3 20.6 17.6 20.7 17.9C17.4 17.7 14.4 16.1 12.4 13.7C12.1 14.3 11.9 15 11.9 15.7C11.9 17.1 12.6 18.3 13.7 19C13 19 12.4 18.8 11.9 18.5C11.9 20.4 13.3 22.1 15.1 22.4C14.8 22.5 14.4 22.5 14 22.5C13.7 22.5 13.5 22.5 13.2 22.4C13.7 24 15.2 25.2 17 25.2C15.6 26.3 13.9 26.9 12 26.9C11.7 26.9 11.4 26.9 11 26.8C12.8 27.9 14.9 28.6 17.2 28.6C24.6 28.6 28.6 22.5 28.6 17.2V16.7C29.4 16.4 30.1 15.7 30.6 14.9Z" fill="white"></path>
  </symbol>
  <symbol fill="none" xmlns="http://www.w3.org/2000/svg" viewBox="0 0 20 20" id="phone">
    <path d="M14.7122 10.2933C14.3212 9.90225 13.6892 9.90225 13.2982 10.2933L11.7042 11.8872C10.9652 11.6672 9.58622 11.1672 8.71222 10.2933C7.83822 9.41925 7.33822 8.04025 7.11822 7.30125L8.71222 5.70725C9.10322 5.31625 9.10322 4.68425 8.71222 4.29325L4.71222 0.29325C4.32122 -0.09775 3.68922 -0.09775 3.29822 0.29325L0.586217 3.00525C0.206217 3.38525 -0.00778346 3.90725 0.000216545 4.44025C0.0232165 5.86425 0.400217 10.8103 4.29822 14.7083C8.19622 18.6063 13.1422 18.9823 14.5672 19.0063C14.5722 19.0063 14.5902 19.0063 14.5952 19.0063C15.1232 19.0063 15.6222 18.7983 16.0002 18.4202L18.7122 15.7083C19.1032 15.3173 19.1032 14.6853 18.7122 14.2943L14.7122 10.2933ZM14.5852 17.0052C13.3372 16.9842 9.06722 16.6493 5.71222 13.2933C2.34622 9.92725 2.02022 5.64225 2.00022 4.41925L4.00522 2.41425L6.59122 5.00025L5.29822 6.29325C5.05922 6.53125 4.95722 6.87525 5.02622 7.20525C5.05022 7.32025 5.63722 10.0472 7.29722 11.7072C8.95722 13.3672 11.6842 13.9542 11.7992 13.9782C12.1322 14.0492 12.4732 13.9462 12.7112 13.7072L14.0052 12.4142L16.5912 15.0002L14.5852 17.0052Z" fill="#777777"></path>
  </symbol>
  <symbol fill="none" xmlns="http://www.w3.org/2000/svg" viewBox="0 0 40 40" id="watsapp">
    <circle cx="20" cy="20" r="20" fill="#48C95F"></circle>
    <path d="M27.9268 12.0625C25.9512 10.0937 23.3171 9 20.5366 9C14.7561 9 10.0732 13.6667 10.0732 19.4271C10.0732 21.25 10.5854 23.0729 11.4634 24.6042L10 30L15.561 28.5417C17.0976 29.3438 18.7805 29.7812 20.5366 29.7812C26.3171 29.7812 31 25.1146 31 19.3542C30.9268 16.6563 29.9024 14.0312 27.9268 12.0625ZM25.5854 23.1458C25.3659 23.7292 24.3415 24.3125 23.8293 24.3854C23.3902 24.4583 22.8049 24.4583 22.2195 24.3125C21.8537 24.1667 21.3415 24.0208 20.7561 23.7292C18.122 22.6354 16.439 20.0104 16.2927 19.7917C16.1463 19.6458 15.1951 18.4062 15.1951 17.0937C15.1951 15.7812 15.8537 15.1979 16.0732 14.9062C16.2927 14.6146 16.5854 14.6146 16.8049 14.6146C16.9512 14.6146 17.1707 14.6146 17.3171 14.6146C17.4634 14.6146 17.6829 14.5417 17.9024 15.0521C18.122 15.5625 18.6341 16.875 18.7073 16.9479C18.7805 17.0938 18.7805 17.2396 18.7073 17.3854C18.6341 17.5312 18.561 17.6771 18.4146 17.8229C18.2683 17.9687 18.1219 18.1875 18.0488 18.2604C17.9024 18.4062 17.7561 18.5521 17.9024 18.7708C18.0488 19.0625 18.561 19.8646 19.3659 20.5937C20.3902 21.4687 21.1951 21.7604 21.4878 21.9063C21.7805 22.0521 21.9268 21.9792 22.0732 21.8333C22.2195 21.6875 22.7317 21.1042 22.878 20.8125C23.0244 20.5208 23.2439 20.5938 23.4634 20.6667C23.6829 20.7396 25 21.3958 25.2195 21.5417C25.5122 21.6875 25.6585 21.7604 25.7317 21.8333C25.8049 22.0521 25.8049 22.5625 25.5854 23.1458Z" fill="white"></path>
  </symbol>
   <symbol fill="none" xmlns="http://www.w3.org/2000/svg" viewBox="0 0 40 40" id="instagramm">
    <circle cx="20" cy="20" r="20" fill="url(#paint0_linear_2_407)"></circle>
    <path d="M26.5808 12H14.4192C13.0462 12 12 13.0462 12 14.4192V26.5808C12 27.9538 13.0462 29 14.4192 29H26.5808C27.9538 29 29 27.9538 29 26.5808V14.4192C29 13.0462 27.9538 12 26.5808 12ZM20.5 25.6C23.3115 25.6 25.6 23.3769 25.6 20.6962C25.6 20.2385 25.5346 19.7154 25.4038 19.3231H26.8423V26.2538C26.8423 26.5808 26.5808 26.9077 26.1885 26.9077H14.8115C14.4846 26.9077 14.1577 26.6462 14.1577 26.2538V19.2577H15.6615C15.5308 19.7154 15.4654 20.1731 15.4654 20.6308C15.4 23.3769 17.6885 25.6 20.5 25.6ZM20.5 23.6385C18.6692 23.6385 17.2308 22.2 17.2308 20.4346C17.2308 18.6692 18.6692 17.2308 20.5 17.2308C22.3308 17.2308 23.7692 18.6692 23.7692 20.4346C23.7692 22.2654 22.3308 23.6385 20.5 23.6385ZM26.7769 16.6423C26.7769 17.0346 26.45 17.3615 26.0577 17.3615H24.2269C23.8346 17.3615 23.5077 17.0346 23.5077 16.6423V14.8769C23.5077 14.4846 23.8346 14.1577 24.2269 14.1577H26.0577C26.45 14.1577 26.7769 14.4846 26.7769 14.8769V16.6423Z" fill="white"></path>
    <defs>
      <linearGradient id="paint0_linear_2_407" x1="8.5" y1="35.5" x2="35" y2="8" gradientUnits="userSpaceOnUse">
        <stop stop-color="#EEA054"></stop>
        <stop offset="0.502762" stop-color="#D64763"></stop>
        <stop offset="1" stop-color="#B62A99"></stop>
      </linearGradient>
    </defs>
  </symbol>
  <symbol fill="none" xmlns="http://www.w3.org/2000/svg" viewBox="0 0 40 40" id="facebook">
    <path d="M40 20C40 31.0457 31.0457 40 20 40C8.9543 40 0 31.0457 0 20C0 8.9543 8.9543 0 20 0C31.0457 0 40 8.9543 40 20Z" fill="white"></path>
    <path fill-rule="evenodd" clip-rule="evenodd" d="M23.6667 39.6646C32.9612 37.9425 40 29.7932 40 20C40 8.9543 31.0457 0 20 0C8.9543 0 0 8.9543 0 20C0 30.1185 7.51411 38.482 17.2667 39.8148V23.9866H13V18.6577H17.2667V13.3946C17.2667 9.86195 20.131 7 23.6667 7H28.9333V12.3289H25.8C25.7048 12.3289 25.6111 12.3281 25.5192 12.3274C24.4742 12.3193 23.6667 12.3131 23.6667 13.3946V18.6577H29L27.8667 23.9866H23.6667V39.6646Z" fill="url(#paint0_linear_2_416)"></path>
    <defs>
      <linearGradient id="paint0_linear_2_416" x1="20" y1="0" x2="20" y2="39.8148" gradientUnits="userSpaceOnUse">
        <stop stop-color="#18ACFE"></stop>
        <stop offset="1" stop-color="#0164E1"></stop>
      </linearGradient>
    </defs>
  </symbol>
  <symbol fill="none" xmlns="http://www.w3.org/2000/svg" viewBox="0 0 18 15" id="mail">
    <path fill-rule="evenodd" clip-rule="evenodd" d="M0.00976562 1C0.00976562 0.447715 0.457481 0 1.00977 0H17C17.5523 0 18 0.447715 18 1V12.3242C18 13.4288 17.1046 14.3242 16 14.3242H2C0.89543 14.3242 0 13.4288 0 12.3242V1.32422C0 1.2766 0.00332856 1.22976 0.00976562 1.18391V1ZM2 3.22375V12.3242H16V3.2241L11.1215 8.10261C9.94992 9.27418 8.05042 9.27418 6.87885 8.10261L2 3.22375ZM3.57232 1.96765H14.428L9.70728 6.68839C9.31675 7.07892 8.68359 7.07892 8.29306 6.68839L3.57232 1.96765Z" fill="#777777"></path>
  </symbol>
  <symbol fill="none" xmlns="http://www.w3.org/2000/svg" viewBox="0 0 175 50" id="logo">
    <path d="M75.2654 0.283691H70.0809C70.1325 2.2698 70.0293 4.90074 69.436 7.97017C71.19 7.71224 72.944 7.50589 74.7495 7.35113C75.2138 4.56542 75.2912 2.14083 75.2654 0.283691Z" fill="url(#paint0_linear_2_434)"></path>
    <path d="M124.944 12.2002C124.686 12.4839 124.402 12.7677 124.093 13.103C123.783 13.4383 123.448 13.7736 123.113 14.1347C122.777 14.4958 122.442 14.8311 122.107 15.1665C121.771 15.5018 121.462 15.8113 121.152 16.095C121.488 16.3272 121.875 16.6367 122.236 16.9978C122.623 17.3589 123.009 17.72 123.371 18.1327C123.732 18.5454 124.093 18.9323 124.402 19.3708C124.738 19.7835 124.996 20.1962 125.202 20.5573H123.835C123.603 20.1704 123.319 19.8093 123.009 19.4224C122.7 19.0355 122.365 18.6744 122.029 18.3391C121.668 17.978 121.333 17.6684 120.972 17.3589C120.611 17.0752 120.275 16.8172 119.94 16.6109V20.5573H118.779V12.2002H119.94V15.8887C120.224 15.6307 120.533 15.3212 120.869 14.9859C121.204 14.6506 121.539 14.3153 121.875 13.98C122.21 13.6446 122.519 13.3093 122.803 12.9998C123.087 12.6903 123.345 12.4323 123.551 12.2002H124.944Z" fill="#B7B7B7"></path>
    <path d="M131.573 17.4105C131.573 17.9006 131.496 18.3649 131.367 18.7518C131.212 19.1645 131.031 19.4998 130.748 19.7835C130.49 20.0672 130.18 20.2994 129.819 20.4541C129.458 20.6089 129.071 20.6863 128.632 20.6863C128.22 20.6863 127.807 20.6089 127.446 20.4541C127.085 20.2994 126.775 20.0672 126.517 19.7835C126.259 19.4998 126.053 19.1387 125.898 18.7518C125.744 18.3391 125.692 17.9006 125.692 17.4105C125.692 16.9204 125.769 16.4819 125.898 16.0692C126.053 15.6565 126.234 15.3212 126.517 15.0375C126.775 14.7538 127.085 14.5216 127.446 14.3669C127.807 14.2121 128.194 14.1347 128.632 14.1347C129.045 14.1347 129.458 14.2121 129.819 14.3669C130.18 14.5216 130.49 14.7538 130.748 15.0375C131.005 15.3212 131.212 15.6823 131.367 16.0692C131.496 16.4819 131.573 16.9204 131.573 17.4105ZM130.386 17.4105C130.386 16.7141 130.232 16.1466 129.922 15.7339C129.613 15.3212 129.174 15.1149 128.632 15.1149C128.091 15.1149 127.652 15.3212 127.343 15.7339C127.033 16.1466 126.878 16.7141 126.878 17.4105C126.878 18.1069 127.033 18.6744 127.343 19.0871C127.652 19.4998 128.091 19.7061 128.632 19.7061C129.174 19.7061 129.613 19.4998 129.922 19.0871C130.232 18.6744 130.386 18.1327 130.386 17.4105Z" fill="#B7B7B7"></path>
    <path d="M134.333 15.9403C134.255 16.7399 134.204 17.5137 134.152 18.3133C134.101 19.1129 134.075 19.8351 134.049 20.5315H132.966C132.992 20.0414 133.017 19.5256 133.043 19.0097C133.069 18.468 133.121 17.9522 133.146 17.4105C133.198 16.8688 133.224 16.3272 133.275 15.8113C133.327 15.2954 133.378 14.7796 133.43 14.2895H134.462C134.72 14.7022 135.029 15.2696 135.365 15.9919C135.7 16.7141 136.113 17.5653 136.551 18.4938C136.99 17.5395 137.402 16.7141 137.738 15.9919C138.073 15.2696 138.382 14.7022 138.64 14.2895H139.672C139.724 14.7796 139.775 15.2696 139.827 15.8113C139.878 16.3272 139.93 16.8688 139.956 17.4105C140.007 17.9522 140.033 18.4938 140.059 19.0097C140.085 19.5514 140.111 20.0414 140.136 20.5315H139.027C139.001 19.8351 138.976 19.0871 138.924 18.3133C138.872 17.5137 138.821 16.7399 138.744 15.9403C138.615 16.1982 138.46 16.4819 138.305 16.843C138.124 17.2041 137.97 17.5395 137.815 17.9006C137.66 18.2617 137.505 18.597 137.351 18.9323C137.196 19.2676 137.093 19.5256 137.015 19.7061H136.087C136.009 19.4998 135.88 19.2418 135.726 18.9065C135.571 18.5712 135.416 18.2359 135.261 17.8748C135.107 17.5137 134.926 17.1526 134.771 16.8172C134.617 16.4561 134.462 16.1724 134.333 15.9403Z" fill="#B7B7B7"></path>
    <path d="M145.837 20.5315V15.218H143.051V20.5315H141.942V14.2895H146.972V20.5315H145.837Z" fill="#B7B7B7"></path>
    <path d="M150.892 14.1347C151.331 14.1347 151.718 14.1863 152.027 14.3153C152.337 14.4442 152.595 14.599 152.775 14.8053C152.956 15.0117 153.111 15.2696 153.188 15.5534C153.265 15.8371 153.317 16.1724 153.317 16.5335V20.4541C153.214 20.4799 153.085 20.4799 152.904 20.5315C152.724 20.5573 152.543 20.5831 152.311 20.6089C152.105 20.6347 151.872 20.6605 151.615 20.6863C151.357 20.7121 151.099 20.7121 150.867 20.7121C150.505 20.7121 150.196 20.6863 149.886 20.6089C149.577 20.5315 149.345 20.4283 149.113 20.2736C148.906 20.1188 148.726 19.9125 148.597 19.6545C148.468 19.3966 148.416 19.0871 148.416 18.726C148.416 18.3907 148.493 18.0811 148.622 17.8232C148.751 17.5653 148.958 17.3847 149.19 17.2299C149.422 17.0752 149.706 16.972 150.041 16.8946C150.351 16.8172 150.686 16.7915 151.047 16.7915C151.15 16.7915 151.279 16.7915 151.408 16.8172C151.537 16.8172 151.64 16.843 151.743 16.8688C151.847 16.8946 151.95 16.8946 152.027 16.9204C152.105 16.9462 152.156 16.9462 152.208 16.9462V16.6367C152.208 16.4561 152.182 16.2756 152.156 16.095C152.13 15.9145 152.053 15.7597 151.95 15.6049C151.847 15.476 151.692 15.347 151.511 15.2696C151.331 15.1922 151.099 15.1407 150.815 15.1407C150.454 15.1407 150.118 15.1665 149.835 15.218C149.551 15.2696 149.345 15.3212 149.216 15.3728L149.087 14.4442C149.242 14.3926 149.474 14.3153 149.809 14.2637C150.144 14.1605 150.505 14.1347 150.892 14.1347ZM150.995 19.7319C151.253 19.7319 151.486 19.7319 151.692 19.7061C151.898 19.7061 152.079 19.6803 152.208 19.6287V17.7974C152.13 17.7458 152.001 17.72 151.821 17.6942C151.64 17.6684 151.434 17.6426 151.176 17.6426C150.995 17.6426 150.841 17.6426 150.634 17.6684C150.454 17.6942 150.273 17.7458 150.118 17.8232C149.964 17.9006 149.835 18.0037 149.732 18.1327C149.628 18.2617 149.577 18.4422 149.577 18.6486C149.577 19.0613 149.706 19.3192 149.964 19.474C150.196 19.6545 150.557 19.7319 150.995 19.7319Z" fill="#B7B7B7"></path>
    <path d="M160.281 20.5315H159.172V17.7716H156.283V20.5315H155.174V14.2895H156.283V16.843H159.172V14.2895H160.281V20.5315Z" fill="#B7B7B7"></path>
    <path d="M167.452 20.5315H166.368V15.7855C166.136 16.095 165.853 16.4561 165.569 16.843C165.285 17.2557 165.001 17.6684 164.692 18.1069C164.408 18.5454 164.124 18.9839 163.866 19.3966C163.609 19.8093 163.376 20.1962 163.17 20.5315H162.164V14.2895H163.247V18.7776C163.454 18.4422 163.686 18.0553 163.97 17.6426C164.228 17.2299 164.511 16.8172 164.795 16.4045C165.079 15.9918 165.362 15.6049 165.646 15.2438C165.93 14.8827 166.188 14.5474 166.446 14.2637H167.452V20.5315Z" fill="#B7B7B7"></path>
    <path d="M171.966 18.1069C171.837 18.1069 171.733 18.1069 171.605 18.1069C171.501 18.1069 171.372 18.1069 171.269 18.0811C171.011 18.468 170.753 18.8807 170.521 19.3192C170.289 19.7577 170.083 20.1704 169.902 20.5315H168.767C168.87 20.2994 168.974 20.0672 169.103 19.8093C169.232 19.5772 169.36 19.3192 169.489 19.0871C169.618 18.8549 169.747 18.6228 169.902 18.4164C170.031 18.2101 170.16 18.0295 170.289 17.849C170.057 17.7716 169.876 17.6684 169.747 17.5653C169.593 17.4363 169.489 17.3073 169.386 17.1784C169.309 17.0236 169.232 16.8688 169.206 16.7141C169.18 16.5593 169.154 16.3788 169.154 16.224C169.154 15.8629 169.232 15.5534 169.36 15.2954C169.489 15.0375 169.67 14.8053 169.902 14.6506C170.134 14.47 170.418 14.3411 170.728 14.2637C171.037 14.1863 171.398 14.1347 171.759 14.1347C172.301 14.1347 172.739 14.1605 173.101 14.2121C173.462 14.2637 173.771 14.3153 174.029 14.3926V20.5573H172.92V18.1327H171.966V18.1069ZM172.946 15.1149C172.868 15.0891 172.714 15.0891 172.507 15.0633C172.301 15.0375 172.069 15.0375 171.811 15.0375C171.347 15.0375 170.985 15.1407 170.702 15.3212C170.418 15.5018 170.289 15.8113 170.289 16.224C170.289 16.6367 170.444 16.8946 170.728 17.0494C171.011 17.2041 171.398 17.2815 171.837 17.2815H172.946V15.1149Z" fill="#B7B7B7"></path>
    <path d="M61.4662 35.6993L61.4404 35.4414L61.1825 35.4672C59.8928 35.6478 58.4225 35.6993 57.4166 35.6993C55.2499 35.6993 54.6567 35.0029 54.6567 32.4494C54.6567 29.8958 55.2499 29.1994 57.4166 29.1994C58.2678 29.1994 59.4027 29.2252 60.615 29.251H61.2083L61.234 29.0446L61.6467 26.7232L61.6725 26.5168L61.492 26.4395C59.8154 25.6914 57.4682 25.6399 56.7976 25.6399C52.0257 25.6399 50.246 27.497 50.246 32.4752C50.246 37.4275 51.9999 39.2847 56.746 39.2847C58.6547 39.2847 60.4087 38.9751 61.6983 38.4335L61.8789 38.3561L61.8531 38.1497L61.4662 35.6993Z" fill="#32384C"></path>
    <path d="M62.4463 25.9752V29.3799H66.5991V38.9493H70.8035V29.3799H74.9304V25.9752H62.4463Z" fill="#32384C"></path>
    <path d="M84.5514 25.6399C82.8233 25.6399 80.9403 26.3879 79.7796 27.497L79.5733 26.2073L79.5475 25.9752H76.0138V43.7469H80.2439V40.4969C80.2697 39.8263 80.2439 39.0783 80.2181 38.3045C81.2756 38.9493 82.5911 39.2847 84.0871 39.2847C87.6725 39.2847 89.1169 37.3501 89.1169 32.5783C89.1427 27.9097 87.6467 25.6399 84.5514 25.6399ZM80.2697 30.1537C81.3014 29.4831 82.101 29.0962 83.107 29.0962C84.1387 29.0962 84.7836 29.3283 84.7836 32.5783C84.7836 35.6736 84.1903 35.9831 82.8491 35.9831C81.9721 35.9831 81.3272 35.8025 80.5792 35.622C80.476 35.5962 80.3729 35.5704 80.2697 35.5446V30.1537Z" fill="#32384C"></path>
    <path d="M97.0355 25.6141C92.2379 25.6141 90.355 27.5486 90.355 32.4752C90.355 37.3759 92.2379 39.2847 97.0355 39.2847C99.5117 39.2847 101.137 38.7946 102.168 37.737C103.2 36.6795 103.69 35.0029 103.69 32.5009C103.69 27.5486 101.807 25.6141 97.0355 25.6141ZM97.0355 35.9573C95.3331 35.9573 94.7915 35.4672 94.7915 32.4752C94.7915 29.4315 95.3331 28.9414 97.0355 28.9414C98.7121 28.9414 99.2796 29.4573 99.2796 32.4752C99.2796 35.4672 98.7121 35.9573 97.0355 35.9573Z" fill="#32384C"></path>
    <path d="M114.059 25.9752L113.982 26.0783L109.236 32.8878C109.081 33.12 108.926 33.3263 108.797 33.5585C108.797 33.3521 108.823 33.12 108.823 32.8878V25.9752H104.98V38.9493H108.539L108.617 38.8462L113.311 32.1914C113.466 31.9851 113.621 31.7271 113.776 31.4176C113.75 31.6756 113.75 31.9335 113.75 32.1914V38.9751H114.008L117.361 38.9493H117.619V25.9752H114.059Z" fill="#32384C"></path>
    <path d="M118.78 25.9752V29.3799H122.932V38.9493H127.137V29.3799H131.264V25.9752H118.78Z" fill="#32384C"></path>
    <path d="M145.476 30.2311C145.45 27.0843 143.49 25.6141 139.311 25.6141C134.565 25.6141 132.708 27.5486 132.708 32.4752C132.708 37.2985 134.668 39.2589 139.466 39.2589C140.523 39.2589 143.206 39.1557 145.012 38.3045L145.192 38.2271L145.166 38.0466L144.805 35.7251L144.779 35.493L144.547 35.5188C142.948 35.6993 141.117 35.8025 139.93 35.8025C138.254 35.8025 137.557 35.5188 137.273 34.0228H141.478C144.186 33.9712 145.476 32.7847 145.476 30.2311ZM141.297 30.1795C141.297 30.9017 141.168 31.2113 140.395 31.2113H137.119C137.248 29.2252 137.815 28.864 139.311 28.864C139.337 28.864 139.389 28.864 139.414 28.864C141.039 28.864 141.297 29.251 141.297 30.1795Z" fill="#32384C"></path>
    <path d="M159.43 25.9752H153.523C151.254 25.9752 150.016 27.0843 149.809 29.3799C149.577 31.9851 149.319 33.7132 149.01 34.6418C148.752 35.4672 148.339 35.622 147.101 35.8025L146.843 35.8541L146.869 36.112L147.256 38.8977L147.281 39.1041L147.488 39.1299C147.849 39.1815 148.184 39.1815 148.494 39.1815C150.867 39.1815 152.363 38.0208 152.853 35.8283C153.214 34.4613 153.498 32.4494 153.781 30.1279C153.885 29.3283 154.117 29.122 154.839 29.122H156.206V38.9493H160.436V26.9811C160.436 26.4137 159.972 25.9752 159.43 25.9752Z" fill="#32384C"></path>
    <path d="M168.097 30.3085H166.446V26.7748C166.446 26.3363 166.085 25.9752 165.646 25.9752H163.144C162.706 25.9752 162.345 26.3363 162.345 26.7748V38.9493H162.706C164.537 39.0783 166.059 39.1041 168.767 39.1041C172.069 39.1041 174.107 38.3561 174.107 34.6934C174.055 31.366 172.611 30.3085 168.097 30.3085ZM169.773 34.5386C169.773 35.7251 169.515 35.9573 168.097 35.9573H166.446V33.1716H168.097C169.567 33.1716 169.773 33.4553 169.773 34.5386Z" fill="#32384C"></path>
    <path d="M88.8074 11.6855C88.7816 8.53869 86.8213 7.06846 82.6427 7.06846C80.2181 7.06846 78.6189 7.55854 77.5872 8.59028C76.5296 9.64782 76.0395 11.3502 76.0395 13.9296C76.0395 18.7529 77.9999 20.7133 82.7975 20.7133C83.855 20.7133 86.5375 20.6101 88.3431 19.7589L88.5236 19.6815L88.4978 19.501L88.1367 17.1795L88.1109 16.9474L87.8788 16.9732C86.2796 17.1537 84.4482 17.2569 83.2617 17.2569C81.5852 17.2569 80.8887 16.9732 80.605 15.4772H84.8094C87.4919 15.4256 88.8074 14.1875 88.8074 11.6855ZM84.6288 11.6339C84.6288 12.3303 84.4998 12.6657 83.726 12.6657H80.4502C80.5792 10.6796 81.1467 10.3185 82.6427 10.3185C82.6685 10.3185 82.7201 10.3185 82.7459 10.3185C84.3709 10.3185 84.6288 10.7054 84.6288 11.6339Z" fill="#32384C"></path>
    <path d="M98.6605 7.06846C97.2677 7.06846 95.849 7.61013 94.6625 8.61608C94.7657 7.99703 94.8173 7.27481 94.8173 6.42362L94.7915 2.45141V2.19348H90.5355V19.6557L90.6903 19.7331C92.3669 20.4553 95.5395 20.7133 97.1387 20.7133C99.5633 20.7133 101.24 20.0684 102.246 18.7272C103.097 17.618 103.484 16.0704 103.484 13.8264C103.484 9.08036 102.039 7.06846 98.6605 7.06846ZM99.1506 13.8264C99.1506 16.8184 98.4799 17.3601 97.0871 17.4117C97.0097 17.4117 96.9065 17.4117 96.8034 17.4117C96.1585 17.4117 95.4105 17.3343 94.8173 17.2053L94.7915 11.505C95.6942 10.9117 96.3391 10.5506 97.1903 10.5506C98.7895 10.5764 99.1506 11.1438 99.1506 13.8264Z" fill="#32384C"></path>
    <path d="M69.5138 8.48711C71.1904 8.25497 72.9185 8.04862 74.6467 7.86806C74.4661 8.87401 74.2082 9.93155 73.8987 11.0149C72.7896 14.8839 71.1904 17.9018 69.8491 20.0426C69.7201 20.2748 69.5654 20.4811 69.4364 20.6875H65.0773C64.9483 20.4811 64.7936 20.2748 64.6646 20.0426C63.3233 17.9018 61.7241 14.8581 60.615 11.0149C59.7638 8.1002 59.4027 5.41767 59.2995 3.19943H64.484C64.613 5.41767 64.9741 8.1002 65.7995 11.0149C66.238 12.4851 66.7281 13.8522 67.2439 15.0903C67.7598 13.8522 68.2757 12.4851 68.6884 11.0149C68.9463 10.1637 69.1527 9.3125 69.3074 8.48711H69.5138Z" fill="#32384C"></path>
    <path d="M59.2995 7.66171C59.0932 8.74504 58.8352 9.87996 58.4999 11.0407C58.0614 12.5109 57.5714 13.878 57.0555 15.1161C56.5396 13.878 56.0237 12.5109 55.611 11.0407C54.3472 6.70735 54.1666 2.9157 54.244 0.310547H49.0595C48.9821 2.9157 49.1884 6.70735 50.4265 11.0407C51.5357 14.9097 53.1349 17.9276 54.4761 20.0684C54.6051 20.3006 54.7599 20.5069 54.8888 20.7133H59.2479C59.3769 20.5069 59.5317 20.3006 59.6606 20.0684C60.3829 18.9335 61.1567 17.5664 61.8789 15.9414C61.1825 14.3938 60.5892 12.7946 60.1249 11.1696C59.7896 10.0089 59.5059 8.84822 59.2995 7.66171Z" fill="#32384C"></path>
    <path d="M50.8135 12.3551C52.3611 11.8392 53.9345 11.3491 55.5337 10.8848C54.3214 6.60312 54.1409 2.86305 54.1925 0.283691H49.008C48.9306 2.88884 49.1369 6.6805 50.375 11.0138C50.5556 11.4781 50.6845 11.9166 50.8135 12.3551Z" fill="url(#paint1_linear_2_434)"></path>
    <path d="M59.7639 9.80152C59.5833 9.0793 59.4286 8.38287 59.2996 7.66065C59.1448 8.43446 58.9901 9.23406 58.7837 10.0595C59.0932 9.95628 59.4286 9.8789 59.7639 9.80152Z" fill="url(#paint2_linear_2_434)"></path>
    <path d="M59.2738 3.19836C59.377 5.0813 59.6607 7.27375 60.254 9.67255C61.879 9.28565 63.5297 8.95033 65.2063 8.64081C64.7678 6.62891 64.5615 4.79757 64.4583 3.17257H59.2738V3.19836Z" fill="url(#paint3_linear_2_434)"></path>
    <path d="M3.09523 3.01785C4.10118 3.37896 5.08133 3.79165 6.06149 4.20435C5.05554 3.79165 4.07538 3.37896 3.09523 3.01785Z" fill="url(#paint4_linear_2_434)"></path>
    <path d="M38.6388 49.3173C38.6388 49.2915 38.6388 49.2915 38.6388 49.3173V49.3173Z" fill="url(#paint5_linear_2_434)"></path>
    <path d="M5.623 26.0515C5.54562 25.7936 5.49403 25.5356 5.41665 25.2519C5.46824 25.5356 5.54562 25.7936 5.623 26.0515Z" fill="url(#paint6_linear_2_434)"></path>
    <path d="M38.4066 47.0991C38.4324 47.3054 38.4582 47.5117 38.484 47.7181C38.4582 47.5375 38.4324 47.3312 38.4066 47.0991Z" fill="url(#paint7_linear_2_434)"></path>
    <path d="M38.1487 45.4225C38.2003 45.6804 38.2261 45.9641 38.2777 46.2221C38.2261 45.9641 38.2003 45.7062 38.1487 45.4225Z" fill="url(#paint8_linear_2_434)"></path>
    <path d="M5.39086 25.2003C5.33927 24.9424 5.26189 24.6586 5.23609 24.4007C5.28768 24.6844 5.33927 24.9424 5.39086 25.2003Z" fill="url(#paint9_linear_2_434)"></path>
    <path d="M14.5476 37.4523C14.1865 37.2459 13.8254 37.0138 13.4642 36.7816C13.7996 37.0138 14.1607 37.2459 14.5476 37.4523Z" fill="url(#paint10_linear_2_434)"></path>
    <path d="M5.88093 26.8769C5.80355 26.619 5.72617 26.361 5.64879 26.0773C5.70038 26.361 5.77776 26.619 5.88093 26.8769Z" fill="url(#paint11_linear_2_434)"></path>
    <path d="M22.9305 39.8769C22.8273 39.8769 22.7241 39.8511 22.621 39.8511C22.7241 39.8769 22.8273 39.8769 22.9305 39.8769Z" fill="url(#paint12_linear_2_434)"></path>
    <path d="M37.865 43.8749C37.9165 44.1844 37.9681 44.4681 38.0197 44.7776C37.9939 44.4681 37.9423 44.1586 37.865 43.8749Z" fill="url(#paint13_linear_2_434)"></path>
    <path d="M9.00196 32.7062C8.84719 32.5257 8.69243 32.3193 8.56346 32.1388C8.69243 32.3193 8.84719 32.4999 9.00196 32.7062Z" fill="url(#paint14_linear_2_434)"></path>
    <path d="M13.3353 36.7042C13.1805 36.6011 13 36.4721 12.8452 36.3689C13 36.4979 13.1805 36.6011 13.3353 36.7042Z" fill="url(#paint15_linear_2_434)"></path>
    <path d="M16.7916 38.5356C16.6626 38.484 16.5337 38.4324 16.4047 38.3808C16.5079 38.4324 16.6369 38.484 16.7916 38.5356Z" fill="url(#paint16_linear_2_434)"></path>
    <path d="M3.09523 3.01785C3.06943 3.01785 3.06943 3.01785 3.09523 3.01785C2.73412 2.88888 2.37301 2.75991 2.03769 2.65674C3.40475 4.90078 4.23014 7.40275 4.48808 10.0337C4.77181 11.2718 4.92657 12.5615 4.92657 13.8769V20.9444C4.92657 22.1051 5.02975 23.2658 5.23609 24.3749C5.18451 24.0912 5.13292 23.8075 5.10713 23.5495C7.17061 32.113 14.8829 38.4582 24.0654 38.4582C24.865 38.4582 25.6388 38.4066 26.3868 38.3292C26.5674 38.3034 26.7737 38.2777 26.9543 38.2519C27.3412 38.2003 27.7023 38.2003 28.115 38.2003C32.2935 38.2003 35.9562 40.4959 37.8907 43.9007C37.3491 41.1407 36.6011 38.4324 35.6725 35.8273C30.5654 21.6408 19.7837 10.2143 6.08728 4.23014C6.06149 4.23014 6.06149 4.20435 6.03569 4.20435C5.05554 3.79165 4.07538 3.37896 3.09523 3.01785ZM20.1706 20.9702C21.1765 20.9702 22.0019 21.7956 22.0019 22.8015C22.0019 23.369 21.744 23.8591 21.3313 24.1944C20.996 24.6071 20.4801 24.865 19.9384 24.865C18.9325 24.865 18.1071 24.0396 18.1071 23.0337C18.1071 22.4662 18.365 21.9761 18.7777 21.6408C19.0872 21.2281 19.6031 20.9702 20.1706 20.9702ZM12.871 15.7341C13.4384 15.0634 14.2896 14.625 15.244 14.625C16.9464 14.625 18.3134 15.992 18.3134 17.6944C18.3134 18.6487 17.8749 19.4999 17.2043 20.0674C16.6369 20.738 15.7857 21.1765 14.8313 21.1765C13.1289 21.1765 11.7619 19.8095 11.7619 18.1071C11.7619 17.1527 12.2004 16.3015 12.871 15.7341Z" fill="url(#paint17_linear_2_434)"></path>
    <path d="M17.617 38.8451C17.488 38.7935 17.3591 38.7419 17.2301 38.6903C17.3333 38.7419 17.4622 38.7935 17.617 38.8451Z" fill="url(#paint18_linear_2_434)"></path>
    <path d="M2.52777 5.2103C2.3988 5.00395 2.26983 4.8234 2.14087 4.61705C2.26983 4.8234 2.3988 5.02975 2.52777 5.2103Z" fill="url(#paint19_linear_2_434)"></path>
    <path d="M3.17261 6.44839C3.12102 6.34522 3.06943 6.21625 3.01785 6.11308C3.06943 6.24204 3.12102 6.34522 3.17261 6.44839Z" fill="url(#paint20_linear_2_434)"></path>
    <path d="M15.1924 37.8134C15.0634 37.736 14.9087 37.6844 14.7797 37.607C14.9345 37.6586 15.0634 37.736 15.1924 37.8134Z" fill="url(#paint21_linear_2_434)"></path>
    <path d="M15.9662 38.1745C15.8373 38.1229 15.7083 38.0455 15.5535 37.9939C15.7083 38.0713 15.8373 38.1229 15.9662 38.1745Z" fill="url(#paint22_linear_2_434)"></path>
    <path d="M11.9424 35.6983C11.7877 35.5693 11.6329 35.4404 11.5039 35.3114C11.6587 35.4404 11.7877 35.5693 11.9424 35.6983Z" fill="url(#paint23_linear_2_434)"></path>
    <path d="M21.0991 39.6963C20.9702 39.6705 20.8412 39.6447 20.7122 39.6447C20.8412 39.6705 20.9702 39.6963 21.0991 39.6963Z" fill="url(#paint24_linear_2_434)"></path>
    <path d="M3.81745 7.89283C3.79165 7.84124 3.76586 7.76386 3.74007 7.71228C3.76586 7.78966 3.79165 7.84124 3.81745 7.89283Z" fill="url(#paint25_linear_2_434)"></path>
    <path d="M22.0019 39.8253C21.8729 39.8253 21.7698 39.7995 21.6408 39.7737C21.7698 39.7995 21.8987 39.7995 22.0019 39.8253Z" fill="url(#paint26_linear_2_434)"></path>
    <path d="M3.55951 7.29958C3.53372 7.2222 3.50793 7.17061 3.45634 7.09323C3.50793 7.14482 3.53372 7.2222 3.55951 7.29958Z" fill="url(#paint27_linear_2_434)"></path>
    <path d="M36.2915 31.4939C36.2142 31.365 36.1626 31.236 36.0852 31.107C36.1626 31.2102 36.24 31.3392 36.2915 31.4939Z" fill="url(#paint28_linear_2_434)"></path>
    <path d="M35.6209 30.1527C35.5693 30.0495 35.4919 29.9205 35.4404 29.8174C35.4919 29.9205 35.5435 30.0495 35.6209 30.1527Z" fill="url(#paint29_linear_2_434)"></path>
    <path d="M31.4424 23.5237C33.8927 26.7221 36.0078 30.1785 37.7102 33.8927C37.6328 33.9701 37.5812 34.0475 37.5038 34.1249C40.8054 30.7201 42.8173 26.0773 42.8173 20.9444C42.8173 16.7658 41.3729 12.7678 38.8967 9.54362C39.0773 9.77576 39.2578 10.0337 39.4384 10.2658C38.0713 8.58926 36.4205 7.09323 34.5376 5.93252C28.734 2.32142 21.0991 1.03174 14.3154 1.03174C10.1111 1.03174 2.3988 2.55356 2.03769 2.65674C2.3988 2.78571 2.73412 2.88888 3.09523 3.01785C4.10118 3.37896 5.08133 3.79165 6.06149 4.20435C6.08728 4.20435 6.08728 4.23014 6.11308 4.23014C7.01585 4.61705 7.91862 5.02975 8.79561 5.49403C17.8491 9.36306 25.6904 15.6309 31.4424 23.5237Z" fill="url(#paint30_linear_2_434)"></path>
    <path d="M34.6666 5.49403C34.8987 5.64879 35.1308 5.82935 35.363 6.0099C35.1566 5.82935 34.9245 5.67458 34.6666 5.49403Z" fill="url(#paint31_linear_2_434)"></path>
    <path d="M34.5376 5.39086C34.2796 5.2103 34.0475 5.05554 33.7896 4.90078C29.9979 2.55356 25.4583 1.2123 20.867 0.515871C25.4325 1.1865 29.9979 2.55356 33.7896 4.90078C34.0475 5.08133 34.2796 5.23609 34.5376 5.39086Z" fill="url(#paint32_linear_2_434)"></path>
    <path d="M34.8471 28.7856C34.7955 28.7082 34.7697 28.6309 34.7181 28.5793C34.7697 28.6309 34.8213 28.7082 34.8471 28.7856Z" fill="url(#paint33_linear_2_434)"></path>
    <path d="M36.9364 32.8094C36.8848 32.6805 36.8074 32.5515 36.7558 32.4225C36.8074 32.5515 36.859 32.6805 36.9364 32.8094Z" fill="url(#paint34_linear_2_434)"></path>
    <path d="M38.2777 8.76981C38.4582 9.00196 38.6646 9.2341 38.8451 9.46624C38.6646 9.2083 38.484 8.97616 38.2777 8.76981Z" fill="url(#paint35_linear_2_434)"></path>
    <path d="M35.492 6.08728C35.7241 6.26784 35.9304 6.44839 36.1368 6.62895C35.9304 6.44839 35.6983 6.26784 35.492 6.08728Z" fill="url(#paint36_linear_2_434)"></path>
    <path d="M35.4146 29.8174C35.234 29.482 35.0277 29.1209 34.8471 28.7856C35.0535 29.1209 35.234 29.4563 35.4146 29.8174Z" fill="url(#paint37_linear_2_434)"></path>
    <path d="M37.5296 34.1249C37.3491 33.6864 37.1427 33.2479 36.9364 32.8094C37.1427 33.2221 37.3233 33.6606 37.5296 34.1249Z" fill="url(#paint38_linear_2_434)"></path>
    <path d="M34.7439 28.5535C33.738 26.7995 32.6547 25.1229 31.4682 23.5237C32.6289 25.1487 33.738 26.8253 34.7439 28.5535Z" fill="url(#paint39_linear_2_434)"></path>
    <path d="M31.4424 23.5237C32.6289 25.1487 33.7122 26.8253 34.7181 28.5535C34.7697 28.6309 34.7955 28.7082 34.8471 28.7598C35.0535 29.0951 35.234 29.4563 35.4146 29.7916C35.4662 29.8947 35.5435 30.0237 35.5951 30.1269C35.7499 30.4364 35.9304 30.7459 36.0852 31.0555C36.1626 31.1844 36.2142 31.3134 36.2915 31.4424C36.4463 31.7519 36.6011 32.0614 36.7558 32.3709C36.8074 32.4999 36.8848 32.6289 36.9364 32.7578C37.1427 33.1963 37.3233 33.6348 37.5296 34.0733C37.607 33.9959 37.6586 33.9185 37.736 33.8412C36.0336 30.1785 33.9185 26.7221 31.4424 23.5237Z" fill="url(#paint40_linear_2_434)"></path>
    <path d="M31.4424 23.5237C32.6289 25.1487 33.7122 26.8253 34.7181 28.5535C34.7697 28.6309 34.7955 28.7082 34.8471 28.7598C35.0535 29.0951 35.234 29.4563 35.4146 29.7916C35.4662 29.8947 35.5435 30.0237 35.5951 30.1269C35.7499 30.4364 35.9304 30.7459 36.0852 31.0555C36.1626 31.1844 36.2142 31.3134 36.2915 31.4424C36.4463 31.7519 36.6011 32.0614 36.7558 32.3709C36.8074 32.4999 36.8848 32.6289 36.9364 32.7578C37.1427 33.1963 37.3233 33.6348 37.5296 34.0733C37.607 33.9959 37.6586 33.9185 37.736 33.8412C36.0336 30.1785 33.9185 26.7221 31.4424 23.5237Z" fill="url(#paint41_linear_2_434)"></path>
    <path d="M17.9007 18.1071C17.9007 18.8551 17.6428 19.5257 17.2043 20.0674C17.8749 19.4999 18.3134 18.6487 18.3134 17.6944C18.3134 15.992 16.9464 14.625 15.244 14.625C14.2896 14.625 13.4384 15.0634 12.871 15.7341C13.4127 15.2956 14.0833 15.0376 14.8313 15.0376C16.5337 15.0376 17.9007 16.4047 17.9007 18.1071Z" fill="url(#paint42_linear_2_434)"></path>
    <path d="M21.744 23.0337C21.744 23.4721 21.5892 23.8848 21.3313 24.1944C21.744 23.8591 22.0019 23.3432 22.0019 22.8015C22.0019 21.7956 21.1765 20.9702 20.1706 20.9702C19.6031 20.9702 19.113 21.2281 18.7777 21.6408C19.0872 21.3829 19.4999 21.2281 19.9384 21.2281C20.9186 21.2023 21.744 22.0277 21.744 23.0337Z" fill="url(#paint43_linear_2_434)"></path>
    <path d="M36.859 7.27379C36.9106 7.29958 36.9364 7.35117 36.988 7.37696C36.9364 7.32537 36.8848 7.29958 36.859 7.27379Z" fill="url(#paint44_linear_2_434)"></path>
    <path d="M37.5812 7.99601C37.607 8.0218 37.607 8.0218 37.6328 8.04759C37.6328 8.0218 37.607 8.0218 37.5812 7.99601Z" fill="url(#paint45_linear_2_434)"></path>
    <path d="M3.01785 6.11308C2.96626 6.0099 2.91467 5.90673 2.86309 5.82935C2.91467 5.93252 2.96626 6.0357 3.01785 6.11308Z" fill="url(#paint46_linear_2_434)"></path>
    <path d="M4.46229 10.0337C4.4107 9.85314 4.35911 9.64679 4.33332 9.46624C4.38491 9.64679 4.4107 9.85314 4.46229 10.0337Z" fill="url(#paint47_linear_2_434)"></path>
    <path d="M2.60515 5.39086C2.57936 5.33927 2.52777 5.28768 2.50198 5.2103C2.55356 5.28768 2.57936 5.33927 2.60515 5.39086Z" fill="url(#paint48_linear_2_434)"></path>
    <path d="M4.33332 9.46624C4.17856 8.95037 4.0238 8.4087 3.81745 7.91863C3.998 8.4087 4.17856 8.92457 4.33332 9.46624Z" fill="url(#paint49_linear_2_434)"></path>
    <path d="M35.3888 6.0099C35.4146 6.03569 35.4662 6.06149 35.492 6.08728C35.4404 6.06149 35.4146 6.03569 35.3888 6.0099Z" fill="url(#paint50_linear_2_434)"></path>
    <path d="M1.13492 3.24999C1.13492 3.2242 1.10912 3.2242 1.08333 3.1984C1.10912 3.2242 1.10912 3.2242 1.13492 3.24999Z" fill="url(#paint51_linear_2_434)"></path>
    <path d="M36.1368 6.62895C36.1626 6.65474 36.1626 6.65474 36.1884 6.68053C36.1884 6.65474 36.1626 6.65474 36.1368 6.62895Z" fill="url(#paint52_linear_2_434)"></path>
    <path d="M1.52182 2.47618C1.00595 2.29563 0.515871 2.14087 0.0257936 1.9861C0.0257936 1.9861 0.0257936 1.9861 0 1.9861C0.515871 2.14087 1.00595 2.29563 1.52182 2.47618Z" fill="url(#paint53_linear_2_434)"></path>
    <path d="M38.2261 8.69243C38.2519 8.71823 38.2777 8.74402 38.2777 8.76981C38.2519 8.74402 38.2261 8.71823 38.2261 8.69243Z" fill="url(#paint54_linear_2_434)"></path>
    <path d="M34.5376 5.39086C34.5892 5.41665 34.6408 5.44244 34.6666 5.49403C34.6408 5.46824 34.5892 5.44244 34.5376 5.39086Z" fill="url(#paint55_linear_2_434)"></path>
    <path d="M3.74007 7.73807C3.68848 7.58331 3.63689 7.45434 3.55951 7.29958C3.63689 7.42855 3.68848 7.58331 3.74007 7.73807Z" fill="url(#paint56_linear_2_434)"></path>
    <path d="M1.67658 3.97221C1.65079 3.94642 1.62499 3.89483 1.5992 3.86904C1.62499 3.89483 1.65079 3.92062 1.67658 3.97221Z" fill="url(#paint57_linear_2_434)"></path>
    <path d="M3.48213 7.09323C3.37896 6.88688 3.30158 6.68053 3.1984 6.44839C3.27578 6.65474 3.37896 6.86109 3.48213 7.09323Z" fill="url(#paint58_linear_2_434)"></path>
    <path d="M2.0119 2.65674C1.88293 2.60515 1.75396 2.55356 1.62499 2.52777C1.57341 2.50198 1.54761 2.47618 1.52182 2.47618C1.00595 2.29563 0.515871 2.14087 0.0257936 1.9861C0.180555 2.19245 0.36111 2.37301 0.541665 2.57936C0.567458 2.60515 0.593252 2.63094 0.619046 2.65674C0.773807 2.83729 0.928568 3.01785 1.08333 3.1984C1.08333 3.2242 1.10912 3.2242 1.13492 3.24999C1.28968 3.45634 1.44444 3.66269 1.5992 3.86904C1.62499 3.89483 1.65079 3.94642 1.67658 3.97221C1.80555 4.12697 1.90872 4.28173 2.03769 4.46229C2.06349 4.51387 2.11507 4.56546 2.14087 4.64284C2.26983 4.84919 2.3988 5.02975 2.52777 5.23609C2.55356 5.28768 2.60515 5.33927 2.63094 5.41665C2.70832 5.57141 2.78571 5.70038 2.88888 5.85514C2.94047 5.95831 2.99205 6.03569 3.04364 6.13887C3.09523 6.24204 3.14682 6.37101 3.1984 6.47419C3.30158 6.68053 3.40475 6.88688 3.48213 7.11903C3.50793 7.19641 3.53372 7.24799 3.58531 7.32537C3.63689 7.48013 3.71427 7.6091 3.76586 7.76386C3.79165 7.81545 3.81745 7.89283 3.84324 7.94442C4.04959 8.46029 4.20435 8.97616 4.35911 9.49203C4.4107 9.67259 4.46229 9.85314 4.48808 10.0337C4.23014 7.40275 3.37896 4.87498 2.0119 2.65674Z" fill="url(#paint59_linear_2_434)"></path>
    <path d="M1.52182 2.47618C1.54761 2.47618 1.5992 2.50198 1.62499 2.50198C1.75396 2.55356 1.88293 2.57936 2.03769 2.63094C2.3988 2.55356 10.1111 1.03174 14.3154 1.03174C21.0733 1.03174 28.7082 2.32142 34.5376 5.93252C36.4205 7.09323 38.0713 8.56346 39.4384 10.2658C39.2578 10.0079 39.0773 9.77576 38.8967 9.54362C38.8709 9.51783 38.8451 9.46624 38.8193 9.44044C38.6388 9.2083 38.4582 8.97616 38.2519 8.74402C38.2261 8.71823 38.2003 8.69243 38.2003 8.66664C38.0197 8.46029 37.8134 8.22815 37.6328 8.0218C37.607 7.99601 37.607 7.99601 37.5812 7.97021C37.3749 7.76386 37.1685 7.55752 36.9622 7.35117C36.9106 7.32537 36.8848 7.27379 36.8332 7.24799C36.6269 7.04164 36.3947 6.86109 36.1884 6.65474C36.1626 6.62895 36.1626 6.62895 36.1368 6.60315C35.9304 6.4226 35.6983 6.24204 35.492 6.06149C35.4662 6.03569 35.4146 6.0099 35.3888 5.98411C35.1566 5.80355 34.9245 5.64879 34.6923 5.46824C34.6408 5.44244 34.5892 5.41665 34.5634 5.36506C34.3054 5.18451 34.0733 5.02975 33.8154 4.87498C29.9979 2.55356 25.4583 1.2123 20.867 0.515871C18.3908 0.154761 15.9146 0 13.5416 0C12.5099 0 11.5039 0.0257936 10.4722 0.103174C6.86109 0.335316 3.35316 0.980155 0.0257936 1.9861C0.515871 2.14087 1.00595 2.29563 1.52182 2.47618Z" fill="url(#paint60_linear_2_434)"></path>
    <path d="M14.7797 37.5812C14.7023 37.5296 14.625 37.4781 14.5218 37.4265C14.625 37.5038 14.7023 37.5554 14.7797 37.5812Z" fill="url(#paint61_linear_2_434)"></path>
    <path d="M23.8848 39.9026C23.5753 39.9026 23.2658 39.9026 22.9563 39.8769C23.24 39.9026 23.5495 39.9026 23.8848 39.9026Z" fill="url(#paint62_linear_2_434)"></path>
    <path d="M18.9325 39.2578C18.7777 39.2062 18.623 39.1804 18.4682 39.1288C18.5972 39.1804 18.7777 39.2062 18.9325 39.2578Z" fill="url(#paint63_linear_2_434)"></path>
    <path d="M16.3789 38.3808C16.2499 38.3292 16.121 38.2519 15.9662 38.2003C16.121 38.2519 16.2499 38.3034 16.3789 38.3808Z" fill="url(#paint64_linear_2_434)"></path>
    <path d="M17.2043 38.6903C17.0495 38.6388 16.9206 38.5872 16.7658 38.5098C16.9206 38.5872 17.0753 38.6388 17.2043 38.6903Z" fill="url(#paint65_linear_2_434)"></path>
    <path d="M37.8392 46.2479C37.736 45.9899 37.607 45.732 37.4781 45.4999C37.607 45.7578 37.7102 45.9899 37.8392 46.2479Z" fill="url(#paint66_linear_2_434)"></path>
    <path d="M26.1289 39.7737C25.3809 39.8769 24.6329 39.9026 23.859 39.9026C24.6329 39.9026 25.4067 39.8769 26.1289 39.7737Z" fill="url(#paint67_linear_2_434)"></path>
    <path d="M10.24 34.1249C10.1885 34.0733 10.1369 34.0217 10.0853 33.9443C10.1369 33.9959 10.1885 34.0733 10.24 34.1249Z" fill="url(#paint68_linear_2_434)"></path>
    <path d="M10.8591 34.7181C10.8075 34.6666 10.7301 34.5892 10.6785 34.5376C10.7301 34.615 10.8075 34.6666 10.8591 34.7181Z" fill="url(#paint69_linear_2_434)"></path>
    <path d="M38.0455 44.7776C38.0971 45.0098 38.1229 45.2161 38.1487 45.4483C38.1229 45.2161 38.0713 44.984 38.0455 44.7776Z" fill="url(#paint70_linear_2_434)"></path>
    <path d="M38.2777 46.2221C38.3292 46.5058 38.355 46.8153 38.4066 47.0991C38.355 46.8153 38.3292 46.5316 38.2777 46.2221Z" fill="url(#paint71_linear_2_434)"></path>
    <path d="M38.484 47.7439C38.5356 48.2598 38.613 48.7756 38.6388 49.2915C38.5872 48.7756 38.5356 48.2598 38.484 47.7439Z" fill="url(#paint72_linear_2_434)"></path>
    <path d="M38.6388 49.3173C38.6388 49.2915 38.6388 49.2915 38.6388 49.3173C38.5356 48.3371 38.2777 47.3828 37.9165 46.48C38.2777 47.357 38.5356 48.3114 38.6388 49.3173Z" fill="url(#paint73_linear_2_434)"></path>
    <path d="M5.23609 24.4007C5.23609 24.3749 5.23609 24.3749 5.23609 24.3491C5.23609 24.3749 5.23609 24.4007 5.23609 24.4007Z" fill="url(#paint74_linear_2_434)"></path>
    <path d="M5.41665 25.2519C5.41665 25.2261 5.41665 25.2261 5.41665 25.2003C5.41665 25.2261 5.41665 25.2519 5.41665 25.2519Z" fill="url(#paint75_linear_2_434)"></path>
    <path d="M28.0892 38.1745C27.7023 38.1745 27.3154 38.2003 26.9285 38.2261C26.7479 38.2519 26.5416 38.2777 26.361 38.3034C25.613 38.4066 24.8134 38.4324 24.0396 38.4324C14.8571 38.4324 7.14482 32.0614 5.08133 23.5237C5.10713 23.8075 5.15871 24.0912 5.2103 24.3491C5.2103 24.3749 5.2103 24.3749 5.2103 24.4007C5.26189 24.6586 5.31347 24.9424 5.36506 25.2003C5.36506 25.2261 5.36506 25.2261 5.36506 25.2519C5.41665 25.5098 5.49403 25.7936 5.57141 26.0515C5.57141 26.0773 5.57141 26.0773 5.57141 26.1031C5.64879 26.361 5.72617 26.6448 5.80355 26.9027C6.4226 28.7856 7.32537 30.5396 8.46029 32.0872L8.48608 32.113C8.64085 32.3193 8.76981 32.4999 8.92457 32.6805C8.95037 32.7062 8.97616 32.7578 9.00196 32.7836C9.13092 32.9642 9.28568 33.1189 9.44044 33.2995C9.49203 33.3511 9.51783 33.4027 9.56941 33.4543C9.69838 33.609 9.85314 33.7638 10.0079 33.9185C10.0595 33.9701 10.1111 34.0217 10.1627 34.0991C10.2916 34.2539 10.4464 34.3828 10.6012 34.5376C10.6527 34.5892 10.7301 34.6666 10.7817 34.7181C10.9365 34.8471 11.0654 34.9761 11.2202 35.1308C11.2976 35.1824 11.3492 35.2598 11.4265 35.3114C11.5813 35.4404 11.7103 35.5693 11.865 35.6983C11.9424 35.7499 12.0198 35.8015 12.0714 35.8789C12.2262 36.0078 12.3809 36.111 12.5357 36.24C12.6131 36.2915 12.6904 36.3431 12.742 36.3947C12.8968 36.5237 13.0773 36.6269 13.2321 36.73C13.2837 36.7558 13.3095 36.7816 13.3611 36.8074C13.7222 37.0396 14.0833 37.2459 14.4444 37.4781C14.5218 37.5296 14.5992 37.5812 14.7023 37.6328C14.8313 37.7102 14.9861 37.7876 15.115 37.8392C15.244 37.8908 15.373 37.9681 15.4761 38.0197C15.6051 38.0971 15.7341 38.1487 15.8888 38.2003C16.0178 38.2519 16.1468 38.3292 16.3015 38.3808C16.4305 38.4324 16.5595 38.484 16.6884 38.5356C16.8432 38.5872 16.9722 38.6388 17.1269 38.7161C17.2559 38.7677 17.3849 38.8193 17.5138 38.8709C17.6686 38.9225 17.8234 38.9741 17.9523 39.0257C18.0813 39.0773 18.2103 39.1031 18.3392 39.1546C18.494 39.2062 18.6488 39.2578 18.8035 39.2836C18.9325 39.3094 19.0614 39.361 19.1904 39.3868C19.3452 39.4384 19.5257 39.4642 19.6805 39.49C19.8095 39.5157 19.9384 39.5415 20.0674 39.5673C20.248 39.5931 20.4027 39.6189 20.5833 39.6705C20.7122 39.6963 20.8412 39.7221 20.9702 39.7221C21.1507 39.7479 21.3313 39.7737 21.5118 39.7995C21.6408 39.8253 21.744 39.8253 21.8729 39.8511C22.0793 39.8769 22.2856 39.8769 22.492 39.9026C22.5952 39.9026 22.6983 39.9284 22.8015 39.9284C23.111 39.9542 23.4206 39.9542 23.7301 39.9542C24.5039 39.9542 25.2519 39.9026 25.9999 39.8253C26.1805 39.7995 26.361 39.7737 26.5416 39.7479C26.8253 39.7221 27.109 39.6963 27.3928 39.6963C27.4959 39.6963 27.5733 39.6963 27.6765 39.6963C31.8808 39.6963 35.5177 42.0693 37.3491 45.5514C37.4781 45.7836 37.5812 46.0415 37.7102 46.2995C37.736 46.3768 37.7618 46.4542 37.8134 46.5316C38.1745 47.4344 38.4324 48.3629 38.5356 49.3689C38.484 48.853 38.4324 48.3371 38.3808 47.8213C38.355 47.6149 38.3292 47.4086 38.3034 47.2022C38.2519 46.9185 38.2261 46.609 38.1745 46.3252C38.1229 46.0673 38.0971 45.7836 38.0455 45.5256C38.0197 45.2935 37.9681 45.0872 37.9423 44.855C37.8908 44.5455 37.8392 44.2618 37.7876 43.9522C35.9304 40.4701 32.2935 38.1745 28.0892 38.1745Z" fill="url(#paint76_linear_2_434)"></path>
    <defs>
      <linearGradient id="paint0_linear_2_434" x1="72.3529" y1="0.283691" x2="72.3529" y2="7.97017" gradientUnits="userSpaceOnUse">
        <stop offset="0.182292" stop-color="#D29B2F"></stop>
        <stop offset="1" stop-color="#D22F3A"></stop>
      </linearGradient>
      <linearGradient id="paint1_linear_2_434" x1="57.1" y1="0.283691" x2="57.1" y2="12.3551" gradientUnits="userSpaceOnUse">
        <stop offset="0.182292" stop-color="#D29B2F"></stop>
        <stop offset="1" stop-color="#D22F3A"></stop>
      </linearGradient>
      <linearGradient id="paint2_linear_2_434" x1="57.1" y1="0.283691" x2="57.1" y2="12.3551" gradientUnits="userSpaceOnUse">
        <stop offset="0.182292" stop-color="#D29B2F"></stop>
        <stop offset="1" stop-color="#D22F3A"></stop>
      </linearGradient>
      <linearGradient id="paint3_linear_2_434" x1="57.1" y1="0.283691" x2="57.1" y2="12.3551" gradientUnits="userSpaceOnUse">
        <stop offset="0.182292" stop-color="#D29B2F"></stop>
        <stop offset="1" stop-color="#D22F3A"></stop>
      </linearGradient>
      <linearGradient id="paint4_linear_2_434" x1="21.4087" y1="0" x2="21.4087" y2="49.3689" gradientUnits="userSpaceOnUse">
        <stop offset="0.182292" stop-color="#D29B2F"></stop>
        <stop offset="1" stop-color="#D22F3A"></stop>
      </linearGradient>
      <linearGradient id="paint5_linear_2_434" x1="21.4087" y1="0" x2="21.4087" y2="49.3689" gradientUnits="userSpaceOnUse">
        <stop offset="0.182292" stop-color="#D29B2F"></stop>
        <stop offset="1" stop-color="#D22F3A"></stop>
      </linearGradient>
      <linearGradient id="paint6_linear_2_434" x1="21.4087" y1="0" x2="21.4087" y2="49.3689" gradientUnits="userSpaceOnUse">
        <stop offset="0.182292" stop-color="#D29B2F"></stop>
        <stop offset="1" stop-color="#D22F3A"></stop>
      </linearGradient>
      <linearGradient id="paint7_linear_2_434" x1="21.4087" y1="0" x2="21.4087" y2="49.3689" gradientUnits="userSpaceOnUse">
        <stop offset="0.182292" stop-color="#D29B2F"></stop>
        <stop offset="1" stop-color="#D22F3A"></stop>
      </linearGradient>
      <linearGradient id="paint8_linear_2_434" x1="21.4087" y1="0" x2="21.4087" y2="49.3689" gradientUnits="userSpaceOnUse">
        <stop offset="0.182292" stop-color="#D29B2F"></stop>
        <stop offset="1" stop-color="#D22F3A"></stop>
      </linearGradient>
      <linearGradient id="paint9_linear_2_434" x1="21.4087" y1="0" x2="21.4087" y2="49.3689" gradientUnits="userSpaceOnUse">
        <stop offset="0.182292" stop-color="#D29B2F"></stop>
        <stop offset="1" stop-color="#D22F3A"></stop>
      </linearGradient>
      <linearGradient id="paint10_linear_2_434" x1="21.4087" y1="0" x2="21.4087" y2="49.3689" gradientUnits="userSpaceOnUse">
        <stop offset="0.182292" stop-color="#D29B2F"></stop>
        <stop offset="1" stop-color="#D22F3A"></stop>
      </linearGradient>
      <linearGradient id="paint11_linear_2_434" x1="21.4087" y1="0" x2="21.4087" y2="49.3689" gradientUnits="userSpaceOnUse">
        <stop offset="0.182292" stop-color="#D29B2F"></stop>
        <stop offset="1" stop-color="#D22F3A"></stop>
      </linearGradient>
      <linearGradient id="paint12_linear_2_434" x1="21.4087" y1="0" x2="21.4087" y2="49.3689" gradientUnits="userSpaceOnUse">
        <stop offset="0.182292" stop-color="#D29B2F"></stop>
        <stop offset="1" stop-color="#D22F3A"></stop>
      </linearGradient>
      <linearGradient id="paint13_linear_2_434" x1="21.4087" y1="0" x2="21.4087" y2="49.3689" gradientUnits="userSpaceOnUse">
        <stop offset="0.182292" stop-color="#D29B2F"></stop>
        <stop offset="1" stop-color="#D22F3A"></stop>
      </linearGradient>
      <linearGradient id="paint14_linear_2_434" x1="21.4087" y1="0" x2="21.4087" y2="49.3689" gradientUnits="userSpaceOnUse">
        <stop offset="0.182292" stop-color="#D29B2F"></stop>
        <stop offset="1" stop-color="#D22F3A"></stop>
      </linearGradient>
      <linearGradient id="paint15_linear_2_434" x1="21.4087" y1="0" x2="21.4087" y2="49.3689" gradientUnits="userSpaceOnUse">
        <stop offset="0.182292" stop-color="#D29B2F"></stop>
        <stop offset="1" stop-color="#D22F3A"></stop>
      </linearGradient>
      <linearGradient id="paint16_linear_2_434" x1="21.4087" y1="0" x2="21.4087" y2="49.3689" gradientUnits="userSpaceOnUse">
        <stop offset="0.182292" stop-color="#D29B2F"></stop>
        <stop offset="1" stop-color="#D22F3A"></stop>
      </linearGradient>
      <linearGradient id="paint17_linear_2_434" x1="21.4087" y1="0" x2="21.4087" y2="49.3689" gradientUnits="userSpaceOnUse">
        <stop offset="0.182292" stop-color="#D29B2F"></stop>
        <stop offset="1" stop-color="#D22F3A"></stop>
      </linearGradient>
      <linearGradient id="paint18_linear_2_434" x1="21.4087" y1="0" x2="21.4087" y2="49.3689" gradientUnits="userSpaceOnUse">
        <stop offset="0.182292" stop-color="#D29B2F"></stop>
        <stop offset="1" stop-color="#D22F3A"></stop>
      </linearGradient>
      <linearGradient id="paint19_linear_2_434" x1="21.4087" y1="0" x2="21.4087" y2="49.3689" gradientUnits="userSpaceOnUse">
        <stop offset="0.182292" stop-color="#D29B2F"></stop>
        <stop offset="1" stop-color="#D22F3A"></stop>
      </linearGradient>
      <linearGradient id="paint20_linear_2_434" x1="21.4087" y1="0" x2="21.4087" y2="49.3689" gradientUnits="userSpaceOnUse">
        <stop offset="0.182292" stop-color="#D29B2F"></stop>
        <stop offset="1" stop-color="#D22F3A"></stop>
      </linearGradient>
      <linearGradient id="paint21_linear_2_434" x1="21.4087" y1="0" x2="21.4087" y2="49.3689" gradientUnits="userSpaceOnUse">
        <stop offset="0.182292" stop-color="#D29B2F"></stop>
        <stop offset="1" stop-color="#D22F3A"></stop>
      </linearGradient>
      <linearGradient id="paint22_linear_2_434" x1="21.4087" y1="0" x2="21.4087" y2="49.3689" gradientUnits="userSpaceOnUse">
        <stop offset="0.182292" stop-color="#D29B2F"></stop>
        <stop offset="1" stop-color="#D22F3A"></stop>
      </linearGradient>
      <linearGradient id="paint23_linear_2_434" x1="21.4087" y1="0" x2="21.4087" y2="49.3689" gradientUnits="userSpaceOnUse">
        <stop offset="0.182292" stop-color="#D29B2F"></stop>
        <stop offset="1" stop-color="#D22F3A"></stop>
      </linearGradient>
      <linearGradient id="paint24_linear_2_434" x1="21.4087" y1="0" x2="21.4087" y2="49.3689" gradientUnits="userSpaceOnUse">
        <stop offset="0.182292" stop-color="#D29B2F"></stop>
        <stop offset="1" stop-color="#D22F3A"></stop>
      </linearGradient>
      <linearGradient id="paint25_linear_2_434" x1="21.4087" y1="0" x2="21.4087" y2="49.3689" gradientUnits="userSpaceOnUse">
        <stop offset="0.182292" stop-color="#D29B2F"></stop>
        <stop offset="1" stop-color="#D22F3A"></stop>
      </linearGradient>
      <linearGradient id="paint26_linear_2_434" x1="21.4087" y1="0" x2="21.4087" y2="49.3689" gradientUnits="userSpaceOnUse">
        <stop offset="0.182292" stop-color="#D29B2F"></stop>
        <stop offset="1" stop-color="#D22F3A"></stop>
      </linearGradient>
      <linearGradient id="paint27_linear_2_434" x1="21.4087" y1="0" x2="21.4087" y2="49.3689" gradientUnits="userSpaceOnUse">
        <stop offset="0.182292" stop-color="#D29B2F"></stop>
        <stop offset="1" stop-color="#D22F3A"></stop>
      </linearGradient>
      <linearGradient id="paint28_linear_2_434" x1="21.4087" y1="0" x2="21.4087" y2="49.3689" gradientUnits="userSpaceOnUse">
        <stop offset="0.182292" stop-color="#D29B2F"></stop>
        <stop offset="1" stop-color="#D22F3A"></stop>
      </linearGradient>
      <linearGradient id="paint29_linear_2_434" x1="21.4087" y1="0" x2="21.4087" y2="49.3689" gradientUnits="userSpaceOnUse">
        <stop offset="0.182292" stop-color="#D29B2F"></stop>
        <stop offset="1" stop-color="#D22F3A"></stop>
      </linearGradient>
      <linearGradient id="paint30_linear_2_434" x1="21.4087" y1="0" x2="21.4087" y2="49.3689" gradientUnits="userSpaceOnUse">
        <stop offset="0.182292" stop-color="#D29B2F"></stop>
        <stop offset="1" stop-color="#D22F3A"></stop>
      </linearGradient>
      <linearGradient id="paint31_linear_2_434" x1="21.4087" y1="0" x2="21.4087" y2="49.3689" gradientUnits="userSpaceOnUse">
        <stop offset="0.182292" stop-color="#D29B2F"></stop>
        <stop offset="1" stop-color="#D22F3A"></stop>
      </linearGradient>
      <linearGradient id="paint32_linear_2_434" x1="21.4087" y1="0" x2="21.4087" y2="49.3689" gradientUnits="userSpaceOnUse">
        <stop offset="0.182292" stop-color="#D29B2F"></stop>
        <stop offset="1" stop-color="#D22F3A"></stop>
      </linearGradient>
      <linearGradient id="paint33_linear_2_434" x1="21.4087" y1="0" x2="21.4087" y2="49.3689" gradientUnits="userSpaceOnUse">
        <stop offset="0.182292" stop-color="#D29B2F"></stop>
        <stop offset="1" stop-color="#D22F3A"></stop>
      </linearGradient>
      <linearGradient id="paint34_linear_2_434" x1="21.4087" y1="0" x2="21.4087" y2="49.3689" gradientUnits="userSpaceOnUse">
        <stop offset="0.182292" stop-color="#D29B2F"></stop>
        <stop offset="1" stop-color="#D22F3A"></stop>
      </linearGradient>
      <linearGradient id="paint35_linear_2_434" x1="21.4087" y1="0" x2="21.4087" y2="49.3689" gradientUnits="userSpaceOnUse">
        <stop offset="0.182292" stop-color="#D29B2F"></stop>
        <stop offset="1" stop-color="#D22F3A"></stop>
      </linearGradient>
      <linearGradient id="paint36_linear_2_434" x1="21.4087" y1="0" x2="21.4087" y2="49.3689" gradientUnits="userSpaceOnUse">
        <stop offset="0.182292" stop-color="#D29B2F"></stop>
        <stop offset="1" stop-color="#D22F3A"></stop>
      </linearGradient>
      <linearGradient id="paint37_linear_2_434" x1="21.4087" y1="0" x2="21.4087" y2="49.3689" gradientUnits="userSpaceOnUse">
        <stop offset="0.182292" stop-color="#D29B2F"></stop>
        <stop offset="1" stop-color="#D22F3A"></stop>
      </linearGradient>
      <linearGradient id="paint38_linear_2_434" x1="21.4087" y1="0" x2="21.4087" y2="49.3689" gradientUnits="userSpaceOnUse">
        <stop offset="0.182292" stop-color="#D29B2F"></stop>
        <stop offset="1" stop-color="#D22F3A"></stop>
      </linearGradient>
      <linearGradient id="paint39_linear_2_434" x1="21.4087" y1="0" x2="21.4087" y2="49.3689" gradientUnits="userSpaceOnUse">
        <stop offset="0.182292" stop-color="#D29B2F"></stop>
        <stop offset="1" stop-color="#D22F3A"></stop>
      </linearGradient>
      <linearGradient id="paint40_linear_2_434" x1="21.4087" y1="0" x2="21.4087" y2="49.3689" gradientUnits="userSpaceOnUse">
        <stop offset="0.182292" stop-color="#D29B2F"></stop>
        <stop offset="1" stop-color="#D22F3A"></stop>
      </linearGradient>
      <linearGradient id="paint41_linear_2_434" x1="21.4087" y1="0" x2="21.4087" y2="49.3689" gradientUnits="userSpaceOnUse">
        <stop offset="0.182292" stop-color="#D29B2F"></stop>
        <stop offset="1" stop-color="#D22F3A"></stop>
      </linearGradient>
      <linearGradient id="paint42_linear_2_434" x1="21.4087" y1="0" x2="21.4087" y2="49.3689" gradientUnits="userSpaceOnUse">
        <stop offset="0.182292" stop-color="#D29B2F"></stop>
        <stop offset="1" stop-color="#D22F3A"></stop>
      </linearGradient>
      <linearGradient id="paint43_linear_2_434" x1="21.4087" y1="0" x2="21.4087" y2="49.3689" gradientUnits="userSpaceOnUse">
        <stop offset="0.182292" stop-color="#D29B2F"></stop>
        <stop offset="1" stop-color="#D22F3A"></stop>
      </linearGradient>
      <linearGradient id="paint44_linear_2_434" x1="21.4087" y1="0" x2="21.4087" y2="49.3689" gradientUnits="userSpaceOnUse">
        <stop offset="0.182292" stop-color="#D29B2F"></stop>
        <stop offset="1" stop-color="#D22F3A"></stop>
      </linearGradient>
      <linearGradient id="paint45_linear_2_434" x1="21.4087" y1="0" x2="21.4087" y2="49.3689" gradientUnits="userSpaceOnUse">
        <stop offset="0.182292" stop-color="#D29B2F"></stop>
        <stop offset="1" stop-color="#D22F3A"></stop>
      </linearGradient>
      <linearGradient id="paint46_linear_2_434" x1="21.4087" y1="0" x2="21.4087" y2="49.3689" gradientUnits="userSpaceOnUse">
        <stop offset="0.182292" stop-color="#D29B2F"></stop>
        <stop offset="1" stop-color="#D22F3A"></stop>
      </linearGradient>
      <linearGradient id="paint47_linear_2_434" x1="21.4087" y1="0" x2="21.4087" y2="49.3689" gradientUnits="userSpaceOnUse">
        <stop offset="0.182292" stop-color="#D29B2F"></stop>
        <stop offset="1" stop-color="#D22F3A"></stop>
      </linearGradient>
      <linearGradient id="paint48_linear_2_434" x1="21.4087" y1="0" x2="21.4087" y2="49.3689" gradientUnits="userSpaceOnUse">
        <stop offset="0.182292" stop-color="#D29B2F"></stop>
        <stop offset="1" stop-color="#D22F3A"></stop>
      </linearGradient>
      <linearGradient id="paint49_linear_2_434" x1="21.4087" y1="0" x2="21.4087" y2="49.3689" gradientUnits="userSpaceOnUse">
        <stop offset="0.182292" stop-color="#D29B2F"></stop>
        <stop offset="1" stop-color="#D22F3A"></stop>
      </linearGradient>
      <linearGradient id="paint50_linear_2_434" x1="21.4087" y1="0" x2="21.4087" y2="49.3689" gradientUnits="userSpaceOnUse">
        <stop offset="0.182292" stop-color="#D29B2F"></stop>
        <stop offset="1" stop-color="#D22F3A"></stop>
      </linearGradient>
      <linearGradient id="paint51_linear_2_434" x1="21.4087" y1="0" x2="21.4087" y2="49.3689" gradientUnits="userSpaceOnUse">
        <stop offset="0.182292" stop-color="#D29B2F"></stop>
        <stop offset="1" stop-color="#D22F3A"></stop>
      </linearGradient>
      <linearGradient id="paint52_linear_2_434" x1="21.4087" y1="0" x2="21.4087" y2="49.3689" gradientUnits="userSpaceOnUse">
        <stop offset="0.182292" stop-color="#D29B2F"></stop>
        <stop offset="1" stop-color="#D22F3A"></stop>
      </linearGradient>
      <linearGradient id="paint53_linear_2_434" x1="21.4087" y1="0" x2="21.4087" y2="49.3689" gradientUnits="userSpaceOnUse">
        <stop offset="0.182292" stop-color="#D29B2F"></stop>
        <stop offset="1" stop-color="#D22F3A"></stop>
      </linearGradient>
      <linearGradient id="paint54_linear_2_434" x1="21.4087" y1="0" x2="21.4087" y2="49.3689" gradientUnits="userSpaceOnUse">
        <stop offset="0.182292" stop-color="#D29B2F"></stop>
        <stop offset="1" stop-color="#D22F3A"></stop>
      </linearGradient>
      <linearGradient id="paint55_linear_2_434" x1="21.4087" y1="0" x2="21.4087" y2="49.3689" gradientUnits="userSpaceOnUse">
        <stop offset="0.182292" stop-color="#D29B2F"></stop>
        <stop offset="1" stop-color="#D22F3A"></stop>
      </linearGradient>
      <linearGradient id="paint56_linear_2_434" x1="21.4087" y1="0" x2="21.4087" y2="49.3689" gradientUnits="userSpaceOnUse">
        <stop offset="0.182292" stop-color="#D29B2F"></stop>
        <stop offset="1" stop-color="#D22F3A"></stop>
      </linearGradient>
      <linearGradient id="paint57_linear_2_434" x1="21.4087" y1="0" x2="21.4087" y2="49.3689" gradientUnits="userSpaceOnUse">
        <stop offset="0.182292" stop-color="#D29B2F"></stop>
        <stop offset="1" stop-color="#D22F3A"></stop>
      </linearGradient>
      <linearGradient id="paint58_linear_2_434" x1="21.4087" y1="0" x2="21.4087" y2="49.3689" gradientUnits="userSpaceOnUse">
        <stop offset="0.182292" stop-color="#D29B2F"></stop>
        <stop offset="1" stop-color="#D22F3A"></stop>
      </linearGradient>
      <linearGradient id="paint59_linear_2_434" x1="21.4087" y1="0" x2="21.4087" y2="49.3689" gradientUnits="userSpaceOnUse">
        <stop offset="0.182292" stop-color="#D29B2F"></stop>
        <stop offset="1" stop-color="#D22F3A"></stop>
      </linearGradient>
      <linearGradient id="paint60_linear_2_434" x1="21.4087" y1="0" x2="21.4087" y2="49.3689" gradientUnits="userSpaceOnUse">
        <stop offset="0.182292" stop-color="#D29B2F"></stop>
        <stop offset="1" stop-color="#D22F3A"></stop>
      </linearGradient>
      <linearGradient id="paint61_linear_2_434" x1="21.4087" y1="0" x2="21.4087" y2="49.3689" gradientUnits="userSpaceOnUse">
        <stop offset="0.182292" stop-color="#D29B2F"></stop>
        <stop offset="1" stop-color="#D22F3A"></stop>
      </linearGradient>
      <linearGradient id="paint62_linear_2_434" x1="21.4087" y1="0" x2="21.4087" y2="49.3689" gradientUnits="userSpaceOnUse">
        <stop offset="0.182292" stop-color="#D29B2F"></stop>
        <stop offset="1" stop-color="#D22F3A"></stop>
      </linearGradient>
      <linearGradient id="paint63_linear_2_434" x1="21.4087" y1="0" x2="21.4087" y2="49.3689" gradientUnits="userSpaceOnUse">
        <stop offset="0.182292" stop-color="#D29B2F"></stop>
        <stop offset="1" stop-color="#D22F3A"></stop>
      </linearGradient>
      <linearGradient id="paint64_linear_2_434" x1="21.4087" y1="0" x2="21.4087" y2="49.3689" gradientUnits="userSpaceOnUse">
        <stop offset="0.182292" stop-color="#D29B2F"></stop>
        <stop offset="1" stop-color="#D22F3A"></stop>
      </linearGradient>
      <linearGradient id="paint65_linear_2_434" x1="21.4087" y1="0" x2="21.4087" y2="49.3689" gradientUnits="userSpaceOnUse">
        <stop offset="0.182292" stop-color="#D29B2F"></stop>
        <stop offset="1" stop-color="#D22F3A"></stop>
      </linearGradient>
      <linearGradient id="paint66_linear_2_434" x1="21.4087" y1="0" x2="21.4087" y2="49.3689" gradientUnits="userSpaceOnUse">
        <stop offset="0.182292" stop-color="#D29B2F"></stop>
        <stop offset="1" stop-color="#D22F3A"></stop>
      </linearGradient>
      <linearGradient id="paint67_linear_2_434" x1="21.4087" y1="0" x2="21.4087" y2="49.3689" gradientUnits="userSpaceOnUse">
        <stop offset="0.182292" stop-color="#D29B2F"></stop>
        <stop offset="1" stop-color="#D22F3A"></stop>
      </linearGradient>
      <linearGradient id="paint68_linear_2_434" x1="21.4087" y1="0" x2="21.4087" y2="49.3689" gradientUnits="userSpaceOnUse">
        <stop offset="0.182292" stop-color="#D29B2F"></stop>
        <stop offset="1" stop-color="#D22F3A"></stop>
      </linearGradient>
      <linearGradient id="paint69_linear_2_434" x1="21.4087" y1="0" x2="21.4087" y2="49.3689" gradientUnits="userSpaceOnUse">
        <stop offset="0.182292" stop-color="#D29B2F"></stop>
        <stop offset="1" stop-color="#D22F3A"></stop>
      </linearGradient>
      <linearGradient id="paint70_linear_2_434" x1="21.4087" y1="0" x2="21.4087" y2="49.3689" gradientUnits="userSpaceOnUse">
        <stop offset="0.182292" stop-color="#D29B2F"></stop>
        <stop offset="1" stop-color="#D22F3A"></stop>
      </linearGradient>
      <linearGradient id="paint71_linear_2_434" x1="21.4087" y1="0" x2="21.4087" y2="49.3689" gradientUnits="userSpaceOnUse">
        <stop offset="0.182292" stop-color="#D29B2F"></stop>
        <stop offset="1" stop-color="#D22F3A"></stop>
      </linearGradient>
      <linearGradient id="paint72_linear_2_434" x1="21.4087" y1="0" x2="21.4087" y2="49.3689" gradientUnits="userSpaceOnUse">
        <stop offset="0.182292" stop-color="#D29B2F"></stop>
        <stop offset="1" stop-color="#D22F3A"></stop>
      </linearGradient>
      <linearGradient id="paint73_linear_2_434" x1="21.4087" y1="0" x2="21.4087" y2="49.3689" gradientUnits="userSpaceOnUse">
        <stop offset="0.182292" stop-color="#D29B2F"></stop>
        <stop offset="1" stop-color="#D22F3A"></stop>
      </linearGradient>
      <linearGradient id="paint74_linear_2_434" x1="21.4087" y1="0" x2="21.4087" y2="49.3689" gradientUnits="userSpaceOnUse">
        <stop offset="0.182292" stop-color="#D29B2F"></stop>
        <stop offset="1" stop-color="#D22F3A"></stop>
      </linearGradient>
      <linearGradient id="paint75_linear_2_434" x1="21.4087" y1="0" x2="21.4087" y2="49.3689" gradientUnits="userSpaceOnUse">
        <stop offset="0.182292" stop-color="#D29B2F"></stop>
        <stop offset="1" stop-color="#D22F3A"></stop>
      </linearGradient>
      <linearGradient id="paint76_linear_2_434" x1="21.4087" y1="0" x2="21.4087" y2="49.3689" gradientUnits="userSpaceOnUse">
        <stop offset="0.182292" stop-color="#D29B2F"></stop>
        <stop offset="1" stop-color="#D22F3A"></stop>
      </linearGradient>
    </defs>
  </symbol>
</svg>