<svg width="12" height="12" viewBox="0 0 12 12" fill="none" xmlns="http://www.w3.org/2000/svg">
<path d="M2.62268e-07 5.99998C2.41575e-07 5.5266 0.383756 5.14284 0.857143 5.14284L9.02486 5.14284L5.40516 1.52713C5.05542 1.17778 5.05542 0.611365 5.40516 0.262013C5.7549 -0.0873386 6.32193 -0.0873378 6.67167 0.262014L11.7377 5.32247C11.924 5.50859 12.0111 5.75632 11.9989 6.00002C12.0111 6.2437 11.924 6.49142 11.7377 6.67753L6.67167 11.738C6.32193 12.0873 5.7549 12.0873 5.40516 11.738C5.05542 11.3886 5.05542 10.8222 5.40516 10.4729L9.02489 6.85712L0.857143 6.85712C0.383756 6.85712 2.8296e-07 6.47337 2.62268e-07 5.99998Z" fill="#D22F3A"/>
</svg>
