<svg width="26" height="26" viewBox="0 0 26 26" fill="none" xmlns="http://www.w3.org/2000/svg">
<path d="M5.68247e-07 13C5.23413e-07 11.9743 0.831472 11.1428 1.85714 11.1428L19.5539 11.1428L11.7112 3.30878C10.9534 2.55185 10.9534 1.32462 11.7112 0.567695C12.4689 -0.189234 13.6975 -0.189232 14.4553 0.567697L25.4317 11.532C25.8354 11.9353 26.024 12.472 25.9976 13C26.024 13.528 25.8354 14.0647 25.4317 14.468L14.4553 25.4323C13.6975 26.1892 12.4689 26.1892 11.7112 25.4323C10.9534 24.6754 10.9534 23.4482 11.7112 22.6912L19.5539 14.8571L1.85714 14.8571C0.831472 14.8571 6.1308e-07 14.0256 5.68247e-07 13Z" fill="white"/>
</svg>
