<svg width="29" height="29" viewBox="0 0 29 29" fill="none" xmlns="http://www.w3.org/2000/svg">
<g clip-path="url(#clip0_141_3487)">
<path d="M27.7917 15.6833H1.20833C0.541331 15.6833 0 15.1419 0 14.4749C0 13.8079 0.541331 13.2666 1.20833 13.2666H27.7917C28.4587 13.2666 29 13.8079 29 14.4749C29 15.1419 28.4587 15.6833 27.7917 15.6833Z" fill="white"/>
<path d="M27.7917 6.41911H1.20833C0.541331 6.41911 0 5.87778 0 5.21077C0 4.54377 0.541331 4.00244 1.20833 4.00244H27.7917C28.4587 4.00244 29 4.54377 29 5.21077C29 5.87778 28.4587 6.41911 27.7917 6.41911Z" fill="white"/>
<path d="M27.7917 24.9469H1.20833C0.541331 24.9469 0 24.4056 0 23.7386C0 23.0716 0.541331 22.5303 1.20833 22.5303H27.7917C28.4587 22.5303 29 23.0716 29 23.7386C29 24.4056 28.4587 24.9469 27.7917 24.9469Z" fill="white"/>
</g>
<defs>
<clipPath id="clip0_141_3487">
<rect width="29" height="29" fill="white"/>
</clipPath>
</defs>
</svg>
