<svg width="73" height="59" viewBox="0 0 73 59" fill="none" xmlns="http://www.w3.org/2000/svg">
<path d="M71.3064 32.4189H68.9138L64.9804 20.8811C64.7843 20.3056 64.2438 19.919 63.636 19.919H51.1361V13.3849C51.1361 12.6004 50.5 11.9645 49.7156 11.9645H42.8975V7.82147C42.8975 3.9053 39.7114 0.719238 35.7952 0.719238H15.3408C11.4247 0.719238 8.23859 3.9053 8.23859 7.82147V11.9645H1.42045C0.635934 11.9645 0 12.6004 0 13.3849V49.7484C0 50.5329 0.635934 51.1688 1.42045 51.1688H7.70109C8.03831 55.0496 11.3031 58.1053 15.2698 58.1053C19.2365 58.1053 22.5013 55.0496 22.8385 51.1688H30.7343C31.5189 51.1688 32.1548 50.5329 32.1548 49.7484C32.1548 48.9638 31.5189 48.3279 30.7343 48.3279H22.5496C22.0649 46.7107 21.0551 45.3193 19.7189 44.3507H48.2952V48.3279H43.5182C42.7338 48.3279 42.0978 48.9638 42.0978 49.7484C42.0978 50.5329 42.7338 51.1688 43.5182 51.1688H50.7111C51.0483 55.0496 54.313 58.1053 58.2798 58.1053C62.2465 58.1053 65.5113 55.0496 65.8485 51.1688H71.3064C72.0908 51.1688 72.7269 50.5329 72.7269 49.7484V33.8394C72.7269 33.055 72.0908 32.4189 71.3064 32.4189ZM69.886 38.6689H66.4769V35.2598H69.886V38.6689ZM62.6195 22.7599L65.9124 32.4189H51.1361V22.7599H62.6195ZM29.8314 3.56013V10.4601L26.3976 7.99903C26.1501 7.82175 25.8601 7.73312 25.57 7.73312C25.28 7.73312 24.9899 7.82175 24.7425 7.99903L21.3087 10.4601V3.56013H29.8314ZM11.0795 7.82147C11.0795 5.47177 12.9911 3.56013 15.3408 3.56013H18.4678V13.2257C18.4678 13.7582 18.7657 14.246 19.2392 14.4893C19.7128 14.7325 20.2828 14.6905 20.7158 14.3802L25.57 10.901L30.4243 14.3802C30.6701 14.5565 30.9603 14.6461 31.2519 14.6461C31.4737 14.6461 31.6961 14.5943 31.9008 14.4893C32.3744 14.246 32.6723 13.7582 32.6723 13.2257V3.56013H35.7952C38.145 3.56013 40.0566 5.47177 40.0566 7.82147V28.2759C40.0566 30.6256 38.145 32.5372 35.7952 32.5372H15.3408C12.9911 32.5372 11.0795 30.6256 11.0795 28.2759V7.82147ZM15.2698 55.2644C12.6459 55.2644 10.5113 53.1297 10.5113 50.5059C10.5113 47.882 12.6459 45.7474 15.2698 45.7474C17.8936 45.7474 20.0283 47.882 20.0283 50.5059C20.0283 53.1297 17.8936 55.2644 15.2698 55.2644ZM7.99001 48.3279H2.84089V44.3507H10.8207C9.48446 45.3193 8.47481 46.7107 7.99001 48.3279ZM2.84089 41.5098V14.8054H8.23859V28.2759C8.23859 32.1921 11.4247 35.3781 15.3408 35.3781H35.7952C39.7114 35.3781 42.8975 32.1921 42.8975 28.2759V14.8054H48.2952V41.5098H2.84089ZM58.2798 55.2644C55.6559 55.2644 53.5213 53.1297 53.5213 50.5059C53.5213 47.882 55.6559 45.7474 58.2798 45.7474C60.9036 45.7474 63.0383 47.882 63.0383 50.5059C63.0383 53.1297 60.9036 55.2644 58.2798 55.2644ZM65.5596 48.3279C64.6208 45.1958 61.7133 42.9065 58.2798 42.9065C54.9993 42.9065 52.1981 44.996 51.1361 47.9139V35.2598H63.636V40.0893C63.636 40.8738 64.2721 41.5098 65.0564 41.5098H69.886V48.3279H65.5596Z" fill="#D22F3A"/>
<path d="M30.7344 28.5135H35.2271C36.0116 28.5135 36.6475 27.8776 36.6475 27.0931C36.6475 26.3085 36.0116 25.6726 35.2271 25.6726H30.7344C29.9498 25.6726 29.3139 26.3085 29.3139 27.0931C29.3139 27.8776 29.9498 28.5135 30.7344 28.5135Z" fill="#D29B2F"/>
<path d="M37.1262 48.3286C36.7526 48.3286 36.3861 48.4792 36.1219 48.7448C35.8577 49.009 35.7057 49.3755 35.7057 49.7491C35.7057 50.1226 35.8577 50.4891 36.1219 50.7533C36.3861 51.0175 36.7526 51.1695 37.1262 51.1695C37.4998 51.1695 37.8662 51.0175 38.1303 50.7533C38.3945 50.4891 38.5466 50.1226 38.5466 49.7491C38.5466 49.3755 38.3947 49.009 38.1303 48.7448C37.8662 48.4792 37.4998 48.3286 37.1262 48.3286Z" fill="#D29B2F"/>
</svg>
