<svg width="175" height="50" viewBox="0 0 175 50" fill="none" xmlns="http://www.w3.org/2000/svg">
<path d="M75.2654 0.283691H70.0809C70.1325 2.2698 70.0293 4.90074 69.436 7.97017C71.19 7.71224 72.944 7.50589 74.7495 7.35113C75.2138 4.56542 75.2912 2.14083 75.2654 0.283691Z" fill="url(#paint0_linear_2_434)"/>
<path d="M124.944 12.2002C124.686 12.4839 124.402 12.7677 124.093 13.103C123.783 13.4383 123.448 13.7736 123.113 14.1347C122.777 14.4958 122.442 14.8311 122.107 15.1665C121.771 15.5018 121.462 15.8113 121.152 16.095C121.488 16.3272 121.875 16.6367 122.236 16.9978C122.623 17.3589 123.009 17.72 123.371 18.1327C123.732 18.5454 124.093 18.9323 124.402 19.3708C124.738 19.7835 124.996 20.1962 125.202 20.5573H123.835C123.603 20.1704 123.319 19.8093 123.009 19.4224C122.7 19.0355 122.365 18.6744 122.029 18.3391C121.668 17.978 121.333 17.6684 120.972 17.3589C120.611 17.0752 120.275 16.8172 119.94 16.6109V20.5573H118.779V12.2002H119.94V15.8887C120.224 15.6307 120.533 15.3212 120.869 14.9859C121.204 14.6506 121.539 14.3153 121.875 13.98C122.21 13.6446 122.519 13.3093 122.803 12.9998C123.087 12.6903 123.345 12.4323 123.551 12.2002H124.944Z" fill="#B7B7B7"/>
<path d="M131.573 17.4105C131.573 17.9006 131.496 18.3649 131.367 18.7518C131.212 19.1645 131.031 19.4998 130.748 19.7835C130.49 20.0672 130.18 20.2994 129.819 20.4541C129.458 20.6089 129.071 20.6863 128.632 20.6863C128.22 20.6863 127.807 20.6089 127.446 20.4541C127.085 20.2994 126.775 20.0672 126.517 19.7835C126.259 19.4998 126.053 19.1387 125.898 18.7518C125.744 18.3391 125.692 17.9006 125.692 17.4105C125.692 16.9204 125.769 16.4819 125.898 16.0692C126.053 15.6565 126.234 15.3212 126.517 15.0375C126.775 14.7538 127.085 14.5216 127.446 14.3669C127.807 14.2121 128.194 14.1347 128.632 14.1347C129.045 14.1347 129.458 14.2121 129.819 14.3669C130.18 14.5216 130.49 14.7538 130.748 15.0375C131.005 15.3212 131.212 15.6823 131.367 16.0692C131.496 16.4819 131.573 16.9204 131.573 17.4105ZM130.386 17.4105C130.386 16.7141 130.232 16.1466 129.922 15.7339C129.613 15.3212 129.174 15.1149 128.632 15.1149C128.091 15.1149 127.652 15.3212 127.343 15.7339C127.033 16.1466 126.878 16.7141 126.878 17.4105C126.878 18.1069 127.033 18.6744 127.343 19.0871C127.652 19.4998 128.091 19.7061 128.632 19.7061C129.174 19.7061 129.613 19.4998 129.922 19.0871C130.232 18.6744 130.386 18.1327 130.386 17.4105Z" fill="#B7B7B7"/>
<path d="M134.333 15.9403C134.255 16.7399 134.204 17.5137 134.152 18.3133C134.101 19.1129 134.075 19.8351 134.049 20.5315H132.966C132.992 20.0414 133.017 19.5256 133.043 19.0097C133.069 18.468 133.121 17.9522 133.146 17.4105C133.198 16.8688 133.224 16.3272 133.275 15.8113C133.327 15.2954 133.378 14.7796 133.43 14.2895H134.462C134.72 14.7022 135.029 15.2696 135.365 15.9919C135.7 16.7141 136.113 17.5653 136.551 18.4938C136.99 17.5395 137.402 16.7141 137.738 15.9919C138.073 15.2696 138.382 14.7022 138.64 14.2895H139.672C139.724 14.7796 139.775 15.2696 139.827 15.8113C139.878 16.3272 139.93 16.8688 139.956 17.4105C140.007 17.9522 140.033 18.4938 140.059 19.0097C140.085 19.5514 140.111 20.0414 140.136 20.5315H139.027C139.001 19.8351 138.976 19.0871 138.924 18.3133C138.872 17.5137 138.821 16.7399 138.744 15.9403C138.615 16.1982 138.46 16.4819 138.305 16.843C138.124 17.2041 137.97 17.5395 137.815 17.9006C137.66 18.2617 137.505 18.597 137.351 18.9323C137.196 19.2676 137.093 19.5256 137.015 19.7061H136.087C136.009 19.4998 135.88 19.2418 135.726 18.9065C135.571 18.5712 135.416 18.2359 135.261 17.8748C135.107 17.5137 134.926 17.1526 134.771 16.8172C134.617 16.4561 134.462 16.1724 134.333 15.9403Z" fill="#B7B7B7"/>
<path d="M145.837 20.5315V15.218H143.051V20.5315H141.942V14.2895H146.972V20.5315H145.837Z" fill="#B7B7B7"/>
<path d="M150.892 14.1347C151.331 14.1347 151.718 14.1863 152.027 14.3153C152.337 14.4442 152.595 14.599 152.775 14.8053C152.956 15.0117 153.111 15.2696 153.188 15.5534C153.265 15.8371 153.317 16.1724 153.317 16.5335V20.4541C153.214 20.4799 153.085 20.4799 152.904 20.5315C152.724 20.5573 152.543 20.5831 152.311 20.6089C152.105 20.6347 151.872 20.6605 151.615 20.6863C151.357 20.7121 151.099 20.7121 150.867 20.7121C150.505 20.7121 150.196 20.6863 149.886 20.6089C149.577 20.5315 149.345 20.4283 149.113 20.2736C148.906 20.1188 148.726 19.9125 148.597 19.6545C148.468 19.3966 148.416 19.0871 148.416 18.726C148.416 18.3907 148.493 18.0811 148.622 17.8232C148.751 17.5653 148.958 17.3847 149.19 17.2299C149.422 17.0752 149.706 16.972 150.041 16.8946C150.351 16.8172 150.686 16.7915 151.047 16.7915C151.15 16.7915 151.279 16.7915 151.408 16.8172C151.537 16.8172 151.64 16.843 151.743 16.8688C151.847 16.8946 151.95 16.8946 152.027 16.9204C152.105 16.9462 152.156 16.9462 152.208 16.9462V16.6367C152.208 16.4561 152.182 16.2756 152.156 16.095C152.13 15.9145 152.053 15.7597 151.95 15.6049C151.847 15.476 151.692 15.347 151.511 15.2696C151.331 15.1922 151.099 15.1407 150.815 15.1407C150.454 15.1407 150.118 15.1665 149.835 15.218C149.551 15.2696 149.345 15.3212 149.216 15.3728L149.087 14.4442C149.242 14.3926 149.474 14.3153 149.809 14.2637C150.144 14.1605 150.505 14.1347 150.892 14.1347ZM150.995 19.7319C151.253 19.7319 151.486 19.7319 151.692 19.7061C151.898 19.7061 152.079 19.6803 152.208 19.6287V17.7974C152.13 17.7458 152.001 17.72 151.821 17.6942C151.64 17.6684 151.434 17.6426 151.176 17.6426C150.995 17.6426 150.841 17.6426 150.634 17.6684C150.454 17.6942 150.273 17.7458 150.118 17.8232C149.964 17.9006 149.835 18.0037 149.732 18.1327C149.628 18.2617 149.577 18.4422 149.577 18.6486C149.577 19.0613 149.706 19.3192 149.964 19.474C150.196 19.6545 150.557 19.7319 150.995 19.7319Z" fill="#B7B7B7"/>
<path d="M160.281 20.5315H159.172V17.7716H156.283V20.5315H155.174V14.2895H156.283V16.843H159.172V14.2895H160.281V20.5315Z" fill="#B7B7B7"/>
<path d="M167.452 20.5315H166.368V15.7855C166.136 16.095 165.853 16.4561 165.569 16.843C165.285 17.2557 165.001 17.6684 164.692 18.1069C164.408 18.5454 164.124 18.9839 163.866 19.3966C163.609 19.8093 163.376 20.1962 163.17 20.5315H162.164V14.2895H163.247V18.7776C163.454 18.4422 163.686 18.0553 163.97 17.6426C164.228 17.2299 164.511 16.8172 164.795 16.4045C165.079 15.9918 165.362 15.6049 165.646 15.2438C165.93 14.8827 166.188 14.5474 166.446 14.2637H167.452V20.5315Z" fill="#B7B7B7"/>
<path d="M171.966 18.1069C171.837 18.1069 171.733 18.1069 171.605 18.1069C171.501 18.1069 171.372 18.1069 171.269 18.0811C171.011 18.468 170.753 18.8807 170.521 19.3192C170.289 19.7577 170.083 20.1704 169.902 20.5315H168.767C168.87 20.2994 168.974 20.0672 169.103 19.8093C169.232 19.5772 169.36 19.3192 169.489 19.0871C169.618 18.8549 169.747 18.6228 169.902 18.4164C170.031 18.2101 170.16 18.0295 170.289 17.849C170.057 17.7716 169.876 17.6684 169.747 17.5653C169.593 17.4363 169.489 17.3073 169.386 17.1784C169.309 17.0236 169.232 16.8688 169.206 16.7141C169.18 16.5593 169.154 16.3788 169.154 16.224C169.154 15.8629 169.232 15.5534 169.36 15.2954C169.489 15.0375 169.67 14.8053 169.902 14.6506C170.134 14.47 170.418 14.3411 170.728 14.2637C171.037 14.1863 171.398 14.1347 171.759 14.1347C172.301 14.1347 172.739 14.1605 173.101 14.2121C173.462 14.2637 173.771 14.3153 174.029 14.3926V20.5573H172.92V18.1327H171.966V18.1069ZM172.946 15.1149C172.868 15.0891 172.714 15.0891 172.507 15.0633C172.301 15.0375 172.069 15.0375 171.811 15.0375C171.347 15.0375 170.985 15.1407 170.702 15.3212C170.418 15.5018 170.289 15.8113 170.289 16.224C170.289 16.6367 170.444 16.8946 170.728 17.0494C171.011 17.2041 171.398 17.2815 171.837 17.2815H172.946V15.1149Z" fill="#B7B7B7"/>
<path d="M61.4662 35.6993L61.4404 35.4414L61.1825 35.4672C59.8928 35.6478 58.4225 35.6993 57.4166 35.6993C55.2499 35.6993 54.6567 35.0029 54.6567 32.4494C54.6567 29.8958 55.2499 29.1994 57.4166 29.1994C58.2678 29.1994 59.4027 29.2252 60.615 29.251H61.2083L61.234 29.0446L61.6467 26.7232L61.6725 26.5168L61.492 26.4395C59.8154 25.6914 57.4682 25.6399 56.7976 25.6399C52.0257 25.6399 50.246 27.497 50.246 32.4752C50.246 37.4275 51.9999 39.2847 56.746 39.2847C58.6547 39.2847 60.4087 38.9751 61.6983 38.4335L61.8789 38.3561L61.8531 38.1497L61.4662 35.6993Z" fill="#32384C"/>
<path d="M62.4463 25.9752V29.3799H66.5991V38.9493H70.8035V29.3799H74.9304V25.9752H62.4463Z" fill="#32384C"/>
<path d="M84.5514 25.6399C82.8233 25.6399 80.9403 26.3879 79.7796 27.497L79.5733 26.2073L79.5475 25.9752H76.0138V43.7469H80.2439V40.4969C80.2697 39.8263 80.2439 39.0783 80.2181 38.3045C81.2756 38.9493 82.5911 39.2847 84.0871 39.2847C87.6725 39.2847 89.1169 37.3501 89.1169 32.5783C89.1427 27.9097 87.6467 25.6399 84.5514 25.6399ZM80.2697 30.1537C81.3014 29.4831 82.101 29.0962 83.107 29.0962C84.1387 29.0962 84.7836 29.3283 84.7836 32.5783C84.7836 35.6736 84.1903 35.9831 82.8491 35.9831C81.9721 35.9831 81.3272 35.8025 80.5792 35.622C80.476 35.5962 80.3729 35.5704 80.2697 35.5446V30.1537Z" fill="#32384C"/>
<path d="M97.0355 25.6141C92.2379 25.6141 90.355 27.5486 90.355 32.4752C90.355 37.3759 92.2379 39.2847 97.0355 39.2847C99.5117 39.2847 101.137 38.7946 102.168 37.737C103.2 36.6795 103.69 35.0029 103.69 32.5009C103.69 27.5486 101.807 25.6141 97.0355 25.6141ZM97.0355 35.9573C95.3331 35.9573 94.7915 35.4672 94.7915 32.4752C94.7915 29.4315 95.3331 28.9414 97.0355 28.9414C98.7121 28.9414 99.2796 29.4573 99.2796 32.4752C99.2796 35.4672 98.7121 35.9573 97.0355 35.9573Z" fill="#32384C"/>
<path d="M114.059 25.9752L113.982 26.0783L109.236 32.8878C109.081 33.12 108.926 33.3263 108.797 33.5585C108.797 33.3521 108.823 33.12 108.823 32.8878V25.9752H104.98V38.9493H108.539L108.617 38.8462L113.311 32.1914C113.466 31.9851 113.621 31.7271 113.776 31.4176C113.75 31.6756 113.75 31.9335 113.75 32.1914V38.9751H114.008L117.361 38.9493H117.619V25.9752H114.059Z" fill="#32384C"/>
<path d="M118.78 25.9752V29.3799H122.932V38.9493H127.137V29.3799H131.264V25.9752H118.78Z" fill="#32384C"/>
<path d="M145.476 30.2311C145.45 27.0843 143.49 25.6141 139.311 25.6141C134.565 25.6141 132.708 27.5486 132.708 32.4752C132.708 37.2985 134.668 39.2589 139.466 39.2589C140.523 39.2589 143.206 39.1557 145.012 38.3045L145.192 38.2271L145.166 38.0466L144.805 35.7251L144.779 35.493L144.547 35.5188C142.948 35.6993 141.117 35.8025 139.93 35.8025C138.254 35.8025 137.557 35.5188 137.273 34.0228H141.478C144.186 33.9712 145.476 32.7847 145.476 30.2311ZM141.297 30.1795C141.297 30.9017 141.168 31.2113 140.395 31.2113H137.119C137.248 29.2252 137.815 28.864 139.311 28.864C139.337 28.864 139.389 28.864 139.414 28.864C141.039 28.864 141.297 29.251 141.297 30.1795Z" fill="#32384C"/>
<path d="M159.43 25.9752H153.523C151.254 25.9752 150.016 27.0843 149.809 29.3799C149.577 31.9851 149.319 33.7132 149.01 34.6418C148.752 35.4672 148.339 35.622 147.101 35.8025L146.843 35.8541L146.869 36.112L147.256 38.8977L147.281 39.1041L147.488 39.1299C147.849 39.1815 148.184 39.1815 148.494 39.1815C150.867 39.1815 152.363 38.0208 152.853 35.8283C153.214 34.4613 153.498 32.4494 153.781 30.1279C153.885 29.3283 154.117 29.122 154.839 29.122H156.206V38.9493H160.436V26.9811C160.436 26.4137 159.972 25.9752 159.43 25.9752Z" fill="#32384C"/>
<path d="M168.097 30.3085H166.446V26.7748C166.446 26.3363 166.085 25.9752 165.646 25.9752H163.144C162.706 25.9752 162.345 26.3363 162.345 26.7748V38.9493H162.706C164.537 39.0783 166.059 39.1041 168.767 39.1041C172.069 39.1041 174.107 38.3561 174.107 34.6934C174.055 31.366 172.611 30.3085 168.097 30.3085ZM169.773 34.5386C169.773 35.7251 169.515 35.9573 168.097 35.9573H166.446V33.1716H168.097C169.567 33.1716 169.773 33.4553 169.773 34.5386Z" fill="#32384C"/>
<path d="M88.8074 11.6855C88.7816 8.53869 86.8213 7.06846 82.6427 7.06846C80.2181 7.06846 78.6189 7.55854 77.5872 8.59028C76.5296 9.64782 76.0395 11.3502 76.0395 13.9296C76.0395 18.7529 77.9999 20.7133 82.7975 20.7133C83.855 20.7133 86.5375 20.6101 88.3431 19.7589L88.5236 19.6815L88.4978 19.501L88.1367 17.1795L88.1109 16.9474L87.8788 16.9732C86.2796 17.1537 84.4482 17.2569 83.2617 17.2569C81.5852 17.2569 80.8887 16.9732 80.605 15.4772H84.8094C87.4919 15.4256 88.8074 14.1875 88.8074 11.6855ZM84.6288 11.6339C84.6288 12.3303 84.4998 12.6657 83.726 12.6657H80.4502C80.5792 10.6796 81.1467 10.3185 82.6427 10.3185C82.6685 10.3185 82.7201 10.3185 82.7459 10.3185C84.3709 10.3185 84.6288 10.7054 84.6288 11.6339Z" fill="#32384C"/>
<path d="M98.6605 7.06846C97.2677 7.06846 95.849 7.61013 94.6625 8.61608C94.7657 7.99703 94.8173 7.27481 94.8173 6.42362L94.7915 2.45141V2.19348H90.5355V19.6557L90.6903 19.7331C92.3669 20.4553 95.5395 20.7133 97.1387 20.7133C99.5633 20.7133 101.24 20.0684 102.246 18.7272C103.097 17.618 103.484 16.0704 103.484 13.8264C103.484 9.08036 102.039 7.06846 98.6605 7.06846ZM99.1506 13.8264C99.1506 16.8184 98.4799 17.3601 97.0871 17.4117C97.0097 17.4117 96.9065 17.4117 96.8034 17.4117C96.1585 17.4117 95.4105 17.3343 94.8173 17.2053L94.7915 11.505C95.6942 10.9117 96.3391 10.5506 97.1903 10.5506C98.7895 10.5764 99.1506 11.1438 99.1506 13.8264Z" fill="#32384C"/>
<path d="M69.5138 8.48711C71.1904 8.25497 72.9185 8.04862 74.6467 7.86806C74.4661 8.87401 74.2082 9.93155 73.8987 11.0149C72.7896 14.8839 71.1904 17.9018 69.8491 20.0426C69.7201 20.2748 69.5654 20.4811 69.4364 20.6875H65.0773C64.9483 20.4811 64.7936 20.2748 64.6646 20.0426C63.3233 17.9018 61.7241 14.8581 60.615 11.0149C59.7638 8.1002 59.4027 5.41767 59.2995 3.19943H64.484C64.613 5.41767 64.9741 8.1002 65.7995 11.0149C66.238 12.4851 66.7281 13.8522 67.2439 15.0903C67.7598 13.8522 68.2757 12.4851 68.6884 11.0149C68.9463 10.1637 69.1527 9.3125 69.3074 8.48711H69.5138Z" fill="#32384C"/>
<path d="M59.2995 7.66171C59.0932 8.74504 58.8352 9.87996 58.4999 11.0407C58.0614 12.5109 57.5714 13.878 57.0555 15.1161C56.5396 13.878 56.0237 12.5109 55.611 11.0407C54.3472 6.70735 54.1666 2.9157 54.244 0.310547H49.0595C48.9821 2.9157 49.1884 6.70735 50.4265 11.0407C51.5357 14.9097 53.1349 17.9276 54.4761 20.0684C54.6051 20.3006 54.7599 20.5069 54.8888 20.7133H59.2479C59.3769 20.5069 59.5317 20.3006 59.6606 20.0684C60.3829 18.9335 61.1567 17.5664 61.8789 15.9414C61.1825 14.3938 60.5892 12.7946 60.1249 11.1696C59.7896 10.0089 59.5059 8.84822 59.2995 7.66171Z" fill="#32384C"/>
<path d="M50.8135 12.3551C52.3611 11.8392 53.9345 11.3491 55.5337 10.8848C54.3214 6.60312 54.1409 2.86305 54.1925 0.283691H49.008C48.9306 2.88884 49.1369 6.6805 50.375 11.0138C50.5556 11.4781 50.6845 11.9166 50.8135 12.3551Z" fill="url(#paint1_linear_2_434)"/>
<path d="M59.7639 9.80152C59.5833 9.0793 59.4286 8.38287 59.2996 7.66065C59.1448 8.43446 58.9901 9.23406 58.7837 10.0595C59.0932 9.95628 59.4286 9.8789 59.7639 9.80152Z" fill="url(#paint2_linear_2_434)"/>
<path d="M59.2738 3.19836C59.377 5.0813 59.6607 7.27375 60.254 9.67255C61.879 9.28565 63.5297 8.95033 65.2063 8.64081C64.7678 6.62891 64.5615 4.79757 64.4583 3.17257H59.2738V3.19836Z" fill="url(#paint3_linear_2_434)"/>
<path d="M3.09523 3.01785C4.10118 3.37896 5.08133 3.79165 6.06149 4.20435C5.05554 3.79165 4.07538 3.37896 3.09523 3.01785Z" fill="url(#paint4_linear_2_434)"/>
<path d="M38.6388 49.3173C38.6388 49.2915 38.6388 49.2915 38.6388 49.3173V49.3173Z" fill="url(#paint5_linear_2_434)"/>
<path d="M5.623 26.0515C5.54562 25.7936 5.49403 25.5356 5.41665 25.2519C5.46824 25.5356 5.54562 25.7936 5.623 26.0515Z" fill="url(#paint6_linear_2_434)"/>
<path d="M38.4066 47.0991C38.4324 47.3054 38.4582 47.5117 38.484 47.7181C38.4582 47.5375 38.4324 47.3312 38.4066 47.0991Z" fill="url(#paint7_linear_2_434)"/>
<path d="M38.1487 45.4225C38.2003 45.6804 38.2261 45.9641 38.2777 46.2221C38.2261 45.9641 38.2003 45.7062 38.1487 45.4225Z" fill="url(#paint8_linear_2_434)"/>
<path d="M5.39086 25.2003C5.33927 24.9424 5.26189 24.6586 5.23609 24.4007C5.28768 24.6844 5.33927 24.9424 5.39086 25.2003Z" fill="url(#paint9_linear_2_434)"/>
<path d="M14.5476 37.4523C14.1865 37.2459 13.8254 37.0138 13.4642 36.7816C13.7996 37.0138 14.1607 37.2459 14.5476 37.4523Z" fill="url(#paint10_linear_2_434)"/>
<path d="M5.88093 26.8769C5.80355 26.619 5.72617 26.361 5.64879 26.0773C5.70038 26.361 5.77776 26.619 5.88093 26.8769Z" fill="url(#paint11_linear_2_434)"/>
<path d="M22.9305 39.8769C22.8273 39.8769 22.7241 39.8511 22.621 39.8511C22.7241 39.8769 22.8273 39.8769 22.9305 39.8769Z" fill="url(#paint12_linear_2_434)"/>
<path d="M37.865 43.8749C37.9165 44.1844 37.9681 44.4681 38.0197 44.7776C37.9939 44.4681 37.9423 44.1586 37.865 43.8749Z" fill="url(#paint13_linear_2_434)"/>
<path d="M9.00196 32.7062C8.84719 32.5257 8.69243 32.3193 8.56346 32.1388C8.69243 32.3193 8.84719 32.4999 9.00196 32.7062Z" fill="url(#paint14_linear_2_434)"/>
<path d="M13.3353 36.7042C13.1805 36.6011 13 36.4721 12.8452 36.3689C13 36.4979 13.1805 36.6011 13.3353 36.7042Z" fill="url(#paint15_linear_2_434)"/>
<path d="M16.7916 38.5356C16.6626 38.484 16.5337 38.4324 16.4047 38.3808C16.5079 38.4324 16.6369 38.484 16.7916 38.5356Z" fill="url(#paint16_linear_2_434)"/>
<path d="M3.09523 3.01785C3.06943 3.01785 3.06943 3.01785 3.09523 3.01785C2.73412 2.88888 2.37301 2.75991 2.03769 2.65674C3.40475 4.90078 4.23014 7.40275 4.48808 10.0337C4.77181 11.2718 4.92657 12.5615 4.92657 13.8769V20.9444C4.92657 22.1051 5.02975 23.2658 5.23609 24.3749C5.18451 24.0912 5.13292 23.8075 5.10713 23.5495C7.17061 32.113 14.8829 38.4582 24.0654 38.4582C24.865 38.4582 25.6388 38.4066 26.3868 38.3292C26.5674 38.3034 26.7737 38.2777 26.9543 38.2519C27.3412 38.2003 27.7023 38.2003 28.115 38.2003C32.2935 38.2003 35.9562 40.4959 37.8907 43.9007C37.3491 41.1407 36.6011 38.4324 35.6725 35.8273C30.5654 21.6408 19.7837 10.2143 6.08728 4.23014C6.06149 4.23014 6.06149 4.20435 6.03569 4.20435C5.05554 3.79165 4.07538 3.37896 3.09523 3.01785ZM20.1706 20.9702C21.1765 20.9702 22.0019 21.7956 22.0019 22.8015C22.0019 23.369 21.744 23.8591 21.3313 24.1944C20.996 24.6071 20.4801 24.865 19.9384 24.865C18.9325 24.865 18.1071 24.0396 18.1071 23.0337C18.1071 22.4662 18.365 21.9761 18.7777 21.6408C19.0872 21.2281 19.6031 20.9702 20.1706 20.9702ZM12.871 15.7341C13.4384 15.0634 14.2896 14.625 15.244 14.625C16.9464 14.625 18.3134 15.992 18.3134 17.6944C18.3134 18.6487 17.8749 19.4999 17.2043 20.0674C16.6369 20.738 15.7857 21.1765 14.8313 21.1765C13.1289 21.1765 11.7619 19.8095 11.7619 18.1071C11.7619 17.1527 12.2004 16.3015 12.871 15.7341Z" fill="url(#paint17_linear_2_434)"/>
<path d="M17.617 38.8451C17.488 38.7935 17.3591 38.7419 17.2301 38.6903C17.3333 38.7419 17.4622 38.7935 17.617 38.8451Z" fill="url(#paint18_linear_2_434)"/>
<path d="M2.52777 5.2103C2.3988 5.00395 2.26983 4.8234 2.14087 4.61705C2.26983 4.8234 2.3988 5.02975 2.52777 5.2103Z" fill="url(#paint19_linear_2_434)"/>
<path d="M3.17261 6.44839C3.12102 6.34522 3.06943 6.21625 3.01785 6.11308C3.06943 6.24204 3.12102 6.34522 3.17261 6.44839Z" fill="url(#paint20_linear_2_434)"/>
<path d="M15.1924 37.8134C15.0634 37.736 14.9087 37.6844 14.7797 37.607C14.9345 37.6586 15.0634 37.736 15.1924 37.8134Z" fill="url(#paint21_linear_2_434)"/>
<path d="M15.9662 38.1745C15.8373 38.1229 15.7083 38.0455 15.5535 37.9939C15.7083 38.0713 15.8373 38.1229 15.9662 38.1745Z" fill="url(#paint22_linear_2_434)"/>
<path d="M11.9424 35.6983C11.7877 35.5693 11.6329 35.4404 11.5039 35.3114C11.6587 35.4404 11.7877 35.5693 11.9424 35.6983Z" fill="url(#paint23_linear_2_434)"/>
<path d="M21.0991 39.6963C20.9702 39.6705 20.8412 39.6447 20.7122 39.6447C20.8412 39.6705 20.9702 39.6963 21.0991 39.6963Z" fill="url(#paint24_linear_2_434)"/>
<path d="M3.81745 7.89283C3.79165 7.84124 3.76586 7.76386 3.74007 7.71228C3.76586 7.78966 3.79165 7.84124 3.81745 7.89283Z" fill="url(#paint25_linear_2_434)"/>
<path d="M22.0019 39.8253C21.8729 39.8253 21.7698 39.7995 21.6408 39.7737C21.7698 39.7995 21.8987 39.7995 22.0019 39.8253Z" fill="url(#paint26_linear_2_434)"/>
<path d="M3.55951 7.29958C3.53372 7.2222 3.50793 7.17061 3.45634 7.09323C3.50793 7.14482 3.53372 7.2222 3.55951 7.29958Z" fill="url(#paint27_linear_2_434)"/>
<path d="M36.2915 31.4939C36.2142 31.365 36.1626 31.236 36.0852 31.107C36.1626 31.2102 36.24 31.3392 36.2915 31.4939Z" fill="url(#paint28_linear_2_434)"/>
<path d="M35.6209 30.1527C35.5693 30.0495 35.4919 29.9205 35.4404 29.8174C35.4919 29.9205 35.5435 30.0495 35.6209 30.1527Z" fill="url(#paint29_linear_2_434)"/>
<path d="M31.4424 23.5237C33.8927 26.7221 36.0078 30.1785 37.7102 33.8927C37.6328 33.9701 37.5812 34.0475 37.5038 34.1249C40.8054 30.7201 42.8173 26.0773 42.8173 20.9444C42.8173 16.7658 41.3729 12.7678 38.8967 9.54362C39.0773 9.77576 39.2578 10.0337 39.4384 10.2658C38.0713 8.58926 36.4205 7.09323 34.5376 5.93252C28.734 2.32142 21.0991 1.03174 14.3154 1.03174C10.1111 1.03174 2.3988 2.55356 2.03769 2.65674C2.3988 2.78571 2.73412 2.88888 3.09523 3.01785C4.10118 3.37896 5.08133 3.79165 6.06149 4.20435C6.08728 4.20435 6.08728 4.23014 6.11308 4.23014C7.01585 4.61705 7.91862 5.02975 8.79561 5.49403C17.8491 9.36306 25.6904 15.6309 31.4424 23.5237Z" fill="url(#paint30_linear_2_434)"/>
<path d="M34.6666 5.49403C34.8987 5.64879 35.1308 5.82935 35.363 6.0099C35.1566 5.82935 34.9245 5.67458 34.6666 5.49403Z" fill="url(#paint31_linear_2_434)"/>
<path d="M34.5376 5.39086C34.2796 5.2103 34.0475 5.05554 33.7896 4.90078C29.9979 2.55356 25.4583 1.2123 20.867 0.515871C25.4325 1.1865 29.9979 2.55356 33.7896 4.90078C34.0475 5.08133 34.2796 5.23609 34.5376 5.39086Z" fill="url(#paint32_linear_2_434)"/>
<path d="M34.8471 28.7856C34.7955 28.7082 34.7697 28.6309 34.7181 28.5793C34.7697 28.6309 34.8213 28.7082 34.8471 28.7856Z" fill="url(#paint33_linear_2_434)"/>
<path d="M36.9364 32.8094C36.8848 32.6805 36.8074 32.5515 36.7558 32.4225C36.8074 32.5515 36.859 32.6805 36.9364 32.8094Z" fill="url(#paint34_linear_2_434)"/>
<path d="M38.2777 8.76981C38.4582 9.00196 38.6646 9.2341 38.8451 9.46624C38.6646 9.2083 38.484 8.97616 38.2777 8.76981Z" fill="url(#paint35_linear_2_434)"/>
<path d="M35.492 6.08728C35.7241 6.26784 35.9304 6.44839 36.1368 6.62895C35.9304 6.44839 35.6983 6.26784 35.492 6.08728Z" fill="url(#paint36_linear_2_434)"/>
<path d="M35.4146 29.8174C35.234 29.482 35.0277 29.1209 34.8471 28.7856C35.0535 29.1209 35.234 29.4563 35.4146 29.8174Z" fill="url(#paint37_linear_2_434)"/>
<path d="M37.5296 34.1249C37.3491 33.6864 37.1427 33.2479 36.9364 32.8094C37.1427 33.2221 37.3233 33.6606 37.5296 34.1249Z" fill="url(#paint38_linear_2_434)"/>
<path d="M34.7439 28.5535C33.738 26.7995 32.6547 25.1229 31.4682 23.5237C32.6289 25.1487 33.738 26.8253 34.7439 28.5535Z" fill="url(#paint39_linear_2_434)"/>
<path d="M31.4424 23.5237C32.6289 25.1487 33.7122 26.8253 34.7181 28.5535C34.7697 28.6309 34.7955 28.7082 34.8471 28.7598C35.0535 29.0951 35.234 29.4563 35.4146 29.7916C35.4662 29.8947 35.5435 30.0237 35.5951 30.1269C35.7499 30.4364 35.9304 30.7459 36.0852 31.0555C36.1626 31.1844 36.2142 31.3134 36.2915 31.4424C36.4463 31.7519 36.6011 32.0614 36.7558 32.3709C36.8074 32.4999 36.8848 32.6289 36.9364 32.7578C37.1427 33.1963 37.3233 33.6348 37.5296 34.0733C37.607 33.9959 37.6586 33.9185 37.736 33.8412C36.0336 30.1785 33.9185 26.7221 31.4424 23.5237Z" fill="url(#paint40_linear_2_434)"/>
<path d="M31.4424 23.5237C32.6289 25.1487 33.7122 26.8253 34.7181 28.5535C34.7697 28.6309 34.7955 28.7082 34.8471 28.7598C35.0535 29.0951 35.234 29.4563 35.4146 29.7916C35.4662 29.8947 35.5435 30.0237 35.5951 30.1269C35.7499 30.4364 35.9304 30.7459 36.0852 31.0555C36.1626 31.1844 36.2142 31.3134 36.2915 31.4424C36.4463 31.7519 36.6011 32.0614 36.7558 32.3709C36.8074 32.4999 36.8848 32.6289 36.9364 32.7578C37.1427 33.1963 37.3233 33.6348 37.5296 34.0733C37.607 33.9959 37.6586 33.9185 37.736 33.8412C36.0336 30.1785 33.9185 26.7221 31.4424 23.5237Z" fill="url(#paint41_linear_2_434)"/>
<path d="M17.9007 18.1071C17.9007 18.8551 17.6428 19.5257 17.2043 20.0674C17.8749 19.4999 18.3134 18.6487 18.3134 17.6944C18.3134 15.992 16.9464 14.625 15.244 14.625C14.2896 14.625 13.4384 15.0634 12.871 15.7341C13.4127 15.2956 14.0833 15.0376 14.8313 15.0376C16.5337 15.0376 17.9007 16.4047 17.9007 18.1071Z" fill="url(#paint42_linear_2_434)"/>
<path d="M21.744 23.0337C21.744 23.4721 21.5892 23.8848 21.3313 24.1944C21.744 23.8591 22.0019 23.3432 22.0019 22.8015C22.0019 21.7956 21.1765 20.9702 20.1706 20.9702C19.6031 20.9702 19.113 21.2281 18.7777 21.6408C19.0872 21.3829 19.4999 21.2281 19.9384 21.2281C20.9186 21.2023 21.744 22.0277 21.744 23.0337Z" fill="url(#paint43_linear_2_434)"/>
<path d="M36.859 7.27379C36.9106 7.29958 36.9364 7.35117 36.988 7.37696C36.9364 7.32537 36.8848 7.29958 36.859 7.27379Z" fill="url(#paint44_linear_2_434)"/>
<path d="M37.5812 7.99601C37.607 8.0218 37.607 8.0218 37.6328 8.04759C37.6328 8.0218 37.607 8.0218 37.5812 7.99601Z" fill="url(#paint45_linear_2_434)"/>
<path d="M3.01785 6.11308C2.96626 6.0099 2.91467 5.90673 2.86309 5.82935C2.91467 5.93252 2.96626 6.0357 3.01785 6.11308Z" fill="url(#paint46_linear_2_434)"/>
<path d="M4.46229 10.0337C4.4107 9.85314 4.35911 9.64679 4.33332 9.46624C4.38491 9.64679 4.4107 9.85314 4.46229 10.0337Z" fill="url(#paint47_linear_2_434)"/>
<path d="M2.60515 5.39086C2.57936 5.33927 2.52777 5.28768 2.50198 5.2103C2.55356 5.28768 2.57936 5.33927 2.60515 5.39086Z" fill="url(#paint48_linear_2_434)"/>
<path d="M4.33332 9.46624C4.17856 8.95037 4.0238 8.4087 3.81745 7.91863C3.998 8.4087 4.17856 8.92457 4.33332 9.46624Z" fill="url(#paint49_linear_2_434)"/>
<path d="M35.3888 6.0099C35.4146 6.03569 35.4662 6.06149 35.492 6.08728C35.4404 6.06149 35.4146 6.03569 35.3888 6.0099Z" fill="url(#paint50_linear_2_434)"/>
<path d="M1.13492 3.24999C1.13492 3.2242 1.10912 3.2242 1.08333 3.1984C1.10912 3.2242 1.10912 3.2242 1.13492 3.24999Z" fill="url(#paint51_linear_2_434)"/>
<path d="M36.1368 6.62895C36.1626 6.65474 36.1626 6.65474 36.1884 6.68053C36.1884 6.65474 36.1626 6.65474 36.1368 6.62895Z" fill="url(#paint52_linear_2_434)"/>
<path d="M1.52182 2.47618C1.00595 2.29563 0.515871 2.14087 0.0257936 1.9861C0.0257936 1.9861 0.0257936 1.9861 0 1.9861C0.515871 2.14087 1.00595 2.29563 1.52182 2.47618Z" fill="url(#paint53_linear_2_434)"/>
<path d="M38.2261 8.69243C38.2519 8.71823 38.2777 8.74402 38.2777 8.76981C38.2519 8.74402 38.2261 8.71823 38.2261 8.69243Z" fill="url(#paint54_linear_2_434)"/>
<path d="M34.5376 5.39086C34.5892 5.41665 34.6408 5.44244 34.6666 5.49403C34.6408 5.46824 34.5892 5.44244 34.5376 5.39086Z" fill="url(#paint55_linear_2_434)"/>
<path d="M3.74007 7.73807C3.68848 7.58331 3.63689 7.45434 3.55951 7.29958C3.63689 7.42855 3.68848 7.58331 3.74007 7.73807Z" fill="url(#paint56_linear_2_434)"/>
<path d="M1.67658 3.97221C1.65079 3.94642 1.62499 3.89483 1.5992 3.86904C1.62499 3.89483 1.65079 3.92062 1.67658 3.97221Z" fill="url(#paint57_linear_2_434)"/>
<path d="M3.48213 7.09323C3.37896 6.88688 3.30158 6.68053 3.1984 6.44839C3.27578 6.65474 3.37896 6.86109 3.48213 7.09323Z" fill="url(#paint58_linear_2_434)"/>
<path d="M2.0119 2.65674C1.88293 2.60515 1.75396 2.55356 1.62499 2.52777C1.57341 2.50198 1.54761 2.47618 1.52182 2.47618C1.00595 2.29563 0.515871 2.14087 0.0257936 1.9861C0.180555 2.19245 0.36111 2.37301 0.541665 2.57936C0.567458 2.60515 0.593252 2.63094 0.619046 2.65674C0.773807 2.83729 0.928568 3.01785 1.08333 3.1984C1.08333 3.2242 1.10912 3.2242 1.13492 3.24999C1.28968 3.45634 1.44444 3.66269 1.5992 3.86904C1.62499 3.89483 1.65079 3.94642 1.67658 3.97221C1.80555 4.12697 1.90872 4.28173 2.03769 4.46229C2.06349 4.51387 2.11507 4.56546 2.14087 4.64284C2.26983 4.84919 2.3988 5.02975 2.52777 5.23609C2.55356 5.28768 2.60515 5.33927 2.63094 5.41665C2.70832 5.57141 2.78571 5.70038 2.88888 5.85514C2.94047 5.95831 2.99205 6.03569 3.04364 6.13887C3.09523 6.24204 3.14682 6.37101 3.1984 6.47419C3.30158 6.68053 3.40475 6.88688 3.48213 7.11903C3.50793 7.19641 3.53372 7.24799 3.58531 7.32537C3.63689 7.48013 3.71427 7.6091 3.76586 7.76386C3.79165 7.81545 3.81745 7.89283 3.84324 7.94442C4.04959 8.46029 4.20435 8.97616 4.35911 9.49203C4.4107 9.67259 4.46229 9.85314 4.48808 10.0337C4.23014 7.40275 3.37896 4.87498 2.0119 2.65674Z" fill="url(#paint59_linear_2_434)"/>
<path d="M1.52182 2.47618C1.54761 2.47618 1.5992 2.50198 1.62499 2.50198C1.75396 2.55356 1.88293 2.57936 2.03769 2.63094C2.3988 2.55356 10.1111 1.03174 14.3154 1.03174C21.0733 1.03174 28.7082 2.32142 34.5376 5.93252C36.4205 7.09323 38.0713 8.56346 39.4384 10.2658C39.2578 10.0079 39.0773 9.77576 38.8967 9.54362C38.8709 9.51783 38.8451 9.46624 38.8193 9.44044C38.6388 9.2083 38.4582 8.97616 38.2519 8.74402C38.2261 8.71823 38.2003 8.69243 38.2003 8.66664C38.0197 8.46029 37.8134 8.22815 37.6328 8.0218C37.607 7.99601 37.607 7.99601 37.5812 7.97021C37.3749 7.76386 37.1685 7.55752 36.9622 7.35117C36.9106 7.32537 36.8848 7.27379 36.8332 7.24799C36.6269 7.04164 36.3947 6.86109 36.1884 6.65474C36.1626 6.62895 36.1626 6.62895 36.1368 6.60315C35.9304 6.4226 35.6983 6.24204 35.492 6.06149C35.4662 6.03569 35.4146 6.0099 35.3888 5.98411C35.1566 5.80355 34.9245 5.64879 34.6923 5.46824C34.6408 5.44244 34.5892 5.41665 34.5634 5.36506C34.3054 5.18451 34.0733 5.02975 33.8154 4.87498C29.9979 2.55356 25.4583 1.2123 20.867 0.515871C18.3908 0.154761 15.9146 0 13.5416 0C12.5099 0 11.5039 0.0257936 10.4722 0.103174C6.86109 0.335316 3.35316 0.980155 0.0257936 1.9861C0.515871 2.14087 1.00595 2.29563 1.52182 2.47618Z" fill="url(#paint60_linear_2_434)"/>
<path d="M14.7797 37.5812C14.7023 37.5296 14.625 37.4781 14.5218 37.4265C14.625 37.5038 14.7023 37.5554 14.7797 37.5812Z" fill="url(#paint61_linear_2_434)"/>
<path d="M23.8848 39.9026C23.5753 39.9026 23.2658 39.9026 22.9563 39.8769C23.24 39.9026 23.5495 39.9026 23.8848 39.9026Z" fill="url(#paint62_linear_2_434)"/>
<path d="M18.9325 39.2578C18.7777 39.2062 18.623 39.1804 18.4682 39.1288C18.5972 39.1804 18.7777 39.2062 18.9325 39.2578Z" fill="url(#paint63_linear_2_434)"/>
<path d="M16.3789 38.3808C16.2499 38.3292 16.121 38.2519 15.9662 38.2003C16.121 38.2519 16.2499 38.3034 16.3789 38.3808Z" fill="url(#paint64_linear_2_434)"/>
<path d="M17.2043 38.6903C17.0495 38.6388 16.9206 38.5872 16.7658 38.5098C16.9206 38.5872 17.0753 38.6388 17.2043 38.6903Z" fill="url(#paint65_linear_2_434)"/>
<path d="M37.8392 46.2479C37.736 45.9899 37.607 45.732 37.4781 45.4999C37.607 45.7578 37.7102 45.9899 37.8392 46.2479Z" fill="url(#paint66_linear_2_434)"/>
<path d="M26.1289 39.7737C25.3809 39.8769 24.6329 39.9026 23.859 39.9026C24.6329 39.9026 25.4067 39.8769 26.1289 39.7737Z" fill="url(#paint67_linear_2_434)"/>
<path d="M10.24 34.1249C10.1885 34.0733 10.1369 34.0217 10.0853 33.9443C10.1369 33.9959 10.1885 34.0733 10.24 34.1249Z" fill="url(#paint68_linear_2_434)"/>
<path d="M10.8591 34.7181C10.8075 34.6666 10.7301 34.5892 10.6785 34.5376C10.7301 34.615 10.8075 34.6666 10.8591 34.7181Z" fill="url(#paint69_linear_2_434)"/>
<path d="M38.0455 44.7776C38.0971 45.0098 38.1229 45.2161 38.1487 45.4483C38.1229 45.2161 38.0713 44.984 38.0455 44.7776Z" fill="url(#paint70_linear_2_434)"/>
<path d="M38.2777 46.2221C38.3292 46.5058 38.355 46.8153 38.4066 47.0991C38.355 46.8153 38.3292 46.5316 38.2777 46.2221Z" fill="url(#paint71_linear_2_434)"/>
<path d="M38.484 47.7439C38.5356 48.2598 38.613 48.7756 38.6388 49.2915C38.5872 48.7756 38.5356 48.2598 38.484 47.7439Z" fill="url(#paint72_linear_2_434)"/>
<path d="M38.6388 49.3173C38.6388 49.2915 38.6388 49.2915 38.6388 49.3173C38.5356 48.3371 38.2777 47.3828 37.9165 46.48C38.2777 47.357 38.5356 48.3114 38.6388 49.3173Z" fill="url(#paint73_linear_2_434)"/>
<path d="M5.23609 24.4007C5.23609 24.3749 5.23609 24.3749 5.23609 24.3491C5.23609 24.3749 5.23609 24.4007 5.23609 24.4007Z" fill="url(#paint74_linear_2_434)"/>
<path d="M5.41665 25.2519C5.41665 25.2261 5.41665 25.2261 5.41665 25.2003C5.41665 25.2261 5.41665 25.2519 5.41665 25.2519Z" fill="url(#paint75_linear_2_434)"/>
<path d="M28.0892 38.1745C27.7023 38.1745 27.3154 38.2003 26.9285 38.2261C26.7479 38.2519 26.5416 38.2777 26.361 38.3034C25.613 38.4066 24.8134 38.4324 24.0396 38.4324C14.8571 38.4324 7.14482 32.0614 5.08133 23.5237C5.10713 23.8075 5.15871 24.0912 5.2103 24.3491C5.2103 24.3749 5.2103 24.3749 5.2103 24.4007C5.26189 24.6586 5.31347 24.9424 5.36506 25.2003C5.36506 25.2261 5.36506 25.2261 5.36506 25.2519C5.41665 25.5098 5.49403 25.7936 5.57141 26.0515C5.57141 26.0773 5.57141 26.0773 5.57141 26.1031C5.64879 26.361 5.72617 26.6448 5.80355 26.9027C6.4226 28.7856 7.32537 30.5396 8.46029 32.0872L8.48608 32.113C8.64085 32.3193 8.76981 32.4999 8.92457 32.6805C8.95037 32.7062 8.97616 32.7578 9.00196 32.7836C9.13092 32.9642 9.28568 33.1189 9.44044 33.2995C9.49203 33.3511 9.51783 33.4027 9.56941 33.4543C9.69838 33.609 9.85314 33.7638 10.0079 33.9185C10.0595 33.9701 10.1111 34.0217 10.1627 34.0991C10.2916 34.2539 10.4464 34.3828 10.6012 34.5376C10.6527 34.5892 10.7301 34.6666 10.7817 34.7181C10.9365 34.8471 11.0654 34.9761 11.2202 35.1308C11.2976 35.1824 11.3492 35.2598 11.4265 35.3114C11.5813 35.4404 11.7103 35.5693 11.865 35.6983C11.9424 35.7499 12.0198 35.8015 12.0714 35.8789C12.2262 36.0078 12.3809 36.111 12.5357 36.24C12.6131 36.2915 12.6904 36.3431 12.742 36.3947C12.8968 36.5237 13.0773 36.6269 13.2321 36.73C13.2837 36.7558 13.3095 36.7816 13.3611 36.8074C13.7222 37.0396 14.0833 37.2459 14.4444 37.4781C14.5218 37.5296 14.5992 37.5812 14.7023 37.6328C14.8313 37.7102 14.9861 37.7876 15.115 37.8392C15.244 37.8908 15.373 37.9681 15.4761 38.0197C15.6051 38.0971 15.7341 38.1487 15.8888 38.2003C16.0178 38.2519 16.1468 38.3292 16.3015 38.3808C16.4305 38.4324 16.5595 38.484 16.6884 38.5356C16.8432 38.5872 16.9722 38.6388 17.1269 38.7161C17.2559 38.7677 17.3849 38.8193 17.5138 38.8709C17.6686 38.9225 17.8234 38.9741 17.9523 39.0257C18.0813 39.0773 18.2103 39.1031 18.3392 39.1546C18.494 39.2062 18.6488 39.2578 18.8035 39.2836C18.9325 39.3094 19.0614 39.361 19.1904 39.3868C19.3452 39.4384 19.5257 39.4642 19.6805 39.49C19.8095 39.5157 19.9384 39.5415 20.0674 39.5673C20.248 39.5931 20.4027 39.6189 20.5833 39.6705C20.7122 39.6963 20.8412 39.7221 20.9702 39.7221C21.1507 39.7479 21.3313 39.7737 21.5118 39.7995C21.6408 39.8253 21.744 39.8253 21.8729 39.8511C22.0793 39.8769 22.2856 39.8769 22.492 39.9026C22.5952 39.9026 22.6983 39.9284 22.8015 39.9284C23.111 39.9542 23.4206 39.9542 23.7301 39.9542C24.5039 39.9542 25.2519 39.9026 25.9999 39.8253C26.1805 39.7995 26.361 39.7737 26.5416 39.7479C26.8253 39.7221 27.109 39.6963 27.3928 39.6963C27.4959 39.6963 27.5733 39.6963 27.6765 39.6963C31.8808 39.6963 35.5177 42.0693 37.3491 45.5514C37.4781 45.7836 37.5812 46.0415 37.7102 46.2995C37.736 46.3768 37.7618 46.4542 37.8134 46.5316C38.1745 47.4344 38.4324 48.3629 38.5356 49.3689C38.484 48.853 38.4324 48.3371 38.3808 47.8213C38.355 47.6149 38.3292 47.4086 38.3034 47.2022C38.2519 46.9185 38.2261 46.609 38.1745 46.3252C38.1229 46.0673 38.0971 45.7836 38.0455 45.5256C38.0197 45.2935 37.9681 45.0872 37.9423 44.855C37.8908 44.5455 37.8392 44.2618 37.7876 43.9522C35.9304 40.4701 32.2935 38.1745 28.0892 38.1745Z" fill="url(#paint76_linear_2_434)"/>
<defs>
<linearGradient id="paint0_linear_2_434" x1="72.3529" y1="0.283691" x2="72.3529" y2="7.97017" gradientUnits="userSpaceOnUse">
<stop offset="0.182292" stop-color="#D29B2F"/>
<stop offset="1" stop-color="#D22F3A"/>
</linearGradient>
<linearGradient id="paint1_linear_2_434" x1="57.1" y1="0.283691" x2="57.1" y2="12.3551" gradientUnits="userSpaceOnUse">
<stop offset="0.182292" stop-color="#D29B2F"/>
<stop offset="1" stop-color="#D22F3A"/>
</linearGradient>
<linearGradient id="paint2_linear_2_434" x1="57.1" y1="0.283691" x2="57.1" y2="12.3551" gradientUnits="userSpaceOnUse">
<stop offset="0.182292" stop-color="#D29B2F"/>
<stop offset="1" stop-color="#D22F3A"/>
</linearGradient>
<linearGradient id="paint3_linear_2_434" x1="57.1" y1="0.283691" x2="57.1" y2="12.3551" gradientUnits="userSpaceOnUse">
<stop offset="0.182292" stop-color="#D29B2F"/>
<stop offset="1" stop-color="#D22F3A"/>
</linearGradient>
<linearGradient id="paint4_linear_2_434" x1="21.4087" y1="0" x2="21.4087" y2="49.3689" gradientUnits="userSpaceOnUse">
<stop offset="0.182292" stop-color="#D29B2F"/>
<stop offset="1" stop-color="#D22F3A"/>
</linearGradient>
<linearGradient id="paint5_linear_2_434" x1="21.4087" y1="0" x2="21.4087" y2="49.3689" gradientUnits="userSpaceOnUse">
<stop offset="0.182292" stop-color="#D29B2F"/>
<stop offset="1" stop-color="#D22F3A"/>
</linearGradient>
<linearGradient id="paint6_linear_2_434" x1="21.4087" y1="0" x2="21.4087" y2="49.3689" gradientUnits="userSpaceOnUse">
<stop offset="0.182292" stop-color="#D29B2F"/>
<stop offset="1" stop-color="#D22F3A"/>
</linearGradient>
<linearGradient id="paint7_linear_2_434" x1="21.4087" y1="0" x2="21.4087" y2="49.3689" gradientUnits="userSpaceOnUse">
<stop offset="0.182292" stop-color="#D29B2F"/>
<stop offset="1" stop-color="#D22F3A"/>
</linearGradient>
<linearGradient id="paint8_linear_2_434" x1="21.4087" y1="0" x2="21.4087" y2="49.3689" gradientUnits="userSpaceOnUse">
<stop offset="0.182292" stop-color="#D29B2F"/>
<stop offset="1" stop-color="#D22F3A"/>
</linearGradient>
<linearGradient id="paint9_linear_2_434" x1="21.4087" y1="0" x2="21.4087" y2="49.3689" gradientUnits="userSpaceOnUse">
<stop offset="0.182292" stop-color="#D29B2F"/>
<stop offset="1" stop-color="#D22F3A"/>
</linearGradient>
<linearGradient id="paint10_linear_2_434" x1="21.4087" y1="0" x2="21.4087" y2="49.3689" gradientUnits="userSpaceOnUse">
<stop offset="0.182292" stop-color="#D29B2F"/>
<stop offset="1" stop-color="#D22F3A"/>
</linearGradient>
<linearGradient id="paint11_linear_2_434" x1="21.4087" y1="0" x2="21.4087" y2="49.3689" gradientUnits="userSpaceOnUse">
<stop offset="0.182292" stop-color="#D29B2F"/>
<stop offset="1" stop-color="#D22F3A"/>
</linearGradient>
<linearGradient id="paint12_linear_2_434" x1="21.4087" y1="0" x2="21.4087" y2="49.3689" gradientUnits="userSpaceOnUse">
<stop offset="0.182292" stop-color="#D29B2F"/>
<stop offset="1" stop-color="#D22F3A"/>
</linearGradient>
<linearGradient id="paint13_linear_2_434" x1="21.4087" y1="0" x2="21.4087" y2="49.3689" gradientUnits="userSpaceOnUse">
<stop offset="0.182292" stop-color="#D29B2F"/>
<stop offset="1" stop-color="#D22F3A"/>
</linearGradient>
<linearGradient id="paint14_linear_2_434" x1="21.4087" y1="0" x2="21.4087" y2="49.3689" gradientUnits="userSpaceOnUse">
<stop offset="0.182292" stop-color="#D29B2F"/>
<stop offset="1" stop-color="#D22F3A"/>
</linearGradient>
<linearGradient id="paint15_linear_2_434" x1="21.4087" y1="0" x2="21.4087" y2="49.3689" gradientUnits="userSpaceOnUse">
<stop offset="0.182292" stop-color="#D29B2F"/>
<stop offset="1" stop-color="#D22F3A"/>
</linearGradient>
<linearGradient id="paint16_linear_2_434" x1="21.4087" y1="0" x2="21.4087" y2="49.3689" gradientUnits="userSpaceOnUse">
<stop offset="0.182292" stop-color="#D29B2F"/>
<stop offset="1" stop-color="#D22F3A"/>
</linearGradient>
<linearGradient id="paint17_linear_2_434" x1="21.4087" y1="0" x2="21.4087" y2="49.3689" gradientUnits="userSpaceOnUse">
<stop offset="0.182292" stop-color="#D29B2F"/>
<stop offset="1" stop-color="#D22F3A"/>
</linearGradient>
<linearGradient id="paint18_linear_2_434" x1="21.4087" y1="0" x2="21.4087" y2="49.3689" gradientUnits="userSpaceOnUse">
<stop offset="0.182292" stop-color="#D29B2F"/>
<stop offset="1" stop-color="#D22F3A"/>
</linearGradient>
<linearGradient id="paint19_linear_2_434" x1="21.4087" y1="0" x2="21.4087" y2="49.3689" gradientUnits="userSpaceOnUse">
<stop offset="0.182292" stop-color="#D29B2F"/>
<stop offset="1" stop-color="#D22F3A"/>
</linearGradient>
<linearGradient id="paint20_linear_2_434" x1="21.4087" y1="0" x2="21.4087" y2="49.3689" gradientUnits="userSpaceOnUse">
<stop offset="0.182292" stop-color="#D29B2F"/>
<stop offset="1" stop-color="#D22F3A"/>
</linearGradient>
<linearGradient id="paint21_linear_2_434" x1="21.4087" y1="0" x2="21.4087" y2="49.3689" gradientUnits="userSpaceOnUse">
<stop offset="0.182292" stop-color="#D29B2F"/>
<stop offset="1" stop-color="#D22F3A"/>
</linearGradient>
<linearGradient id="paint22_linear_2_434" x1="21.4087" y1="0" x2="21.4087" y2="49.3689" gradientUnits="userSpaceOnUse">
<stop offset="0.182292" stop-color="#D29B2F"/>
<stop offset="1" stop-color="#D22F3A"/>
</linearGradient>
<linearGradient id="paint23_linear_2_434" x1="21.4087" y1="0" x2="21.4087" y2="49.3689" gradientUnits="userSpaceOnUse">
<stop offset="0.182292" stop-color="#D29B2F"/>
<stop offset="1" stop-color="#D22F3A"/>
</linearGradient>
<linearGradient id="paint24_linear_2_434" x1="21.4087" y1="0" x2="21.4087" y2="49.3689" gradientUnits="userSpaceOnUse">
<stop offset="0.182292" stop-color="#D29B2F"/>
<stop offset="1" stop-color="#D22F3A"/>
</linearGradient>
<linearGradient id="paint25_linear_2_434" x1="21.4087" y1="0" x2="21.4087" y2="49.3689" gradientUnits="userSpaceOnUse">
<stop offset="0.182292" stop-color="#D29B2F"/>
<stop offset="1" stop-color="#D22F3A"/>
</linearGradient>
<linearGradient id="paint26_linear_2_434" x1="21.4087" y1="0" x2="21.4087" y2="49.3689" gradientUnits="userSpaceOnUse">
<stop offset="0.182292" stop-color="#D29B2F"/>
<stop offset="1" stop-color="#D22F3A"/>
</linearGradient>
<linearGradient id="paint27_linear_2_434" x1="21.4087" y1="0" x2="21.4087" y2="49.3689" gradientUnits="userSpaceOnUse">
<stop offset="0.182292" stop-color="#D29B2F"/>
<stop offset="1" stop-color="#D22F3A"/>
</linearGradient>
<linearGradient id="paint28_linear_2_434" x1="21.4087" y1="0" x2="21.4087" y2="49.3689" gradientUnits="userSpaceOnUse">
<stop offset="0.182292" stop-color="#D29B2F"/>
<stop offset="1" stop-color="#D22F3A"/>
</linearGradient>
<linearGradient id="paint29_linear_2_434" x1="21.4087" y1="0" x2="21.4087" y2="49.3689" gradientUnits="userSpaceOnUse">
<stop offset="0.182292" stop-color="#D29B2F"/>
<stop offset="1" stop-color="#D22F3A"/>
</linearGradient>
<linearGradient id="paint30_linear_2_434" x1="21.4087" y1="0" x2="21.4087" y2="49.3689" gradientUnits="userSpaceOnUse">
<stop offset="0.182292" stop-color="#D29B2F"/>
<stop offset="1" stop-color="#D22F3A"/>
</linearGradient>
<linearGradient id="paint31_linear_2_434" x1="21.4087" y1="0" x2="21.4087" y2="49.3689" gradientUnits="userSpaceOnUse">
<stop offset="0.182292" stop-color="#D29B2F"/>
<stop offset="1" stop-color="#D22F3A"/>
</linearGradient>
<linearGradient id="paint32_linear_2_434" x1="21.4087" y1="0" x2="21.4087" y2="49.3689" gradientUnits="userSpaceOnUse">
<stop offset="0.182292" stop-color="#D29B2F"/>
<stop offset="1" stop-color="#D22F3A"/>
</linearGradient>
<linearGradient id="paint33_linear_2_434" x1="21.4087" y1="0" x2="21.4087" y2="49.3689" gradientUnits="userSpaceOnUse">
<stop offset="0.182292" stop-color="#D29B2F"/>
<stop offset="1" stop-color="#D22F3A"/>
</linearGradient>
<linearGradient id="paint34_linear_2_434" x1="21.4087" y1="0" x2="21.4087" y2="49.3689" gradientUnits="userSpaceOnUse">
<stop offset="0.182292" stop-color="#D29B2F"/>
<stop offset="1" stop-color="#D22F3A"/>
</linearGradient>
<linearGradient id="paint35_linear_2_434" x1="21.4087" y1="0" x2="21.4087" y2="49.3689" gradientUnits="userSpaceOnUse">
<stop offset="0.182292" stop-color="#D29B2F"/>
<stop offset="1" stop-color="#D22F3A"/>
</linearGradient>
<linearGradient id="paint36_linear_2_434" x1="21.4087" y1="0" x2="21.4087" y2="49.3689" gradientUnits="userSpaceOnUse">
<stop offset="0.182292" stop-color="#D29B2F"/>
<stop offset="1" stop-color="#D22F3A"/>
</linearGradient>
<linearGradient id="paint37_linear_2_434" x1="21.4087" y1="0" x2="21.4087" y2="49.3689" gradientUnits="userSpaceOnUse">
<stop offset="0.182292" stop-color="#D29B2F"/>
<stop offset="1" stop-color="#D22F3A"/>
</linearGradient>
<linearGradient id="paint38_linear_2_434" x1="21.4087" y1="0" x2="21.4087" y2="49.3689" gradientUnits="userSpaceOnUse">
<stop offset="0.182292" stop-color="#D29B2F"/>
<stop offset="1" stop-color="#D22F3A"/>
</linearGradient>
<linearGradient id="paint39_linear_2_434" x1="21.4087" y1="0" x2="21.4087" y2="49.3689" gradientUnits="userSpaceOnUse">
<stop offset="0.182292" stop-color="#D29B2F"/>
<stop offset="1" stop-color="#D22F3A"/>
</linearGradient>
<linearGradient id="paint40_linear_2_434" x1="21.4087" y1="0" x2="21.4087" y2="49.3689" gradientUnits="userSpaceOnUse">
<stop offset="0.182292" stop-color="#D29B2F"/>
<stop offset="1" stop-color="#D22F3A"/>
</linearGradient>
<linearGradient id="paint41_linear_2_434" x1="21.4087" y1="0" x2="21.4087" y2="49.3689" gradientUnits="userSpaceOnUse">
<stop offset="0.182292" stop-color="#D29B2F"/>
<stop offset="1" stop-color="#D22F3A"/>
</linearGradient>
<linearGradient id="paint42_linear_2_434" x1="21.4087" y1="0" x2="21.4087" y2="49.3689" gradientUnits="userSpaceOnUse">
<stop offset="0.182292" stop-color="#D29B2F"/>
<stop offset="1" stop-color="#D22F3A"/>
</linearGradient>
<linearGradient id="paint43_linear_2_434" x1="21.4087" y1="0" x2="21.4087" y2="49.3689" gradientUnits="userSpaceOnUse">
<stop offset="0.182292" stop-color="#D29B2F"/>
<stop offset="1" stop-color="#D22F3A"/>
</linearGradient>
<linearGradient id="paint44_linear_2_434" x1="21.4087" y1="0" x2="21.4087" y2="49.3689" gradientUnits="userSpaceOnUse">
<stop offset="0.182292" stop-color="#D29B2F"/>
<stop offset="1" stop-color="#D22F3A"/>
</linearGradient>
<linearGradient id="paint45_linear_2_434" x1="21.4087" y1="0" x2="21.4087" y2="49.3689" gradientUnits="userSpaceOnUse">
<stop offset="0.182292" stop-color="#D29B2F"/>
<stop offset="1" stop-color="#D22F3A"/>
</linearGradient>
<linearGradient id="paint46_linear_2_434" x1="21.4087" y1="0" x2="21.4087" y2="49.3689" gradientUnits="userSpaceOnUse">
<stop offset="0.182292" stop-color="#D29B2F"/>
<stop offset="1" stop-color="#D22F3A"/>
</linearGradient>
<linearGradient id="paint47_linear_2_434" x1="21.4087" y1="0" x2="21.4087" y2="49.3689" gradientUnits="userSpaceOnUse">
<stop offset="0.182292" stop-color="#D29B2F"/>
<stop offset="1" stop-color="#D22F3A"/>
</linearGradient>
<linearGradient id="paint48_linear_2_434" x1="21.4087" y1="0" x2="21.4087" y2="49.3689" gradientUnits="userSpaceOnUse">
<stop offset="0.182292" stop-color="#D29B2F"/>
<stop offset="1" stop-color="#D22F3A"/>
</linearGradient>
<linearGradient id="paint49_linear_2_434" x1="21.4087" y1="0" x2="21.4087" y2="49.3689" gradientUnits="userSpaceOnUse">
<stop offset="0.182292" stop-color="#D29B2F"/>
<stop offset="1" stop-color="#D22F3A"/>
</linearGradient>
<linearGradient id="paint50_linear_2_434" x1="21.4087" y1="0" x2="21.4087" y2="49.3689" gradientUnits="userSpaceOnUse">
<stop offset="0.182292" stop-color="#D29B2F"/>
<stop offset="1" stop-color="#D22F3A"/>
</linearGradient>
<linearGradient id="paint51_linear_2_434" x1="21.4087" y1="0" x2="21.4087" y2="49.3689" gradientUnits="userSpaceOnUse">
<stop offset="0.182292" stop-color="#D29B2F"/>
<stop offset="1" stop-color="#D22F3A"/>
</linearGradient>
<linearGradient id="paint52_linear_2_434" x1="21.4087" y1="0" x2="21.4087" y2="49.3689" gradientUnits="userSpaceOnUse">
<stop offset="0.182292" stop-color="#D29B2F"/>
<stop offset="1" stop-color="#D22F3A"/>
</linearGradient>
<linearGradient id="paint53_linear_2_434" x1="21.4087" y1="0" x2="21.4087" y2="49.3689" gradientUnits="userSpaceOnUse">
<stop offset="0.182292" stop-color="#D29B2F"/>
<stop offset="1" stop-color="#D22F3A"/>
</linearGradient>
<linearGradient id="paint54_linear_2_434" x1="21.4087" y1="0" x2="21.4087" y2="49.3689" gradientUnits="userSpaceOnUse">
<stop offset="0.182292" stop-color="#D29B2F"/>
<stop offset="1" stop-color="#D22F3A"/>
</linearGradient>
<linearGradient id="paint55_linear_2_434" x1="21.4087" y1="0" x2="21.4087" y2="49.3689" gradientUnits="userSpaceOnUse">
<stop offset="0.182292" stop-color="#D29B2F"/>
<stop offset="1" stop-color="#D22F3A"/>
</linearGradient>
<linearGradient id="paint56_linear_2_434" x1="21.4087" y1="0" x2="21.4087" y2="49.3689" gradientUnits="userSpaceOnUse">
<stop offset="0.182292" stop-color="#D29B2F"/>
<stop offset="1" stop-color="#D22F3A"/>
</linearGradient>
<linearGradient id="paint57_linear_2_434" x1="21.4087" y1="0" x2="21.4087" y2="49.3689" gradientUnits="userSpaceOnUse">
<stop offset="0.182292" stop-color="#D29B2F"/>
<stop offset="1" stop-color="#D22F3A"/>
</linearGradient>
<linearGradient id="paint58_linear_2_434" x1="21.4087" y1="0" x2="21.4087" y2="49.3689" gradientUnits="userSpaceOnUse">
<stop offset="0.182292" stop-color="#D29B2F"/>
<stop offset="1" stop-color="#D22F3A"/>
</linearGradient>
<linearGradient id="paint59_linear_2_434" x1="21.4087" y1="0" x2="21.4087" y2="49.3689" gradientUnits="userSpaceOnUse">
<stop offset="0.182292" stop-color="#D29B2F"/>
<stop offset="1" stop-color="#D22F3A"/>
</linearGradient>
<linearGradient id="paint60_linear_2_434" x1="21.4087" y1="0" x2="21.4087" y2="49.3689" gradientUnits="userSpaceOnUse">
<stop offset="0.182292" stop-color="#D29B2F"/>
<stop offset="1" stop-color="#D22F3A"/>
</linearGradient>
<linearGradient id="paint61_linear_2_434" x1="21.4087" y1="0" x2="21.4087" y2="49.3689" gradientUnits="userSpaceOnUse">
<stop offset="0.182292" stop-color="#D29B2F"/>
<stop offset="1" stop-color="#D22F3A"/>
</linearGradient>
<linearGradient id="paint62_linear_2_434" x1="21.4087" y1="0" x2="21.4087" y2="49.3689" gradientUnits="userSpaceOnUse">
<stop offset="0.182292" stop-color="#D29B2F"/>
<stop offset="1" stop-color="#D22F3A"/>
</linearGradient>
<linearGradient id="paint63_linear_2_434" x1="21.4087" y1="0" x2="21.4087" y2="49.3689" gradientUnits="userSpaceOnUse">
<stop offset="0.182292" stop-color="#D29B2F"/>
<stop offset="1" stop-color="#D22F3A"/>
</linearGradient>
<linearGradient id="paint64_linear_2_434" x1="21.4087" y1="0" x2="21.4087" y2="49.3689" gradientUnits="userSpaceOnUse">
<stop offset="0.182292" stop-color="#D29B2F"/>
<stop offset="1" stop-color="#D22F3A"/>
</linearGradient>
<linearGradient id="paint65_linear_2_434" x1="21.4087" y1="0" x2="21.4087" y2="49.3689" gradientUnits="userSpaceOnUse">
<stop offset="0.182292" stop-color="#D29B2F"/>
<stop offset="1" stop-color="#D22F3A"/>
</linearGradient>
<linearGradient id="paint66_linear_2_434" x1="21.4087" y1="0" x2="21.4087" y2="49.3689" gradientUnits="userSpaceOnUse">
<stop offset="0.182292" stop-color="#D29B2F"/>
<stop offset="1" stop-color="#D22F3A"/>
</linearGradient>
<linearGradient id="paint67_linear_2_434" x1="21.4087" y1="0" x2="21.4087" y2="49.3689" gradientUnits="userSpaceOnUse">
<stop offset="0.182292" stop-color="#D29B2F"/>
<stop offset="1" stop-color="#D22F3A"/>
</linearGradient>
<linearGradient id="paint68_linear_2_434" x1="21.4087" y1="0" x2="21.4087" y2="49.3689" gradientUnits="userSpaceOnUse">
<stop offset="0.182292" stop-color="#D29B2F"/>
<stop offset="1" stop-color="#D22F3A"/>
</linearGradient>
<linearGradient id="paint69_linear_2_434" x1="21.4087" y1="0" x2="21.4087" y2="49.3689" gradientUnits="userSpaceOnUse">
<stop offset="0.182292" stop-color="#D29B2F"/>
<stop offset="1" stop-color="#D22F3A"/>
</linearGradient>
<linearGradient id="paint70_linear_2_434" x1="21.4087" y1="0" x2="21.4087" y2="49.3689" gradientUnits="userSpaceOnUse">
<stop offset="0.182292" stop-color="#D29B2F"/>
<stop offset="1" stop-color="#D22F3A"/>
</linearGradient>
<linearGradient id="paint71_linear_2_434" x1="21.4087" y1="0" x2="21.4087" y2="49.3689" gradientUnits="userSpaceOnUse">
<stop offset="0.182292" stop-color="#D29B2F"/>
<stop offset="1" stop-color="#D22F3A"/>
</linearGradient>
<linearGradient id="paint72_linear_2_434" x1="21.4087" y1="0" x2="21.4087" y2="49.3689" gradientUnits="userSpaceOnUse">
<stop offset="0.182292" stop-color="#D29B2F"/>
<stop offset="1" stop-color="#D22F3A"/>
</linearGradient>
<linearGradient id="paint73_linear_2_434" x1="21.4087" y1="0" x2="21.4087" y2="49.3689" gradientUnits="userSpaceOnUse">
<stop offset="0.182292" stop-color="#D29B2F"/>
<stop offset="1" stop-color="#D22F3A"/>
</linearGradient>
<linearGradient id="paint74_linear_2_434" x1="21.4087" y1="0" x2="21.4087" y2="49.3689" gradientUnits="userSpaceOnUse">
<stop offset="0.182292" stop-color="#D29B2F"/>
<stop offset="1" stop-color="#D22F3A"/>
</linearGradient>
<linearGradient id="paint75_linear_2_434" x1="21.4087" y1="0" x2="21.4087" y2="49.3689" gradientUnits="userSpaceOnUse">
<stop offset="0.182292" stop-color="#D29B2F"/>
<stop offset="1" stop-color="#D22F3A"/>
</linearGradient>
<linearGradient id="paint76_linear_2_434" x1="21.4087" y1="0" x2="21.4087" y2="49.3689" gradientUnits="userSpaceOnUse">
<stop offset="0.182292" stop-color="#D29B2F"/>
<stop offset="1" stop-color="#D22F3A"/>
</linearGradient>
</defs>
</svg>
