<svg width="67" height="67" viewBox="0 0 67 67" fill="none" xmlns="http://www.w3.org/2000/svg">
<path d="M46.6044 11.5154H20.4391C19.7165 11.5154 19.1305 12.1012 19.1305 12.824V22.2458C19.1305 22.9686 19.7165 23.5544 20.4391 23.5544H46.6044C47.327 23.5544 47.913 22.9686 47.913 22.2458V12.824C47.913 12.1012 47.327 11.5154 46.6044 11.5154ZM45.2958 20.9373H21.7477V14.1326H45.2958V20.9373Z" fill="#D29B2F"/>
<path d="M20.4323 30.8828H46.5977C47.3203 30.8828 47.9063 30.297 47.9063 29.5742C47.9063 28.8515 47.3203 28.2656 46.5977 28.2656H20.4323C19.7097 28.2656 19.1237 28.8515 19.1237 29.5742C19.1237 30.297 19.7096 30.8828 20.4323 30.8828Z" fill="#D29B2F"/>
<path d="M46.6041 35.5935H46.5898C45.8672 35.5935 45.2812 36.1795 45.2812 36.9021C45.2812 37.6247 45.8672 38.2107 46.5898 38.2107H46.6041C47.3267 38.2107 47.9127 37.6247 47.9127 36.9021C47.9127 36.1795 47.3267 35.5935 46.6041 35.5935Z" fill="#D29B2F"/>
<path d="M41.3698 35.5935H20.4323C19.7097 35.5935 19.1237 36.1795 19.1237 36.9021C19.1237 37.6247 19.7097 38.2107 20.4323 38.2107H41.3698C42.0924 38.2107 42.6784 37.6247 42.6784 36.9021C42.6784 36.1795 42.0924 35.5935 41.3698 35.5935Z" fill="#D29B2F"/>
<path d="M66.83 45.9425C66.8303 45.9424 66.8304 45.9422 66.8307 45.9421L58.3346 30.9105C58.1025 30.4998 57.6671 30.2458 57.1953 30.2458H55.2228V9.16015C55.2228 6.99548 53.4617 5.23437 51.297 5.23437H51.0351V3.92578C51.0351 1.76111 49.274 0 47.1094 0H19.8906C17.7259 0 15.9648 1.76111 15.9648 3.92578V5.23437H15.703C13.5383 5.23437 11.7772 6.99548 11.7772 9.16015V30.2457H9.83892C9.36783 30.2457 8.93324 30.4987 8.70084 30.9083L0.17051 45.94C0.170771 45.94 0.171033 45.9401 0.171295 45.9403C0.0628125 46.1309 0 46.3509 0 46.5859V65.6914C0 66.414 0.585988 67 1.30859 67H7.30627C8.02888 67 8.61486 66.414 8.61486 65.6914C8.61486 64.9688 8.02888 64.3828 7.30627 64.3828H2.61719V47.8945H23.7728H28.2948C28.8805 50.2225 30.9914 51.9512 33.4987 51.9512C36.0059 51.9512 38.1168 50.2225 38.7026 47.8945H46.3666H64.3828V64.3828H17.775C17.0524 64.3828 16.4664 64.9688 16.4664 65.6914C16.4664 66.414 17.0524 67 17.775 67H65.6914C66.414 67 67 66.414 67 65.6914V46.5859C67 46.3518 66.9377 46.1326 66.83 45.9425ZM18.582 3.92578C18.582 3.20422 19.1691 2.61719 19.8906 2.61719H47.1094C47.8309 2.61719 48.418 3.20422 48.418 3.92578V5.23437H18.582V3.92578ZM10.6009 32.8628H11.7772V45.2773H3.55584L10.6009 32.8628ZM37.5552 45.2773C36.8326 45.2773 36.2466 45.8633 36.2466 46.5859C36.2466 48.1011 35.0138 49.334 33.4986 49.334C31.9833 49.334 30.7505 48.1011 30.7505 46.5859C30.7505 45.8633 30.1645 45.2773 29.4419 45.2773H23.7728H14.3944V9.16015C14.3944 8.4386 14.9814 7.85156 15.703 7.85156H51.297C52.0186 7.85156 52.6056 8.4386 52.6056 9.16015V45.2773H46.3665H37.5552ZM55.2228 45.2773V32.8628H56.4318L63.4486 45.2773H55.2228Z" fill="#D22F3A"/>
<path d="M22.636 52.8889C21.9134 52.8889 21.3274 53.4749 21.3274 54.1975V58.0796C21.3274 58.8022 21.9134 59.3882 22.636 59.3882H44.3614C45.084 59.3882 45.67 58.8022 45.67 58.0796V54.1975C45.67 53.4749 45.084 52.8889 44.3614 52.8889C43.6388 52.8889 43.0528 53.4749 43.0528 54.1975V56.771H23.9446V54.1975C23.9446 53.4749 23.3588 52.8889 22.636 52.8889Z" fill="#D22F3A"/>
<path d="M12.5405 64.3828C12.1963 64.3828 11.8587 64.5227 11.6153 64.7662C11.3719 65.0098 11.2319 65.3472 11.2319 65.6914C11.2319 66.0356 11.3718 66.3732 11.6153 66.6165C11.8587 66.8598 12.1963 67 12.5405 67C12.8859 67 13.2223 66.86 13.4655 66.6165C13.7102 66.3732 13.8491 66.0356 13.8491 65.6914C13.8491 65.3472 13.7102 65.0096 13.4655 64.7662C13.2223 64.5227 12.8846 64.3828 12.5405 64.3828Z" fill="#D29B2F"/>
</svg>
