<svg width="68" height="66" viewBox="0 0 68 66" fill="none" xmlns="http://www.w3.org/2000/svg">
<path d="M67.8689 35.7781C67.2583 29.637 64.5148 23.8475 60.1433 19.4759C56.4075 15.7402 51.835 13.3396 47.0236 12.2722V8.89764C48.9888 8.40875 50.4495 6.62997 50.4495 4.51569C50.4495 2.02569 48.4238 0 45.9338 0H36.3711C33.8811 0 31.8554 2.02569 31.8554 4.51569C31.8554 6.62983 33.3161 8.40862 35.2811 8.89764V12.2816C30.4845 13.3536 25.9271 15.7509 22.2019 19.4761C21.3867 20.2913 20.635 21.1465 19.9469 22.0353C19.9135 22.0327 19.8802 22.0302 19.8462 22.0302H10.3817C9.64831 22.0302 9.05357 22.6248 9.05357 23.3584C9.05357 24.0919 9.64831 24.6865 10.3817 24.6865H18.1397C17.1659 26.3168 16.3807 28.0289 15.783 29.7914H1.32815C0.594743 29.7914 0 30.386 0 31.1195C0 31.853 0.594743 32.4477 1.32815 32.4477H15.0325C14.6497 34.1279 14.43 35.8379 14.3733 37.5526H8.50013C7.76673 37.5526 7.17198 38.1472 7.17198 38.8808C7.17198 39.6143 7.76673 40.2089 8.50013 40.2089H14.4157C14.5278 41.9281 14.8042 43.6382 15.245 45.3139H6.64072C5.90732 45.3139 5.31258 45.9085 5.31258 46.6421C5.31258 47.3756 5.90732 47.9702 6.64072 47.9702H16.0926C17.3955 51.4169 19.4317 54.6473 22.2019 57.4176C26.5776 61.7933 32.3731 64.5375 38.5206 65.1449C39.398 65.2314 40.276 65.2743 41.1528 65.2743C46.3355 65.2743 51.4523 63.7745 55.794 60.9471C56.4087 60.5468 56.5826 59.724 56.1823 59.1094C55.782 58.4947 54.9592 58.3208 54.3445 58.7211C44.8407 64.9099 32.1127 63.5718 24.0802 55.5393C14.6554 46.1145 14.6554 30.7794 24.0802 21.3545C33.5048 11.9298 48.84 11.9298 58.2649 21.3545C66.2868 29.3764 67.6322 42.0936 61.4639 51.5927C61.0644 52.2079 61.2393 53.0306 61.8544 53.43C62.4698 53.8295 63.2922 53.6545 63.6916 53.0393C66.9873 47.9638 68.4708 41.8338 67.8689 35.7781ZM34.5117 4.51583C34.5117 3.4905 35.3458 2.65642 36.3711 2.65642H45.9338C46.9591 2.65642 47.7932 3.4905 47.7932 4.51583C47.7932 5.54115 46.9591 6.37523 45.9338 6.37523H45.6955H36.6093H36.3711C35.3458 6.37523 34.5117 5.54102 34.5117 4.51583ZM37.9374 11.825V9.03152H44.3673V11.8202C42.2322 11.5663 40.0721 11.5679 37.9374 11.825Z" fill="#D22F3A"/>
<path d="M59.2048 55.1497C58.8541 55.1497 58.5128 55.2918 58.2659 55.5388C58.0176 55.7858 57.8766 56.1285 57.8766 56.4778C57.8766 56.8271 58.0176 57.1697 58.2659 57.4168C58.5128 57.6651 58.8543 57.8059 59.2048 57.8059C59.5541 57.8059 59.8954 57.6651 60.1438 57.4168C60.3908 57.1697 60.5329 56.8271 60.5329 56.4778C60.5329 56.1285 60.3909 55.7858 60.1438 55.5388C59.8954 55.2918 59.5539 55.1497 59.2048 55.1497Z" fill="#D29B2F"/>
<path d="M41.1727 17.8433C29.812 17.8433 20.5693 27.0858 20.5693 38.4466C20.5693 49.8075 29.812 59.05 41.1727 59.05C52.5334 59.05 61.7761 49.8075 61.7761 38.4466C61.7761 27.0858 52.5334 17.8433 41.1727 17.8433ZM41.1727 56.3937C31.2765 56.3937 23.2256 48.3427 23.2256 38.4466C23.2256 28.5506 31.2765 20.4996 41.1727 20.4996C51.0688 20.4996 59.1198 28.5506 59.1198 38.4466C59.1198 48.3427 51.0688 56.3937 41.1727 56.3937Z" fill="#D22F3A"/>
<path d="M49.5738 28.1671L42.9955 34.7452C42.4454 34.4732 41.8266 34.3196 41.1725 34.3196C40.5183 34.3196 39.8996 34.4732 39.3495 34.7452L36.4054 31.8011C35.8866 31.2825 35.0459 31.2825 34.527 31.8011C34.0084 32.3198 34.0084 33.1607 34.527 33.6794L37.4711 36.6235C37.199 37.1736 37.0454 37.7924 37.0454 38.4465C37.0454 40.7221 38.8967 42.5736 41.1725 42.5736C43.4483 42.5736 45.2996 40.7221 45.2996 38.4465C45.2996 37.7924 45.1459 37.1736 44.8739 36.6235L51.2591 30.2383L51.4521 30.0453C51.9707 29.5267 51.9707 28.6857 51.4521 28.1671C50.9335 27.6484 50.0927 27.6484 49.5738 28.1671ZM41.1725 39.9174C40.3616 39.9174 39.7017 39.2576 39.7017 38.4466C39.7017 37.6357 40.3616 36.9758 41.1725 36.9758C41.9835 36.9758 42.6433 37.6357 42.6433 38.4466C42.6433 39.2576 41.9835 39.9174 41.1725 39.9174Z" fill="#D29B2F"/>
<path d="M55.3728 37.1348H54.1423C53.4089 37.1348 52.8142 37.7294 52.8142 38.4629C52.8142 39.1964 53.4089 39.791 54.1423 39.791H55.3728C56.1062 39.791 56.701 39.1964 56.701 38.4629C56.701 37.7294 56.1062 37.1348 55.3728 37.1348Z" fill="#D29B2F"/>
<path d="M28.2029 37.1023H26.9725C26.2391 37.1023 25.6444 37.6969 25.6444 38.4304C25.6444 39.1639 26.2391 39.7585 26.9725 39.7585H28.2029C28.9363 39.7585 29.531 39.1639 29.531 38.4304C29.531 37.6969 28.9363 37.1023 28.2029 37.1023Z" fill="#D29B2F"/>
<path d="M41.1887 26.8046C41.9221 26.8046 42.5168 26.21 42.5168 25.4765V24.2461C42.5168 23.5126 41.9221 22.918 41.1887 22.918C40.4553 22.918 39.8606 23.5126 39.8606 24.2461V25.4765C39.8606 26.21 40.4553 26.8046 41.1887 26.8046Z" fill="#D29B2F"/>
<path d="M41.1563 50.0886C40.4229 50.0886 39.8282 50.6832 39.8282 51.4167V52.6471C39.8282 53.3806 40.4229 53.9752 41.1563 53.9752C41.8897 53.9752 42.4844 53.3806 42.4844 52.6471V51.4167C42.4844 50.6832 41.8897 50.0886 41.1563 50.0886Z" fill="#D29B2F"/>
<path d="M1.32812 45.3132C0.978827 45.3132 0.636171 45.4553 0.38914 45.7024C0.142109 45.9494 0 46.2921 0 46.6414C0 46.992 0.141976 47.3333 0.38914 47.5803C0.636304 47.8274 0.978827 47.9695 1.32812 47.9695C1.67742 47.9695 2.02008 47.8274 2.26698 47.5803C2.51401 47.3333 2.65625 46.9907 2.65625 46.6414C2.65625 46.2921 2.51414 45.9494 2.26698 45.7024C2.02008 45.4553 1.67742 45.3132 1.32812 45.3132Z" fill="#D29B2F"/>
</svg>
