<svg width="66" height="73" viewBox="0 0 66 73" fill="none" xmlns="http://www.w3.org/2000/svg">
<path d="M48.2952 56.2498C47.5111 56.2498 46.8748 56.8861 46.8748 57.6702C46.8748 58.4543 47.5111 59.0906 48.2952 59.0906C49.0793 59.0906 49.7156 58.4543 49.7156 57.6702C49.7156 56.8861 49.0793 56.2498 48.2952 56.2498Z" fill="#D29B2F"/>
<path d="M51.7926 51.6564L45.0412 49.4064L42.6175 44.5588C44.801 42.3364 46.3171 39.3958 46.8283 36.3286L47.1306 34.5168H49.7156C52.0653 34.5168 53.977 32.6052 53.977 30.2555V21.3067C53.977 9.55818 44.4188 0 32.6703 0C20.8916 0 11.3636 9.53077 11.3636 21.3067V30.2555C11.3636 32.1072 12.5512 33.6862 14.2045 34.2725V35.9373C14.2045 38.287 16.1161 40.1986 18.4658 40.1986H19.7132C20.329 41.5363 21.126 42.7752 22.0959 43.8881C22.297 44.1193 22.5068 44.3435 22.7217 44.5615L20.2993 49.4064L13.5478 51.6565C5.69769 54.2741 0 62.5381 0 71.3064C0 72.0909 0.635934 72.7269 1.42045 72.7269H63.9201C64.7045 72.7269 65.3405 72.0909 65.3405 71.3064C65.3405 62.5381 59.643 54.2741 51.7926 51.6564ZM51.1361 30.2555C51.1361 31.0387 50.4989 31.676 49.7156 31.676H47.5477C47.9088 28.8791 48.1494 25.9028 48.2462 22.9715C48.249 22.8888 48.2513 22.8084 48.2538 22.7271H51.1361V30.2555ZM15.6249 31.676C14.8417 31.676 14.2045 31.0387 14.2045 30.2555V22.7271H17.0877C17.0924 22.8753 17.0973 23.0242 17.1029 23.174C17.103 23.1791 17.1033 23.1841 17.1035 23.1892C17.1035 23.1896 17.1035 23.1901 17.1035 23.1905C17.2029 26.0416 17.4404 28.9406 17.7932 31.6758H15.6249V31.676ZM18.4658 37.3577C17.6826 37.3577 17.0454 36.7205 17.0454 35.9373V34.5168H18.2098L18.5121 36.3292C18.5698 36.6737 18.6407 37.0168 18.7226 37.3577H18.4658ZM17.0478 19.8862H14.2584C14.9779 10.3663 22.9227 2.84089 32.6703 2.84089C42.3745 2.84089 50.3543 10.3653 51.0819 19.8862H48.2929C48.1906 12.0415 41.8025 5.68179 33.9417 5.68179H31.3991C23.5385 5.68179 17.1499 12.0415 17.0478 19.8862ZM31.399 8.52268H33.9416C40.3064 8.52268 45.458 13.7288 45.4543 20.0865C45.4543 20.5335 45.4507 20.9227 45.4432 21.2769C45.4432 21.2814 45.4431 21.2861 45.4431 21.2908L43.6664 21.037C38.8397 20.3478 34.2823 18.0691 30.8338 14.6205C30.5673 14.3542 30.2061 14.2045 29.8294 14.2045C26.0146 14.2045 22.3629 15.9425 19.949 18.8789C20.5439 13.095 25.4335 8.52268 31.399 8.52268ZM21.6675 37.3577C20.9564 34.9923 20.1428 28.0321 19.963 23.5719L21.8747 21.0227C23.6305 18.6824 26.3622 17.2283 29.268 17.0614C33.0914 20.7 38.0377 23.1028 43.2647 23.8492L45.3558 24.148C45.2161 27.1146 44.9304 30.0916 44.5212 32.8295C44.521 32.8303 44.5209 32.8313 44.5208 32.8323C44.3907 33.7126 44.2881 34.2791 44.0262 35.8613C43.2739 40.3733 39.9072 44.4536 35.4627 45.5648C33.6336 46.0215 31.7066 46.0213 29.8785 45.5648C27.1034 44.871 24.5588 42.9509 22.9166 40.1986H25.8124C26.3987 41.8519 27.9775 43.0395 29.8294 43.0395H32.6703C35.0247 43.0395 36.9316 41.1327 36.9316 38.7782C36.9316 36.4285 35.02 34.5168 32.6703 34.5168H29.8294C27.9363 34.5168 26.3808 35.7396 25.8099 37.3577H21.6675ZM29.7099 48.4395C30.6842 48.6447 31.6775 48.7497 32.6703 48.7497C33.4474 48.7497 34.2247 48.6847 34.9931 48.5585L32.4832 51.2129L29.7099 48.4395ZM30.5304 53.278L26.025 58.0424C24.7847 55.6683 23.7189 53.1974 22.8448 50.6679L24.5366 47.2841L30.5304 53.278ZM40.5631 46.8029L42.4955 50.6677C41.6199 53.2015 40.5539 55.6733 39.3148 58.0445L34.4927 53.2224L40.5631 46.8029ZM28.4089 38.7782C28.4089 37.994 29.045 37.3577 29.8294 37.3577H32.6703C33.4535 37.3577 34.0907 37.9949 34.0907 38.7782C34.0907 39.5626 33.4545 40.1986 32.6703 40.1986H29.8294C29.0461 40.1986 28.4089 39.5614 28.4089 38.7782ZM2.89771 69.886C3.46063 62.8492 8.1437 56.4532 14.4462 54.3515L20.4255 52.3589C21.5209 55.388 22.878 58.3322 24.4685 61.1288C24.4712 61.1336 24.4737 61.1384 24.4764 61.1431C24.4764 61.1433 24.4766 61.1433 24.4766 61.1434C25.6386 63.1873 26.9466 65.1846 28.3646 67.0807L30.112 69.886H2.89771ZM32.6703 68.6198L30.7439 65.527C30.7223 65.4924 30.6993 65.4587 30.6748 65.426C29.5245 63.8917 28.4515 62.287 27.4743 60.6445L32.54 55.2875L37.8778 60.6252C36.894 62.2796 35.8173 63.891 34.666 65.4258C34.5964 65.5185 34.6951 65.3724 32.6703 68.6198ZM35.2285 69.886L36.9758 67.0809C38.4001 65.1775 39.7174 63.1641 40.8911 61.0962C40.8982 61.0837 40.9049 61.071 40.912 61.0585C40.9128 61.0569 40.9137 61.0555 40.9145 61.0539C42.4848 58.284 43.8277 55.3654 44.9151 52.3589L50.8942 54.3515C57.1968 56.4532 61.8799 62.8492 62.4428 69.886H35.2285Z" fill="#D22F3A"/>
<path d="M58.1737 64.1374C57.2245 62.2373 55.834 60.5492 54.1526 59.2558C53.5307 58.7772 52.639 58.8935 52.1607 59.5154C51.6823 60.1373 51.7986 61.029 52.4204 61.5074C53.7633 62.5405 54.8738 63.889 55.6321 65.407C55.9834 66.11 56.8371 66.3929 57.5377 66.0429C58.2394 65.6924 58.5242 64.8392 58.1737 64.1374Z" fill="#D29B2F"/>
</svg>
