<svg width="40" height="40" viewBox="0 0 40 40" fill="none" xmlns="http://www.w3.org/2000/svg">
<circle cx="20" cy="20" r="20" fill="#7294C7"/>
<path d="M26.2561 21.4546C25.9004 20.9996 26.0021 20.7971 26.2561 20.3904C26.2606 20.3858 29.1968 16.2759 29.4993 14.8821L29.5012 14.8812C29.6515 14.3733 29.5012 14 28.7742 14H26.3688C25.7564 14 25.4741 14.3204 25.3228 14.6788C25.3228 14.6788 24.0981 17.6484 22.3656 19.5733C21.8064 20.1295 21.5479 20.3078 21.2426 20.3078C21.0923 20.3078 20.8585 20.1295 20.8585 19.6216V14.8812C20.8585 14.2721 20.6871 14 20.1802 14H16.3979C16.0138 14 15.7855 14.2841 15.7855 14.5488C15.7855 15.1264 16.6518 15.2591 16.7416 16.8841V20.4099C16.7416 21.1825 16.6032 21.3246 16.2961 21.3246C15.4784 21.3246 13.4938 18.3429 12.3176 14.9304C12.0802 14.2684 11.8483 14.0009 11.2314 14.0009H8.82503C8.13842 14.0009 8 14.3213 8 14.6797C8 15.313 8.81769 18.4618 11.8025 22.6218C13.7917 25.4614 16.5931 27 19.1416 27C20.6734 27 20.8604 26.6583 20.8604 26.0705C20.8604 23.3572 20.7219 23.1009 21.4892 23.1009C21.8449 23.1009 22.4573 23.2792 23.8873 24.6489C25.5218 26.2729 25.7904 27 26.7052 27H29.1106C29.7963 27 30.1438 26.6583 29.9439 25.9841C29.4865 24.5662 26.3954 21.6496 26.2561 21.4546Z" fill="white"/>
</svg>
